/* XPM */
static char *dummy[]={
"12 6 4 1",
". c None",
"b c #655272",
"a c #655373",
"# c #8b6f8c",
"......#aaaab",
"......#aaaaa",
"......#aaaaa",
"......#aaaaa",
"......#aaaaa",
"......######"};
