/* XPM */
static char *dummy[]={
"22 22 38 1",
"E c #203e54",
". c #5a90a4",
"h c #5d93a6",
"# c #6195a8",
"g c #6296a9",
"q c #6498ab",
"v c #669bad",
"t c #67a1b1",
"J c #689cae",
"x c #6aa3b2",
"H c #6b9eb0",
"w c #6fa6b5",
"m c #78abba",
"B c #78acba",
"a c #7caabb",
"i c #7cabbb",
"G c #7dafbd",
"p c #7fadbd",
"y c #82b0bf",
"u c #82b2bf",
"s c #86b5c2",
"I c #8ab5c4",
"F c #8db7c6",
"l c #8db9c8",
"b c #90b9c8",
"f c #92bccc",
"D c #97bfcd",
"z c #9ac2ce",
"n c #9ec4d1",
"k c #a3c8d4",
"e c #a8cbd6",
"c c #a9ccd7",
"A c #aacdd8",
"C c #aed0da",
"o c #b1d2dc",
"j c #b4d5e0",
"d c #bad8e1",
"r c #c1dde6",
"......#abcddefag......",
"....hidjklmmlnodph....",
"...qnrsttttttttudkv...",
"..qdewttttttttttxkdq..",
".hnettttttttttttttkkh.",
".irwttttttttttttttxdy.",
"#dstttttttttttttttturq",
"idttttttttttttttttttoy",
"fkttttttttttttttttttnz",
"Abttttttttttttttttttso",
"rBttttttttttttttttttwr",
"rmttttttttttttttttttmr",
"Clttttttttttttttttttbd",
"Dkttttttttttttttttttkk",
"pjtttttEEEEEEtttttttdF",
"qruttttEEEEEEttttttGrH",
".ydxttttttttttttttxdI.",
".hkkttttttttttttttnAh.",
"..vdkwtttttttttttnrJ..",
"...vkduttttttttGdCH...",
"....hyrozswwszCrFh....",
"......qyzCrrozyv......"};
