/* XPM */
static char *dummy[]={
"6 1 6 1",
". c #59425f",
"# c #5d4664",
"a c #5f4a69",
"b c #624f6e",
"c c #645171",
"d c #8b6f8c",
".#abcd"};
