/* XPM */
static char *dummy[]={
"12 24 42 1",
". c None",
"d c #5a90a4",
"w c #5e92a6",
"p c #6094a8",
"D c #689bad",
"y c #6a9daf",
"v c #6e9fb1",
"N c #70a0b2",
"t c #76a4b6",
"k c #78a7b7",
"n c #7aa9b9",
"c c #7daabb",
"M c #7eacbc",
"A c #7fadbd",
"H c #81aebe",
"f c #84b0c0",
"F c #85b1c1",
"h c #8ab5c3",
"r c #91b9c8",
"K c #92bac8",
"l c #aaccd8",
"i c #acced9",
"B c #afcfdb",
"I c #b1d1dd",
"o c #b5d5e0",
"J c #b6d0d8",
"u c #b6d4de",
"x c #b6d5df",
"G c #b7d2db",
"L c #b7d5e0",
"C c #b7d6e1",
"b c #b8d7e1",
"# c #b8d7e2",
"a c #b8d8e3",
"s c #b9d4de",
"j c #bad6e0",
"e c #bad8e2",
"E c #bbd2da",
"z c #bbd5dc",
"m c #bbd6e0",
"g c #bcd8e1",
"q c #ccdde4",
"......#aaaaa",
".....bcddddd",
"....efdddddd",
"...ghddddddd",
"...idddddddd",
"..jkdddddddd",
"..lddddddddd",
".mnddddddddd",
".opddddddddd",
"qrdddddddddd",
"stdddddddddd",
"uvdddddddddd",
"owdddddddddd",
"xydddddddddd",
"zAdddddddddd",
".Bdddddddddd",
".CDddddddddd",
".EFddddddddd",
"..Bddddddddd",
"..GHdddddddd",
"...Iwddddddd",
"...JKddddddd",
"....LMdddddd",
".....CNddddd"};
