/* XPM */
static char *dummy[]={
"12 25 34 1",
". c None",
"c c #655373",
"v c #665373",
"o c #675474",
"u c #6b5776",
"t c #6d5978",
"x c #6f5a79",
"j c #705c7a",
"m c #715c7a",
"b c #725d7b",
"F c #745e7c",
"z c #745f7c",
"e c #765f7d",
"g c #77617e",
"E c #7a627f",
"q c #7a6380",
"k c #836985",
"h c #846a86",
"A c #866b87",
"D c #886c89",
"n c #8b6e8b",
"a c #8b6f8c",
"C c #8c6d89",
"w c #8c6e8a",
"s c #8c6e8b",
"# c #8c6f8b",
"i c #8d6f8b",
"d c #8d6f8c",
"B c #8e6d89",
"y c #8e6f8a",
"l c #8e6f8c",
"f c #8e708c",
"r c #8f6f8b",
"p c #96738e",
"......#aaaaa",
".....#bccccc",
"....decccccc",
"...fgccccccc",
"...hcccccccc",
"..ijcccccccc",
"..kccccccccc",
".lmccccccccc",
".noccccccccc",
"pqcccccccccc",
"rbcccccccccc",
"stcccccccccc",
"nucccccccccc",
"nvcccccccccc",
"wxcccccccccc",
"yzcccccccccc",
".Acccccccccc",
".nuccccccccc",
".Beccccccccc",
"..Accccccccc",
"..Czcccccccc",
"...Dvccccccc",
"...CEccccccc",
"....sFcccccc",
".....ntccccc"};
