/* XPM */
static char *dummy[]={
"6 24 12 1",
"b c None",
"j c #598fa3",
"c c #5a90a4",
"i c #5b8fa3",
"d c #6598ab",
"h c #77a5b7",
"e c #80adbd",
"g c #8eb7c6",
"f c #b0d1dc",
"# c #b6d5e0",
". c #b8d8e3",
"a c #bed5dc",
"..#abb",
"ccdefb",
"ccccg.",
"cccch.",
"ccccc.",
"ccccc.",
"ccccc.",
"ccccc.",
"ccccc.",
"ccccc.",
"ccccc.",
"ccccc.",
"ccccc.",
"ccccc.",
"ccccc.",
"ccccc.",
"ccccc.",
"ccccc.",
"ccccc.",
"ccccc.",
"ccccc.",
"ccccc.",
"ccccc.",
"cijcc."};
