/* XPM */
static char *dummy[]={
"17 17 20 1",
"# c #3573d6",
"p c #3775d6",
"a c #3f7ad8",
"b c #447dd9",
"h c #4b82db",
"n c #588bdd",
"g c #598cdd",
"e c #6796e0",
"k c #78a2e4",
"o c #7ca4e4",
"d c #88ade7",
"q c #97b7ea",
"l c #9ebceb",
"r c #a6c2ed",
"c c #b6ccf0",
"i c #bdd1f2",
"m c #c0d3f2",
"f c #c3d5f3",
"j c #cadaf4",
". c #ccdcf5",
".................",
".###############.",
".###############.",
".###a######a####.",
".##bcd####efg###.",
".##hi.d##ejje###.",
".###hi.dejje####.",
".####hi..je#####.",
".#####k..l######.",
".####ejjm.d#####.",
".###ejjehi.d####.",
".##njje##hi.o###.",
".##pqe####hrb###.",
".###############.",
".###############.",
".###############.",
"................."};
