/* XPM */
static char *dummy[]={
"17 17 3 1",
"# c #3573d6",
". c #729de2",
"a c #86abe6",
".................",
".###############.",
".###############.",
".###############.",
".###############.",
".###############.",
".###############.",
".###############.",
".###############.",
".###############.",
".###############.",
".###aaaaaa######.",
".###aaaaaa######.",
".###############.",
".###############.",
".###############.",
"................."};
