/* XPM */
static char *dummy[]={
"17 17 3 1",
"# c #3573d6",
". c #86abe6",
"a c #ccdcf5",
".................",
".###############.",
".###############.",
".###############.",
".###aaaaaaaaa###.",
".###aaaaaaaaa###.",
".###a#######a###.",
".###a#######a###.",
".###a#######a###.",
".###a#######a###.",
".###a#######a###.",
".###a#######a###.",
".###aaaaaaaaa###.",
".###############.",
".###############.",
".###############.",
"................."};
