/* XPM */
static char *dummy[]={
"6 22 9 1",
"e c #3068c2",
"f c #316bc7",
"g c #336fce",
"a c #336fcf",
"b c #3470d1",
"c c #3472d3",
"d c #3573d5",
"# c #3573d6",
". c #6896e0",
"......",
"#####.",
"#####.",
"#####.",
"#####.",
"#####.",
"#####.",
"#####.",
"#####.",
"#####.",
"#####.",
"#####.",
"#####.",
"#####.",
"#####.",
"#####.",
"#####.",
"#####.",
"#####.",
"#####.",
"abcd#.",
"efgc#."};
