/* XPM */
static char *dummy[]={
"21 23 90 2",
"Qt c None",
".p c #275a99",
".m c #285a96",
".i c #285a97",
".n c #285a98",
".s c #285a9b",
".b c #285b93",
".c c #285b94",
".z c #285b9d",
".d c #295b94",
".F c #2a5ca0",
".J c #2b5c9f",
".K c #2f5fa2",
".N c #305fa2",
".O c #3463a4",
".V c #3763a4",
".M c #3a7ac9",
".R c #3a7dcb",
".a c #3b6eb9",
".S c #3b7ccb",
".T c #3b7dca",
".Q c #3b7dcb",
".e c #3c71ba",
".W c #3d68a8",
".Z c #3e69a7",
".H c #3e7cc6",
".f c #416fa5",
".# c #4274c5",
".0 c #436eac",
".5 c #4570ad",
".Y c #4584d0",
".C c #467fc4",
".D c #467fc5",
".B c #477fc5",
".2 c #4a8bda",
".4 c #4a8cd9",
".3 c #4a8cda",
".6 c #4d73c3",
".u c #4e82c5",
".v c #4f82c5",
"#t c #5379c6",
".r c #5886c6",
".o c #628bc7",
"#s c #629cda",
"#x c #639bd9",
".8 c #649ee2",
"## c #69a1e1",
"#a c #69a1e2",
".1 c #6a9fdc",
".X c #6d9ed8",
".L c #6d9fd7",
".U c #6e9ed7",
".P c #6e9fd7",
"#c c #6fa6e3",
".G c #73a3d7",
".I c #73a3d8",
"#e c #73a9e3",
"#f c #73a9e4",
"#h c #74a9e3",
"#j c #78ade4",
".A c #7aa8d8",
".E c #7ba8d9",
"#l c #7eb0e5",
".7 c #83aee2",
"#o c #83b4e6",
"#w c #83c2ed",
".t c #84aeda",
"#p c #84b4e6",
".j c #85a9d1",
"#. c #85afe2",
"#b c #87b1e3",
".l c #88aad6",
"#d c #8ab1e3",
"#i c #8db2e3",
".q c #8eb5dd",
"#k c #8fb3e4",
"#n c #8fbbe8",
"#q c #90bbe8",
"#r c #92b4e4",
"#m c #92b4e5",
".g c #95b6d8",
".k c #99bde0",
"#v c #9cc2ea",
"#u c #9ec2ea",
".h c #aecbe7",
".y c #b8cde8",
".w c #b9cde8",
"#g c #c7ddf4",
".9 c #f5f9fd",
".x c #ffffff",
"QtQtQtQtQtQtQtQtQtQtQtQtQtQtQtQtQtQtQtQtQt",
"QtQtQtQtQtQtQtQtQtQtQtQtQtQtQtQtQtQtQtQtQt",
".#.a.b.c.c.c.c.b.c.c.c.d.d.c.c.c.c.c.b.a.#",
".e.f.g.h.h.h.h.h.h.h.h.h.h.h.h.h.h.h.g.f.e",
".i.j.k.l.l.l.l.l.l.l.l.l.l.l.l.l.l.l.k.j.m",
".n.k.o.o.o.o.o.o.o.o.o.o.o.o.o.o.o.o.o.k.n",
".p.q.r.r.r.r.r.r.r.r.r.r.r.r.r.r.r.r.r.q.p",
".s.t.u.v.v.w.x.v.v.v.v.u.u.u.x.y.u.u.v.t.s",
".z.A.B.C.C.x.x.x.C.D.D.D.B.x.x.x.B.B.B.E.z",
".F.G.H.H.H.H.x.x.x.H.H.H.x.x.x.H.H.H.H.I.J",
".K.L.M.M.M.M.M.x.x.x.M.x.x.x.M.M.M.M.M.L.N",
".O.P.Q.R.Q.Q.S.R.x.x.x.x.x.Q.Q.R.R.T.T.U.V",
".W.X.Y.Y.Y.Y.Y.Y.Y.x.x.x.Y.Y.Y.Y.Y.Y.Y.X.Z",
".0.1.2.3.4.4.3.3.x.x.x.x.x.3.3.4.4.4.4.1.5",
".6.7.8.8.8.8.8.x.x.x.8.x.x.9.8.8.8.8.8.7.6",
".6#.########.x.x.x######.x.x.x###a#####..6",
".6#b#c#c#c.x.x.x#c#c#c#c#c.x.x.x#c#c#c#b.6",
".6#d#e#f#e#g.x#e#h#e#e#f#e#e.x#g#e#e#e#d.6",
".6#i#j#j#j#j#j#j#j#j#j#j#j#j#j#j#j#j#j#i.6",
".6#k#l#l#l#l#l#l#l#l#l#l#l#l#l#l#l#l#l#k.6",
".6#m#n#o#o#o#o#o#o#o#p#p#o#o#o#o#p#p#q#r.6",
"#s#t#u#u#u#u#u#u#u#u#u#u#u#u#u#u#u#u#v.6#s",
"#w#x.6.6.6.6.6.6.6.6.6.6.6.6.6.6.6.6.6#x#w"};
