/* XPM */
static char *dummy[]={
"21 23 87 2",
"Qt c None",
".v c #0e2c64",
".c c #10184a",
".d c #141d4f",
".s c #173670",
"#b c #183b79",
"#n c #183e7a",
"#s c #194485",
"#r c #1c4988",
".b c #223970",
".l c #25376b",
".n c #254783",
".r c #254882",
"#t c #255590",
".e c #2a3d72",
"#q c #2a599f",
"#a c #2b5aa3",
"#o c #2b5ba2",
"#p c #2c55b1",
".h c #2e4477",
"#u c #2e57b1",
".a c #355d9a",
".f c #446bab",
".m c #456eae",
".g c #6a9ddb",
".# c #6ca0dd",
".9 c #993131",
".O c #9a3131",
".Z c #9c3434",
".T c #9d3535",
"## c #a13939",
"#. c #af4747",
".i c #b24949",
".8 c #b54c4c",
".Q c #b74e4e",
".S c #b84f4f",
".j c #b95050",
".6 c #bb5a4c",
".I c #be5656",
".k c #c25757",
".E c #c35a5a",
".7 c #c36150",
".A c #c4675b",
".z c #c75e5e",
".x c #ca6161",
".o c #cc6464",
".D c #cc6b5d",
".y c #cf6666",
".w c #d06868",
".t c #d36868",
".u c #d56c6c",
".B c #d59485",
"#c c #d76f6f",
".F c #d79585",
".G c #d89585",
"#m c #d97070",
".J c #d99585",
".K c #da9686",
".p c #db7473",
".L c #db9686",
".N c #dc9786",
".C c #dc9887",
".q c #dd7676",
".H c #dd9887",
".0 c #dd9987",
".Y c #de937e",
".M c #de9987",
".R c #df9a87",
".P c #df9a88",
".U c #e09b88",
".W c #e19d89",
".V c #e29d89",
".X c #e39e89",
".1 c #e39f8a",
".2 c #e59f8b",
".3 c #e5a08b",
"#d c #e67d7d",
"#e c #e67e7e",
".4 c #e6a08b",
".5 c #e6a18b",
"#l c #e87f7f",
"#f c #e98181",
"#g c #ea8282",
"#h c #ec8383",
"#i c #ed8484",
"#j c #ee8585",
"#k c #ef8686",
"QtQtQtQtQtQtQtQtQtQtQtQtQtQtQtQtQtQtQtQtQt",
"QtQtQtQtQtQtQtQtQtQtQtQtQtQtQtQtQtQtQtQtQt",
".#.a.b.c.c.d.d.d.d.d.d.d.d.d.d.d.c.c.e.f.g",
".a.h.i.j.j.j.j.j.j.j.j.j.j.j.j.j.j.j.k.l.m",
".n.o.p.q.q.q.q.q.q.q.q.q.q.q.q.q.q.q.p.o.r",
".s.t.u.u.u.u.u.u.u.u.u.u.u.u.u.u.u.u.u.o.v",
".s.w.x.x.x.x.x.x.x.x.x.x.x.x.x.x.x.x.x.w.v",
".s.y.z.z.z.A.B.z.z.z.z.z.z.z.C.D.z.z.z.y.v",
".s.o.E.E.E.B.F.G.E.E.E.E.E.H.H.H.E.E.E.o.v",
".s.x.I.I.I.I.J.K.L.I.I.I.H.M.M.I.I.I.I.x.v",
".s.E.i.i.i.i.i.L.N.N.i.H.M.M.i.i.i.i.i.E.v",
".s.j.O.O.O.O.O.O.N.H.M.M.P.O.O.O.O.O.O.j.v",
".s.Q.O.O.O.O.O.O.O.M.R.P.O.O.O.O.O.O.O.Q.v",
".s.S.T.T.T.T.T.T.H.R.P.U.V.T.T.T.T.T.T.S.v",
".s.S.T.T.T.T.T.H.M.P.T.W.X.Y.T.T.T.T.T.S.v",
".s.Q.Z.Z.Z.Z.H.0.R.Z.Z.Z.1.2.3.Z.Z.Z.Z.Q.v",
".s.Q.Z.Z.Z.H.H.M.Z.Z.Z.Z.Z.3.4.5.Z.Z.Z.Q.v",
".s.Q.Z.Z.Z.6.0.Z.Z.Z.Z.Z.Z.Z.5.7.Z.Z.Z.Q.v",
".s.8.O.O.O.O.O.O.O.O.O.O.O.O.O.O.O.O.O.8.v",
".s.8.9.9.9.9.9.9.9.9.9.9.9.9.9.9.9.9.9.8.v",
".s.j#.###############################..j.v",
"#a#b#c#d#e#f#g#h#i#j#k#j#j#i#h#f#l#e#m#n#o",
"#p#q#r#r#r#r#r#r#r#r#r#r#r#r#r#r#r#r#s#t#u"};
