/* XPM */
static char *dummy[]={
"21 23 222 2",
"Qt c None",
"#A c #18489c",
"bz c #194485",
"#O c #1a499e",
"aY c #1b488b",
"#J c #1b4fa7",
"bg c #1c4889",
"a7 c #1c488a",
"aP c #1c488c",
"by c #1c4988",
"aF c #1c498d",
"#B c #1c59c1",
"#I c #1c59c2",
"at c #1d498e",
"#2 c #1d4fa2",
"#C c #1d5dcb",
"#H c #1d5ecc",
"#X c #1e51a9",
"#P c #1e5ac4",
"#W c #1e5ac5",
"ae c #1f4b8f",
"#Q c #1f5ece",
"#V c #1f5fcf",
"as c #204b8f",
"ag c #2053a5",
"ab c #2055ac",
"#3 c #215fc7",
"aa c #215fc8",
"#D c #216ae7",
"#F c #216ae8",
"#E c #216be9",
"#G c #216bea",
"#0 c #224d90",
"#4 c #2263d1",
"a# c #2263d2",
"ad c #234d90",
"aq c #2358ae",
"#R c #236bea",
"#S c #236beb",
"#T c #236cec",
"#U c #236ced",
"ah c #2461c6",
"ap c #2461c7",
"bA c #255590",
"av c #2559a7",
"#M c #264f92",
"#5 c #266fec",
"#6 c #266fed",
"a. c #266fee",
"#9 c #266fef",
"#Z c #275092",
"#m c #2760ac",
"#7 c #276fee",
"#8 c #276fef",
"aD c #285eb0",
"aw c #2867c6",
"aC c #2867c7",
"aj c #2870e8",
"ak c #2870e9",
"ao c #2870ea",
"an c #2870eb",
"#y c #295294",
"ai c #296cd7",
"al c #2971ea",
"am c #2971eb",
"#L c #2a5395",
"bx c #2a599f",
"aH c #2a5fab",
"bh c #2b5aa3",
"bv c #2b5ba2",
"#w c #2b68b5",
"bw c #2c55b1",
"#. c #2c66af",
"aB c #2c75e8",
"aA c #2c75e9",
"az c #2c76e9",
"aN c #2d64b3",
"aI c #2d6bc8",
"aM c #2d6cc8",
"ax c #2d73dc",
".b c #2e55a0",
"bB c #2e57b1",
"#n c #2f77ce",
"#v c #2f77cf",
"aJ c #3077e5",
"aL c #3079e6",
"aK c #3079e7",
".e c #3158a1",
"aR c #316bba",
"#j c #316fb8",
"#o c #317dd7",
".X c #326db2",
"aS c #3271c9",
"aW c #336ebe",
"aV c #3371ca",
"aT c #3478d9",
"bi c #355d9d",
"aU c #3578db",
"## c #357fcf",
"a0 c #3673c5",
"#i c #367fcf",
"a9 c #3771be",
"bb c #3771bf",
"b. c #3772c1",
"b# c #3773c4",
"a1 c #3778d0",
"a4 c #3778d1",
".7 c #3875ba",
"a5 c #3876c9",
"#a c #3885d7",
"#h c #3886d7",
"#p c #388ef0",
"#q c #388ef1",
"#r c #388ff1",
"#s c #388ff2",
"#u c #388ff3",
"#t c #3890f3",
"a2 c #397ddc",
"a3 c #397ddd",
".L c #3a72b2",
"#z c #3d6cb3",
"ba c #3d79c7",
".Y c #3d87cf",
".6 c #3d88cf",
"#N c #3e6cb4",
"#K c #3f6fb8",
"bd c #3f74bb",
"#b c #3f98ef",
"#c c #3f99ef",
".k c #4064a5",
"#1 c #406fb6",
"#Y c #4070b9",
".U c #407bba",
"#d c #4099f0",
"#e c #409af0",
"af c #4171b7",
"ac c #4172bb",
"#g c #419af1",
"#f c #419bf1",
"ar c #4374bc",
"au c #4474b8",
".B c #4476b1",
"aE c #4577bd",
"#l c #4578bb",
"aG c #4677ba",
".9 c #477bbc",
"#x c #477cbf",
".M c #478dcc",
".T c #478ecd",
"aO c #487abe",
".0 c #49a2ec",
".1 c #49a2ed",
".4 c #49a3ed",
".I c #4a7db9",
"aQ c #4a7dc2",
".W c #4a7ebe",
"#k c #4a7fc1",
".2 c #4aa3ed",
".3 c #4aa3ee",
"aX c #4b7fc4",
".r c #4c7ab1",
"aZ c #4c81c7",
".Z c #4c98da",
".5 c #4c98db",
"a8 c #4d80c4",
".8 c #4d82c2",
"a6 c #4d83c9",
".K c #4e81be",
".y c #5182b7",
".V c #5185c2",
"be c #5188c7",
".C c #5290c9",
".A c #5383bd",
".a c #5384c5",
".H c #5391ca",
".O c #54a9e7",
".P c #54a9e8",
".Q c #54aae8",
".R c #54aae9",
".S c #55aae8",
"bu c #567eb8",
".J c #5686c1",
".q c #5785bd",
".N c #58a1dc",
".c c #5985cd",
".z c #5a89c0",
"bf c #5a8cc8",
".s c #5c94c6",
".x c #5c94c7",
"bc c #5d92cb",
".D c #61aae2",
".E c #62abe2",
".F c #62abe3",
".G c #63ace3",
".j c #658fc5",
".f c #678dbf",
"bj c #6a8dbe",
".p c #6a95c9",
".d c #6a9ddb",
".m c #6b9ac5",
".n c #6b9bc5",
".# c #6ca0dd",
".t c #6caedc",
".u c #6cafdd",
".v c #6dafdd",
".w c #6db0de",
".l c #6e98c4",
".o c #729bc8",
"bt c #81a2ce",
".g c #8dbae0",
".i c #8ebae1",
".h c #8ebbe1",
"bk c #8fb0d7",
"bl c #90b0d8",
"bm c #90b1d9",
"bn c #90b1da",
"bs c #90b2da",
"bo c #90b2db",
"bp c #91b2db",
"br c #91b2dc",
"bq c #91b3dc",
"ay c #ffffff",
"QtQtQtQtQtQtQtQtQtQtQtQtQtQtQtQtQtQtQtQtQt",
"QtQtQtQtQtQtQtQtQtQtQtQtQtQtQtQtQtQtQtQtQt",
".#.a.b.b.b.b.b.b.b.b.b.b.b.b.b.b.b.b.b.c.d",
".a.e.f.g.g.g.g.g.h.h.h.h.h.i.i.i.i.i.j.k.c",
".b.l.l.m.m.m.m.m.m.n.n.n.n.m.m.m.m.m.o.p.b",
".b.q.r.s.t.t.t.u.v.w.w.w.w.v.v.v.v.x.y.z.b",
".b.A.B.C.D.D.D.E.F.G.G.G.G.G.G.G.G.H.I.J.b",
".b.K.L.M.N.O.O.P.Q.R.R.R.R.S.S.S.N.T.U.V.b",
".b.W.X.Y.Z.0.0.1.2.3.3.3.3.4.4.4.5.6.7.8.b",
".b.9#.###a#b#c#d#e#f#f#f#g#e#d#d#h#i#j#k.b",
".b#l#m#n#o#p#q#r#s#t#t#t#t#u#s#s#o#v#w#x.b",
"#y#z#A#B#C#D#E#F#E#G#G#G#G#G#E#E#H#I#J#K#L",
"#M#N#O#P#Q#R#S#S#T#U#U#U#U#U#T#T#V#W#X#Y#Z",
"#0#1#2#3#4#5#6#6#7#8#8#8#8#9a.a.a#aaabacad",
"aeafagahaiajakakalamamamamanaoaoaiapaqaras",
"atauavawaxayayayayayayayazaAaBaBaxaCaDaEat",
"aFaGaHaIaJayayayayayayayaKaLaLaLaLaMaNaOaF",
"aPaQaRaSaTayayayayayayayaUaUaUaUaUaVaWaXaP",
"aYaZa0a1a2a2a2a2a3a3a3a3a3a3a3a3a3a4a5a6aY",
"a7a8a9b.b#b#b#b#b#b#b#b#b#b#b#b#b#babba8a7",
"a7bcbcbdbdbdbdbdbdbdbdbdbdbdbdbdbdbdbebfbg",
"bhbibjbkblbmbnbobpbqbqbqbrbpbsbnbmblbtbubv",
"bwbxbybybybybybybybybybybybybybybybybzbAbB"};
