/* XPM */
static char *dummy[]={
"21 23 93 2",
"Qt c None",
"#e c #275a99",
"#p c #285a96",
"#k c #285a97",
"#h c #285a98",
"#a c #285a9b",
"#w c #285b93",
"#x c #285b94",
".7 c #285b9d",
"#y c #295b94",
".1 c #2a5ca0",
"#v c #2b56aa",
".6 c #2b5c9f",
"#u c #2c55b1",
"#z c #2c58aa",
"#A c #2e57b1",
"#q c #2e5baf",
".W c #2f5fa2",
".0 c #305fa2",
".O c #3463a4",
".V c #3763a4",
".Z c #3a79c9",
".Y c #3a7ac9",
".R c #3a7dcb",
".S c #3b7ccb",
".T c #3b7dca",
".Q c #3b7dcb",
".K c #3d68a8",
".N c #3e69a7",
".3 c #3e7cc6",
"#r c #416fa5",
".E c #436eac",
".J c #4570ad",
".M c #4584d0",
"#. c #467fc4",
".9 c #477fc5",
".G c #4a8bda",
".I c #4a8cd9",
".H c #4a8cda",
".b c #4d73c3",
"#c c #4e82c5",
"#d c #4f82c5",
".e c #5379c6",
"#g c #5886c6",
".c c #5985cd",
"#j c #628bc7",
".a c #6497d7",
".D c #649ee2",
".A c #69a1e1",
".B c #69a1e2",
".d c #6a9ddb",
".F c #6a9fdc",
".# c #6ca0dd",
".L c #6d9ed8",
".X c #6d9fd7",
".U c #6e9ed7",
".P c #6e9fd7",
".y c #6fa6e3",
".h c #7091ce",
".2 c #73a3d7",
".5 c #73a3d8",
".t c #73a9e3",
".u c #73a9e4",
".w c #74a9e3",
".v c #74a9e4",
".r c #78ade4",
".8 c #7aa8d8",
"## c #7ba8d9",
".p c #7eb0e5",
".C c #83aee2",
".k c #83b4e6",
"#b c #84aeda",
".l c #84b4e6",
"#l c #85a9d1",
".z c #85afe2",
".x c #87b1e3",
"#n c #88aad6",
".s c #8ab1e3",
"#s c #8cafd3",
".q c #8db2e3",
"#f c #8eb5dd",
".o c #8fb3e4",
".j c #8fbbe8",
".m c #90bbe8",
".n c #92b4e4",
".i c #92b4e5",
"#i c #99bde0",
"#o c #9bbbdf",
".g c #9cc2ea",
".f c #9ec2ea",
"#m c #a5c3e3",
"#t c #aecbe7",
".4 c #ffffff",
"QtQtQtQtQtQtQtQtQtQtQtQtQtQtQtQtQtQtQtQtQt",
"QtQtQtQtQtQtQtQtQtQtQtQtQtQtQtQtQtQtQtQtQt",
".#.a.b.b.b.b.b.b.b.b.b.b.b.b.b.b.b.b.b.c.d",
".a.e.f.f.f.f.f.f.f.f.f.f.f.f.f.f.f.f.g.h.c",
".b.i.j.k.k.k.k.k.k.k.l.l.k.k.k.k.l.l.m.n.b",
".b.o.p.p.p.p.p.p.p.p.p.p.p.p.p.p.p.p.p.o.b",
".b.q.r.r.r.r.r.r.r.r.r.r.r.r.r.r.r.r.r.q.b",
".b.s.t.u.t.v.u.t.w.t.t.u.t.t.t.u.t.t.t.s.b",
".b.x.y.y.y.y.y.y.y.y.y.y.y.y.y.y.y.y.y.x.b",
".b.z.A.A.A.A.A.A.A.A.A.A.A.A.A.A.B.A.A.z.b",
".b.C.D.D.D.D.D.D.D.D.D.D.D.D.D.D.D.D.D.C.b",
".E.F.G.H.I.I.H.H.G.I.I.I.I.H.H.I.I.I.I.F.J",
".K.L.M.M.M.M.M.M.M.M.M.M.M.M.M.M.M.M.M.L.N",
".O.P.Q.R.Q.Q.S.R.R.S.S.T.R.Q.Q.R.R.T.T.U.V",
".W.X.Y.Y.Y.Y.Y.Y.Z.Y.Y.Y.Y.Y.Y.Y.Y.Y.Y.X.0",
".1.2.3.3.3.4.4.4.4.4.4.4.3.3.3.3.3.3.3.5.6",
".7.8.9#.#..4.4.4.4.4.4.4.9.9.9.9.9.9.9##.7",
"#a#b#c#d#d.4.4.4.4.4.4.4#c#c#c#c#c#c#d#b#a",
"#e#f#g#g#g#g#g#g#g#g#g#g#g#g#g#g#g#g#g#f#e",
"#h#i#j#j#j#j#j#j#j#j#j#j#j#j#j#j#j#j#j#i#h",
"#k#l#m#n#n#n#n#n#n#n#n#n#n#n#n#n#n#n#o#l#p",
"#q#r#s#t#t#t#t#t#t#t#t#t#t#t#t#t#t#t#s#r#q",
"#u#v#w#x#x#x#x#w#x#x#x#y#y#x#x#x#x#x#x#z#A"};
