/* XPM */
static char *dummy[]={
"21 23 85 2",
"Qt c None",
".p c #275a99",
".m c #285a96",
".i c #285a97",
".n c #285a98",
".s c #285a9b",
".b c #285b93",
".c c #285b94",
".x c #285b9d",
".d c #295b94",
".C c #2a5ca0",
".G c #2b5c9f",
".H c #2f5fa2",
".K c #305fa2",
".L c #3463a4",
".R c #3763a4",
".J c #3a7ac9",
".O c #3a7dcb",
".a c #3b6eb9",
".P c #3b7dca",
".N c #3b7dcb",
".e c #3c71ba",
".S c #3d68a8",
".V c #3e69a7",
".E c #3e7cc6",
".f c #416fa5",
".# c #4274c5",
".W c #436eac",
".1 c #4570ad",
".U c #4584d0",
".A c #467fc4",
".z c #477fc5",
".Y c #4a8bda",
".0 c #4a8cd9",
".Z c #4a8cda",
".2 c #4d73c3",
".u c #4e82c5",
".v c #4f82c5",
"#o c #5379c6",
".r c #5886c6",
".o c #628bc7",
"#n c #629cda",
"#s c #639bd9",
".4 c #649ee2",
".6 c #69a1e1",
".7 c #69a1e2",
".X c #6a9fdc",
".T c #6d9ed8",
".I c #6d9fd7",
".Q c #6e9ed7",
".M c #6e9fd7",
".9 c #6fa6e3",
".D c #73a3d7",
".F c #73a3d8",
"## c #73a9e3",
"#a c #73a9e4",
"#c c #74a9e3",
"#b c #74a9e4",
"#e c #78ade4",
".y c #7aa8d8",
".B c #7ba8d9",
"#g c #7eb0e5",
".3 c #83aee2",
"#j c #83b4e6",
"#r c #83c2ed",
".t c #84aeda",
"#k c #84b4e6",
".j c #85a9d1",
".5 c #85afe2",
".8 c #87b1e3",
".l c #88aad6",
"#. c #8ab1e3",
"#d c #8db2e3",
".q c #8eb5dd",
"#f c #8fb3e4",
"#i c #8fbbe8",
"#l c #90bbe8",
"#m c #92b4e4",
"#h c #92b4e5",
".g c #95b6d8",
".k c #99bde0",
"#q c #9cc2ea",
"#p c #9ec2ea",
".h c #aecbe7",
".w c #ffffff",
"QtQtQtQtQtQtQtQtQtQtQtQtQtQtQtQtQtQtQtQtQt",
"QtQtQtQtQtQtQtQtQtQtQtQtQtQtQtQtQtQtQtQtQt",
".#.a.b.c.c.c.c.b.c.c.c.d.d.c.c.c.c.c.b.a.#",
".e.f.g.h.h.h.h.h.h.h.h.h.h.h.h.h.h.h.g.f.e",
".i.j.k.l.l.l.l.l.l.l.l.l.l.l.l.l.l.l.k.j.m",
".n.k.o.o.o.o.o.o.o.o.o.o.o.o.o.o.o.o.o.k.n",
".p.q.r.r.r.r.r.r.r.r.r.r.r.r.r.r.r.r.r.q.p",
".s.t.u.v.v.v.v.v.w.w.w.w.w.w.w.u.u.u.v.t.s",
".x.y.z.A.A.A.A.A.w.w.w.w.w.w.w.z.z.z.z.B.x",
".C.D.E.E.E.E.E.E.E.E.E.E.E.E.w.E.E.E.E.F.G",
".H.I.J.J.J.w.w.w.w.w.w.w.J.J.w.J.J.J.J.I.K",
".L.M.N.O.N.w.w.w.w.w.w.w.O.N.w.O.O.P.P.Q.R",
".S.T.U.U.U.w.U.U.U.U.U.w.U.U.w.U.U.U.U.T.V",
".W.X.Y.Z.0.w.Z.Z.Y.0.0.w.0.w.w.0.0.0.0.X.1",
".2.3.4.4.4.w.4.4.4.4.4.w.4.4.4.4.4.4.4.3.2",
".2.5.6.6.6.w.6.6.6.6.6.w.6.6.6.6.7.6.6.5.2",
".2.8.9.9.9.w.w.w.w.w.w.w.9.9.9.9.9.9.9.8.2",
".2#.###a###b#a###c#####a#######a#######..2",
".2#d#e#e#e#e#e#e#e#e#e#e#e#e#e#e#e#e#e#d.2",
".2#f#g#g#g#g#g#g#g#g#g#g#g#g#g#g#g#g#g#f.2",
".2#h#i#j#j#j#j#j#j#j#k#k#j#j#j#j#k#k#l#m.2",
"#n#o#p#p#p#p#p#p#p#p#p#p#p#p#p#p#p#p#q.2#n",
"#r#s.2.2.2.2.2.2.2.2.2.2.2.2.2.2.2.2.2#s#r"};
