/* XPM */
static char *dummy[]={
"9 30 66 2",
".# c None",
".9 c #224fa8",
".8 c #254394",
"Qt c #2a4dab",
".3 c #2c55b1",
".h c #2d56b0",
".4 c #2d56b1",
".0 c #2e57b1",
".X c #305bb7",
".U c #315fb7",
".R c #3261bb",
".k c #3262bd",
".O c #3367bd",
".L c #3369c1",
".G c #3472c5",
".D c #3677c9",
".I c #376fc2",
".A c #3779cd",
".B c #397ace",
".x c #3980d2",
".E c #3a7aca",
".z c #3a7cd0",
".H c #3b78c8",
".J c #4078c6",
".M c #4176c7",
".P c #4478c5",
".S c #4877c6",
".V c #4c7ac4",
".Y c #507bc6",
".1 c #547dc4",
".v c #5593de",
".5 c #5881c7",
".6 c #5a83c8",
".t c #5a98e1",
"#. c #5e89cb",
".s c #609ee7",
".r c #64a3ea",
".p c #68a5e8",
".n c #6daae9",
".b c #7099d7",
".l c #70b1eb",
".i c #72b3e9",
".g c #76b8ec",
".f c #7bbbeb",
".e c #80beed",
".c c #83c2ed",
".j c #89b5e7",
".o c #8ab9e7",
".q c #8ab9e8",
".w c #8abbe7",
".y c #8abbe8",
".m c #8bb5e7",
".u c #8bbae7",
".F c #8fbde8",
".C c #8fbee8",
".K c #90bfe8",
".N c #91bfe8",
".Q c #91c0e8",
".T c #93c1e9",
".W c #95c2e9",
".7 c #96c0e8",
".Z c #96c2e9",
"## c #96c3e9",
".2 c #98c3e9",
".a c #99c6f1",
".d c #9bc8f1",
"QtQtQtQt.#.#.#.#.#",
".a.a.a.bQtQt.#.#.#",
".c.c.c.d.a.bQt.#.#",
".e.e.e.e.e.a.bQt.#",
".f.f.f.f.f.f.aQt.#",
".g.g.g.g.g.g.a.b.h",
".i.i.i.i.i.i.i.j.k",
".l.l.l.l.l.l.l.m.k",
".n.n.n.n.n.n.n.o.k",
".p.p.p.p.p.p.p.q.k",
".r.r.r.r.r.r.r.q.k",
".r.r.r.r.r.r.r.q.k",
".s.s.s.s.s.s.s.o.k",
".t.t.t.t.t.t.t.u.k",
".v.v.v.v.v.v.v.w.k",
".x.x.x.x.x.x.x.y.k",
".z.z.z.z.z.z.z.w.k",
".A.A.A.A.A.A.B.C.k",
".D.D.D.D.D.D.E.F.k",
".G.G.G.G.G.G.H.C.k",
".I.I.I.I.I.I.J.K.k",
".L.L.L.L.L.L.M.N.k",
".O.O.O.O.O.O.P.Q.k",
".R.R.R.R.R.R.S.T.k",
".U.U.U.U.U.U.V.W.k",
".X.X.X.X.X.X.Y.Z.k",
".0.0.0.0.0.0.1.2.k",
".3.3.3.3.3.4.5.2.k",
".3.3.3.3.3.3.6.7.k",
".8.8.8.8.8.9#.##.k"};
