/* XPM */
static char *dummy[]={
"4 2 2 1",
". c #d4d0c8",
"# c #ffffff",
".#..",
".#.."};
