/* XPM */
static char *dummy[]={
"5 23 4 1",
"# c #404040",
"b c #808080",
". c #d4d0c8",
"a c #ffffff",
"....#",
"aaab#",
"...b#",
"...b#",
"b..b#",
"b..b#",
"b..b#",
"b..b#",
"b..b#",
"b..b#",
"b..b#",
"b..b#",
"b..b#",
"b..b#",
"b..b#",
"b..b#",
"b..b#",
"b..b#",
"b..b#",
"b..b#",
"b..b#",
"b..b#",
"...b#"};
