/* XPM */
static char *dummy[]={
"21 23 101 2",
"Qt c None",
"#k c #272727",
"#d c #292929",
"#. c #2c2c2c",
"#E c #2e2e2e",
".6 c #2f2f2f",
".1 c #303030",
".5 c #313131",
"#D c #323232",
"#I c #333333",
"#F c #353535",
".W c #363636",
".Q c #393939",
".V c #3a3a3a",
"#v c #3b3b3b",
"#G c #3d3d3d",
".b c #434343",
".c c #444444",
".N c #454545",
".e c #464646",
"#H c #474747",
".2 c #4b4b4b",
".7 c #4c4c4c",
"## c #4d4d4d",
".X c #505050",
"#e c #515151",
".3 c #525252",
".R c #535353",
".U c #545454",
"#a c #555555",
".Y c #565656",
".i c #575757",
"#g c #595959",
".S c #5a5a5a",
".d c #5b5b5b",
".8 c #5d5d5d",
".Z c #5e5e5e",
"#b c #5f5f5f",
".a c #606060",
".K c #616161",
".E c #626262",
".u c #646464",
".F c #656565",
".v c #666666",
".w c #676767",
".q c #686868",
".r c #696969",
".# c #6a6a6a",
".l c #6b6b6b",
".m c #6c6c6c",
".n c #6d6d6d",
".o c #6e6e6e",
".s c #6f6f6f",
".p c #707070",
".t c #717171",
".x c #727272",
".y c #737373",
".L c #747474",
".C c #757575",
".z c #767676",
".A c #777777",
".B c #787878",
".T c #797979",
".G c #7a7a7a",
".9 c #7b7b7b",
".H c #7d7d7d",
".I c #7e7e7e",
".J c #7f7f7f",
".D c #808080",
".j c #828282",
".M c #838383",
".k c #848484",
".O c #858585",
".4 c #868686",
".0 c #878787",
".P c #898989",
".f c #8a8a8a",
".g c #8b8b8b",
".h c #8c8c8c",
"#l c #8d8d8d",
"#f c #8e8e8e",
"#u c #909090",
"#h c #919191",
"#m c #949494",
"#i c #959595",
"#p c #969696",
"#j c #979797",
"#n c #999999",
"#o c #9b9b9b",
"#q c #9e9e9e",
"#w c #a0a0a0",
"#r c #a5a5a5",
"#x c #a6a6a6",
"#s c #a9a9a9",
"#t c #aaaaaa",
"#y c #adadad",
"#z c #b5b5b5",
"#A c #bbbbbb",
"#B c #c0c0c0",
"#C c #c4c4c4",
"#c c #ffffff",
"QtQtQtQtQtQtQtQtQtQtQtQtQtQtQtQtQtQtQtQtQt",
"QtQtQtQtQtQtQtQtQtQtQtQtQtQtQtQtQtQtQtQtQt",
".#.a.b.b.b.b.c.c.c.c.c.c.c.c.c.b.b.b.b.d.#",
".a.e.f.f.g.g.g.h.h.h.h.h.h.h.g.g.g.f.f.i.d",
".b.j.k.#.#.l.m.n.n.o.p.p.n.n.m.l.m.m.k.j.b",
".b.j.q.q.r.l.m.o.s.p.t.p.s.o.m.l.r.q.q.j.b",
".b.j.u.v.w.r.m.o.p.x.x.x.p.o.m.r.w.v.u.j.b",
".b.j.u.v.q.m.s.y.z.A.B.A.C.y.s.l.q.v.u.j.b",
".c.D.E.F.q.n.t.z.G.H.I.H.G.z.t.n.q.F.E.D.c",
".c.J.K.u.q.o.L.G.J.j.M.j.J.G.L.o.q.u.K.J.c",
".N.J.K.F.#.t.B.J.O.P.f.P.O.J.B.t.#.F.K.J.N",
".Q.C.R.S.K.q.t.T.J.k.O.k.J.T.t.q.K.S.U.C.V",
".W.C.X.Y.Z.w.t.T.D.O.0.O.D.T.t.w.Z.Y.X.C.W",
".1.z.2.3.d.F.s.B.D.k.4.k.D.B.s.F.d.3.2.z.5",
".6.z.7.U.8.w.x.9.j.0.P.0.j.9.x.w.8.U.7.z.6",
"#..G###a#b#c#c#c#c#c#c#c.O.H.L.##b#a##.G#.",
"#d.H#e.S.u#c#c#c#c#c#c#c.P.j.B.o.u.S#e.I#d",
"#d.j#a.8.w#c#c#c#c#c#c#c#f.4.H.x.w.8#a.j#d",
"#d.4#g.E.m.z.D.f#h#i#j#i#h.f.D.z.m.E#g.4#d",
"#k.h.Z.v.p.G.k#l#m#n#o#n#m#l.k.G.p.v.Z.h#k",
"#k.J#p.T.j.h#i#q#r#s#t#s#r#q#i.h.j.T#u.J#k",
".5#v.O#w#x#y#z#A#B#C#C#C#B#A#z#y#x#w.O#v.5",
".1#D#E#F#G#H.X#g.a.F.w.v.E#g.X#H#G#F#E#I.5"};
