/* XPM */
static char *dummy[]={
"21 23 24 1",
". c None",
"b c #252525",
"a c #272727",
"# c #292929",
"c c #333333",
"d c #343434",
"e c #353535",
"f c #363636",
"t c #383838",
"g c #3c3c3c",
"h c #424242",
"i c #444444",
"j c #474747",
"k c #494949",
"l c #4b4b4b",
"v c #4c4c4c",
"m c #4e4e4e",
"o c #4f4f4f",
"p c #505050",
"q c #515151",
"r c #525252",
"s c #585858",
"u c #5c5c5c",
"n c #a9aaab",
".....................",
".....................",
"#abbbbbbbbbbbbbbbbba#",
"abcccccccccccccccccba",
"bcccccccccccccccccccb",
"bdddddddddddddddddddb",
"beeeeeeeeeeeeeeeeeeeb",
"beeeeeeeeeeeeeeeeeeeb",
"bfffffffffffffffffffb",
"bgggggggggggggggggggb",
"bhhhhhhhhhhhhhhhhhhhb",
"biiiiiiiiiiiiiiiiiiib",
"bjjjjjjjjjjjjjjjjjjjb",
"bkkkkkkkkkkkkkkkkkkkb",
"blllllllllllllllllllb",
"bmmmmnnnnnnnmmmmmmmmb",
"boooonnnnnnnoooooooob",
"bppppnnnnnnnppppppppb",
"bqqqqqqqqqqqqqqqqqqqb",
"brrrrrrrrrrrrrrrrrrrb",
"bsssssssssssssssssssb",
"tbuuuuuuuuuuuuuuuuubt",
"vtbbbbbbbbbbbbbbbbbtv"};
