/* XPM */
static char *dummy[]={
"21 23 101 2",
"Qt c None",
"#l c #272727",
"#b c #292929",
".8 c #2c2c2c",
"#E c #2e2e2e",
".3 c #2f2f2f",
".X c #303030",
".2 c #313131",
"#D c #323232",
"#I c #333333",
"#F c #353535",
".S c #363636",
".L c #393939",
".R c #3a3a3a",
"#v c #3b3b3b",
"#G c #3d3d3d",
".b c #434343",
".c c #444444",
".J c #454545",
".e c #464646",
"#H c #474747",
".Y c #4b4b4b",
".4 c #4c4c4c",
".9 c #4d4d4d",
".T c #505050",
"#c c #515151",
".Z c #525252",
".N c #535353",
".Q c #545454",
"#. c #555555",
".U c #565656",
".i c #575757",
"#h c #595959",
".O c #5a5a5a",
".d c #5b5b5b",
".5 c #5d5d5d",
".V c #5e5e5e",
"## c #5f5f5f",
".a c #606060",
".F c #616161",
".B c #626262",
".u c #646464",
".C c #656565",
".v c #666666",
".w c #676767",
".q c #686868",
".r c #696969",
".# c #6a6a6a",
".l c #6b6b6b",
".m c #6c6c6c",
".n c #6d6d6d",
".o c #6e6e6e",
".s c #6f6f6f",
".p c #707070",
".t c #717171",
".x c #727272",
".y c #737373",
".G c #747474",
".M c #757575",
".D c #767676",
".0 c #787878",
".P c #797979",
".H c #7a7a7a",
".6 c #7b7b7b",
"#a c #7d7d7d",
"#d c #7e7e7e",
".E c #7f7f7f",
".A c #808080",
".j c #828282",
".I c #838383",
".k c #848484",
".K c #858585",
".1 c #868686",
".W c #878787",
".7 c #898989",
".f c #8a8a8a",
".g c #8b8b8b",
".h c #8c8c8c",
"#m c #8d8d8d",
"#e c #8e8e8e",
"#u c #909090",
"#i c #919191",
"#f c #929292",
"#g c #949494",
"#j c #959595",
"#p c #969696",
"#k c #979797",
"#n c #999999",
"#o c #9b9b9b",
"#q c #9e9e9e",
"#w c #a0a0a0",
"#r c #a5a5a5",
"#x c #a6a6a6",
"#s c #a9a9a9",
"#t c #aaaaaa",
"#y c #adadad",
"#z c #b5b5b5",
"#A c #bbbbbb",
"#B c #c0c0c0",
"#C c #c4c4c4",
".z c #ffffff",
"QtQtQtQtQtQtQtQtQtQtQtQtQtQtQtQtQtQtQtQtQt",
"QtQtQtQtQtQtQtQtQtQtQtQtQtQtQtQtQtQtQtQtQt",
".#.a.b.b.b.b.c.c.c.c.c.c.c.c.c.b.b.b.b.d.#",
".a.e.f.f.g.g.g.h.h.h.h.h.h.h.g.g.g.f.f.i.d",
".b.j.k.#.#.l.m.n.n.o.p.p.n.n.m.l.m.m.k.j.b",
".b.j.q.q.r.l.m.o.s.p.t.p.s.o.m.l.r.q.q.j.b",
".b.j.u.v.w.r.m.o.p.x.x.x.p.o.m.r.w.v.u.j.b",
".b.j.u.v.q.m.s.y.z.z.z.z.z.z.z.l.q.v.u.j.b",
".c.A.B.C.q.n.t.D.z.z.z.z.z.z.z.n.q.C.B.A.c",
".c.E.F.u.q.o.G.H.E.j.I.j.E.H.z.o.q.u.F.E.c",
".J.E.F.C.#.z.z.z.z.z.z.z.K.E.z.t.#.C.F.E.J",
".L.M.N.O.F.z.z.z.z.z.z.z.E.P.z.q.F.O.Q.M.R",
".S.M.T.U.V.z.t.P.A.K.W.z.A.P.z.w.V.U.T.M.S",
".X.D.Y.Z.d.z.s.0.A.k.1.z.A.z.z.C.d.Z.Y.D.2",
".3.D.4.Q.5.z.x.6.j.W.7.z.j.6.x.w.5.Q.4.D.3",
".8.H.9#.##.z.G#a.K.f.g.z.K#a.G.####..9.H.8",
"#b#a#c.O.u.z.z.z.z.z.z.z.7.j.0.o.u.O#c#d#b",
"#b.j#..5.w.x#a.1#e#f#g#f#e.1#a.x.w.5#..j#b",
"#b.1#h.B.m.D.A.f#i#j#k#j#i.f.A.D.m.B#h.1#b",
"#l.h.V.v.p.H.k#m#g#n#o#n#g#m.k.H.p.v.V.h#l",
"#l.E#p.P.j.h#j#q#r#s#t#s#r#q#j.h.j.P#u.E#l",
".2#v.K#w#x#y#z#A#B#C#C#C#B#A#z#y#x#w.K#v.2",
".X#D#E#F#G#H.T#h.a.C.w.v.B#h.T#H#G#F#E#I.2"};
