/* XPM */
static char *dummy[]={
"1 30 24 1",
". c #252525",
"a c #272727",
"b c #282828",
"c c #292929",
"d c #2a2a2a",
"e c #2b2b2b",
"f c #2c2c2c",
"g c #2d2d2d",
"h c #2e2e2e",
"i c #343434",
"j c #393939",
"k c #3b3b3b",
"l c #3e3e3e",
"m c #404040",
"n c #424242",
"o c #454545",
"p c #464646",
"q c #474747",
"r c #484848",
"s c #494949",
"t c #4a4a4a",
"u c #4b4b4b",
"v c #4c4c4c",
"# c #555555",
".",
"#",
"a",
"a",
"b",
"c",
"c",
"d",
"e",
"f",
"g",
"g",
"h",
"i",
"j",
"k",
"l",
"m",
"n",
"o",
"p",
"q",
"r",
"s",
"t",
"u",
"v",
"v",
"v",
"j"};
