/* XPM */
static char *dummy[]={
"9 30 32 1",
"# c None",
"D c #1b1b1b",
". c #252525",
"C c #292929",
"B c #2b2b2b",
"A c #2d2d2d",
"h c #2e2e2e",
"z c #303030",
"y c #323232",
"x c #343434",
"w c #363636",
"v c #383838",
"u c #3b3b3b",
"t c #3d3d3d",
"d c #444444",
"s c #545454",
"r c #565656",
"q c #5b5b5b",
"p c #5e5e5e",
"o c #606060",
"n c #636363",
"l c #656565",
"m c #666666",
"j c #6a6a6a",
"i c #6c6c6c",
"e c #6f6f6f",
"f c #727272",
"k c #747474",
"g c #777777",
"c c #787878",
"b c #838383",
"a c #858585",
"....#####",
"aabcd.###",
"eefcagh##",
"iiiiigg.#",
"jjjjjjad#",
"jjjjjjkc.",
"lllllljb.",
"llllllma.",
"nnnnnnna.",
"oooooooa.",
"pppppppa.",
"pppppppa.",
"qqqqqqqa.",
"rrrrrrra.",
"sssssssa.",
"ttttttta.",
"ttttttta.",
"uuuuuuua.",
"vvvvvvva.",
"wwwwwwwa.",
"wwwwwwwa.",
"xxxxxxxa.",
"yyyyyyya.",
"zzzzzzza.",
"hhhhhhha.",
"AAAAAAAa.",
"BBBBBBBa.",
"CCCCCCCa.",
"CCCCCCCa.",
"DDDDDDCaD"};
