/* XPM */
static char *dummy[]={
"9 30 29 1",
". c None",
"A c #1b1b1b",
"# c #252525",
"f c #272727",
"g c #282828",
"h c #292929",
"i c #2a2a2a",
"j c #2b2b2b",
"k c #2c2c2c",
"l c #2d2d2d",
"m c #2e2e2e",
"n c #343434",
"o c #393939",
"p c #3b3b3b",
"q c #3e3e3e",
"r c #404040",
"s c #424242",
"a c #444444",
"t c #454545",
"e c #464646",
"u c #474747",
"v c #484848",
"w c #494949",
"x c #4a4a4a",
"y c #4b4b4b",
"z c #4c4c4c",
"b c #4e4e4e",
"c c #545454",
"d c #555555",
".....####",
"...##abcd",
"..#edffff",
".#effffff",
".#dgggggg",
"#ahhhhhhh",
"#bhhhhhhh",
"#ciiiiiii",
"#djjjjjjj",
"#dkkkkkkk",
"#dlllllll",
"#dlllllll",
"#dmmmmmmm",
"#dnnnnnnn",
"#dooooooo",
"#dppppppp",
"#dqqqqqqq",
"#drrrrrrr",
"#dsssssss",
"#dttttttt",
"#deeeeeee",
"#duuuuuuu",
"#dvvvvvvv",
"#dwwwwwww",
"#dxxxxxxx",
"#dyyyyyyy",
"#dzzzzzzz",
"#dzzzzzzz",
"#dzzzzzzz",
"Adzoooooo"};
