<?xml version="1.0" encoding="UTF-8" standalone="no"?>
<svg
   width="665"
   height="162"
   version="1.1"
   xml:space="preserve"
   id="svg171"
   sodipodi:docname="alpine-logo.svg"
   inkscape:export-filename="../res/apk/alpine.png"
   inkscape:export-xdpi="25.969999"
   inkscape:export-ydpi="25.969999"
   inkscape:version="1.2.2 (b0a8486541, 2022-12-01)"
   xmlns:inkscape="http://www.inkscape.org/namespaces/inkscape"
   xmlns:sodipodi="http://sodipodi.sourceforge.net/DTD/sodipodi-0.dtd"
   xmlns="http://www.w3.org/2000/svg"
   xmlns:svg="http://www.w3.org/2000/svg"
   xmlns:rdf="http://www.w3.org/1999/02/22-rdf-syntax-ns#"
   xmlns:cc="http://creativecommons.org/ns#"
   xmlns:dc="http://purl.org/dc/elements/1.1/"><defs
     id="defs175" /><sodipodi:namedview
     id="namedview173"
     pagecolor="#ffffff"
     bordercolor="#666666"
     borderopacity="1.0"
     inkscape:showpageshadow="2"
     inkscape:pageopacity="0.0"
     inkscape:pagecheckerboard="0"
     inkscape:deskcolor="#d1d1d1"
     showgrid="false"
     inkscape:zoom="2.0992481"
     inkscape:cx="332.5"
     inkscape:cy="81.219556"
     inkscape:window-width="1920"
     inkscape:window-height="1024"
     inkscape:window-x="1366"
     inkscape:window-y="0"
     inkscape:window-maximized="1"
     inkscape:current-layer="svg171" /><title
     id="title101">Alpine Linux logo</title><metadata
     id="metadata103"><rdf:RDF><cc:Work
         rdf:about=""><dc:format>image/svg+xml</dc:format><dc:type
           rdf:resource="http://purl.org/dc/dcmitype/StillImage" /><dc:title /></cc:Work></rdf:RDF></metadata><g
     transform="matrix(1.25 0 0 -1.25 -268 592)"
     id="g169"><g
       transform="translate(687 398)"
       style="fill:#0d597f"
       id="g107"><path
         d="m0 0c-3.74 6.41-3.73 19.4 0.023 26.2 1.64 2.97 6.62 9.56 28.4 9.56 4.47 0 7.74-0.229 10.1-0.554 5.28-0.71 9.3-2.51 9.3-7.42 0-6.49-9.56-6.55-9.56-6.55h-20.3c-8.61 0-9.27-11.9-9.27-11.9h29.5c10.4 0 21.1 4.65 21.1 18.3 0 9.05-5.21 15.1-13.7 17.5-8.5 2.33-11.8 2.21-23.4 2-9.27-0.166-14.6-2.2-18-3.26-5.91-1.86-11.2-5.32-14.8-11.8-5.82-10.5-5.76-27.9 0.115-38 6.28-10.8 17.1-16.5 30.1-16.6h39.7l1e-3 11.9h-39.7c-11.4-0.034-17.1 6.25-19.7 10.7"
         style="fill:#0d597f"
         id="path105" /></g><g
       transform="translate(442 443)"
       style="fill:#0d597f"
       id="g111"><path
         d="m0 0c-10.5 5.82-27.9 5.76-38-0.115-14.4-8.39-19.8-24.8-14.6-43.9 2.69-9.79 9.96-17 21-20.9 7.82-2.72 15-2.8 15.3-2.8l-0.015 12c-0.207 1e-3 -20.8 0.305-24.8 14.8-5.16 18.8 3.47 27 9.07 30.3 6.41 3.74 19.4 3.73 26.2-0.023 7.21-3.98 7.73-12.3 7.73-25.5v-24.4c0-8.61 12-9.17 12-9.17v33.5c0 12.6 0 28.3-13.9 36"
         style="fill:#0d597f"
         id="path109" /></g><g
       transform="translate(598 375)"
       style="fill:#0d597f"
       id="g115"><path
         d="m0 0v37.4c0.011 13 5.78 23.8 16.6 30.1 10.1 5.88 27.5 5.93 38 0.115 13.9-7.7 13.9-23.4 13.9-36v-33.5s-12 0.563-12 9.17v24.3c0 13.2-0.521 21.5-7.73 25.5-6.79 3.75-19.7 3.76-26.2 0.023-4.41-2.57-10.7-8.25-10.7-19.7v-37.4z"
         style="fill:#0d597f"
         id="path113" /></g><g
       transform="translate(580 375)"
       style="fill:#0d597f"
       id="g119"><path
         d="m0 0v56.7s11.9-0.658 11.9-9.27v-47.5z"
         style="fill:#0d597f"
         id="path117" /></g><g
       transform="translate(592 444)"
       style="fill:#0d597f"
       id="g123"><path
         d="m0 0v-11.2s-11.9 0.658-11.9 9.27v1.93z"
         style="fill:#0d597f"
         id="path121" /></g><g
       transform="translate(519 443)"
       style="fill:#0d597f"
       id="g127"><path
         d="m0 0c10.5 5.82 27.9 5.76 38-0.115 14.4-8.39 19.8-24.8 14.6-43.9-2.69-9.79-9.96-17-21-20.9-7.82-2.72-15-2.45-15.3-2.45l0.01 11.9c0.207 1e-3 20.8 0.052 24.8 14.6 5.16 18.8-3.47 27-9.07 30.3-6.41 3.74-19.4 3.73-26.2-0.023-7.21-3.98-7.73-12.3-7.73-25.5v-12.6c0-8.61-12-9.17-12-9.17v21.8c0 12.6 0 28.3 13.9 36"
         style="fill:#0d597f"
         id="path125" /></g><g
       transform="translate(517 345)"
       style="fill:#0d597f"
       id="g131"><path
         d="m0 0v39.7s-11.9-0.658-11.9-9.27v-30.4z"
         style="fill:#0d597f"
         id="path129" /></g><g
       transform="translate(473 474)"
       style="fill:#0d597f"
       id="g135"><path
         d="m0 0v-41.5s-11.9 0.658-11.9 9.27v32.3z"
         style="fill:#0d597f"
         id="path133" /></g><g
       transform="translate(475 402)"
       style="fill:#0d597f"
       id="g139"><path
         d="m0 0c-1.04 3.78-1.52 7.13-1.58 10.1l-0.034 10.3c0 8.61-11.9 9.17-11.9 9.17v-19.4c0.037-4.24 0.68-8.71 1.95-13.3 2.69-9.79 9.97-17 21-20.9 7.82-2.72 15-2.74 15.3-2.74l6e-3 11.9c-0.207 1e-3 -20.8 0.305-24.8 14.8"
         style="fill:#0d597f"
         id="path137" /></g><g
       transform="translate(268 393)"
       style="fill:#0d597f"
       id="g143"><path
         d="m0 0v15.7l-11.3-11.3c1.22-0.847 2.36-1.54 3.44-2.11 1.08-0.567 2.09-1 3.03-1.34 0.941-0.334 1.81-0.562 2.62-0.71 0.804-0.147 1.54-0.213 2.21-0.222m57.8 1.3c0.02-0.017 0.13-0.11 0.333-0.239 0.204-0.13 0.502-0.297 0.898-0.462 0.395-0.164 0.889-0.327 1.48-0.448 0.596-0.122 1.29-0.202 2.1-0.202 0.671 0 1.41 0.059 2.22 0.2 0.812 0.142 1.69 0.367 2.64 0.699 0.953 0.333 1.98 0.773 3.07 1.34 1.09 0.572 2.26 1.28 3.5 2.14l-8.57 8.4-28.4 28.5-12.5-12.5-16.8 17.3-42.2-41.7c1.24-0.86 2.4-1.56 3.49-2.14 1.09-0.571 2.12-1.01 3.07-1.34 0.951-0.332 1.83-0.557 2.64-0.698 0.81-0.142 1.55-0.201 2.22-0.201 0.804 0 1.5 0.08 2.1 0.202 0.596 0.121 1.09 0.284 1.48 0.449 0.396 0.164 0.693 0.331 0.897 0.461s0.314 0.223 0.334 0.24l19.1 19.1 6.81 6.53 18.9-18.9 6.59-6.78c0.02-0.017 0.13-0.11 0.334-0.239 0.204-0.13 0.501-0.297 0.897-0.462 0.396-0.164 0.89-0.327 1.48-0.448 0.596-0.122 1.3-0.202 2.1-0.202 0.67 0 1.41 0.059 2.22 0.2 0.811 0.142 1.69 0.367 2.64 0.699 0.952 0.333 1.98 0.773 3.07 1.34 1.09 0.572 2.26 1.28 3.5 2.14l-15.1 14.8 2.82 2.82 13.1-13.1 7.64-7.57m-0.163 79 37.2-64.5-37.2-64.5h-74.5l-37.2 64.5 37.2 64.5z"
         style="fill:#0d597f"
         id="path141" /></g><g
       transform="translate(303 412)"
       style="fill:#0d597f"
       id="g147"><path
         d="m0 0-9.91 9.9 0.705 0.709 9.98-9.87z"
         style="fill:#0d597f"
         id="path145" /></g><g
       transform="translate(528 353)"
       style="fill:#0d597f"
       id="g151"><path
         d="m0 0v22.2h-2v-22.2c0-4.3 3.35-8.88 12.8-8.88h15.2v2h-15.2c-9.98 0-10.8 5.27-10.8 6.88"
         style="fill:#0d597f"
         id="path149" /></g><path
       d="m561 344h2v22.8h-2z"
       style="fill:#0d597f"
       id="path153" /><path
       d="m561 368h2v2.99h-2z"
       style="fill:#0d597f"
       id="path155" /><g
       transform="translate(665 367)"
       style="fill:#0d597f"
       id="g159"><path
         d="m0 0h-2.63l-8.47-9.89-8.48 9.89h-2.63l9.8-11.4-9.73-11.4h2.62l8.42 9.83 8.42-9.83h2.65l-9.75 11.4z"
         style="fill:#0d597f"
         id="path157" /></g><g
       transform="translate(634 353)"
       style="fill:#0d597f"
       id="g163"><path
         d="m0 0c0-0.691-0.366-6.76-13.1-6.76-12.6 0-12.9 6.07-12.9 6.76v14h-2v-14c0-0.896 0.419-8.76 14.9-8.76 14.6 0 15.1 7.86 15.1 8.76v14h-2z"
         style="fill:#0d597f"
         id="path161" /></g><g
       transform="translate(585 367)"
       style="fill:#0d597f"
       id="g167"><path
         d="m0 0c-14.6 0-15.1-7.86-15.1-8.76v-14h2v14c0 0.692 0.367 6.76 13.1 6.76 12.6 0 12.9-6.07 12.9-6.76v-14h2v14c0 0.897-0.419 8.76-14.9 8.76"
         style="fill:#0d597f"
         id="path165" /></g></g></svg>
