<?xml version="1.0" encoding="UTF-8" standalone="no"?>
<svg
   height="33.87mm"
   viewBox="0,0,146.203,33.8668"
   width="146.2mm"
   version="1.1"
   id="svg33"
   sodipodi:docname="manjaro-logo.svg"
   inkscape:export-filename="manjaro-logo.png"
   inkscape:export-xdpi="31.272314"
   inkscape:export-ydpi="31.272314"
   inkscape:version="1.2.2 (b0a8486541, 2022-12-01)"
   xmlns:inkscape="http://www.inkscape.org/namespaces/inkscape"
   xmlns:sodipodi="http://sodipodi.sourceforge.net/DTD/sodipodi-0.dtd"
   xmlns="http://www.w3.org/2000/svg"
   xmlns:svg="http://www.w3.org/2000/svg">
  <defs
     id="defs37" />
  <sodipodi:namedview
     id="namedview35"
     pagecolor="#ffffff"
     bordercolor="#666666"
     borderopacity="1.0"
     inkscape:showpageshadow="2"
     inkscape:pageopacity="0.0"
     inkscape:pagecheckerboard="0"
     inkscape:deskcolor="#d1d1d1"
     inkscape:document-units="mm"
     showgrid="false"
     inkscape:zoom="1.9074613"
     inkscape:cx="276.28346"
     inkscape:cy="64.221487"
     inkscape:window-width="1920"
     inkscape:window-height="1024"
     inkscape:window-x="1366"
     inkscape:window-y="0"
     inkscape:window-maximized="1"
     inkscape:current-layer="svg33" />
  <clipPath
     id="a">
    <path
       d="m0 96h414.434v-96h-414.434z"
       id="path2" />
  </clipPath>
  <metadata
     id="metadata5" />
  <g
     transform="translate(-23.09 -37.31)"
     id="g31">
    <path
       d="m47.0482 71.173h9.912v-33.8667h-9.912z"
       fill="#35bf5c"
       id="path7" />
    <path
       d="m35.0707 71.173h9.912v-21.8895h-9.912z"
       fill="#35bf5c"
       id="path9" />
    <path
       d="m0 0v-96h28.002v67.903h34.046v28.097z"
       fill="#35bf5c"
       transform="matrix(.35278 0 0 -.35278 23.09 37.31)"
       id="path11" />
    <g
       clip-path="url(#a)"
       transform="matrix(.35278 0 0 -.35278 23.09 71.17)"
       id="g29">
      <path
         d="m0 0c-2.107 1.196-4.523 1.795-7.251 1.795-3.112 0-5.876-.671-8.292-2.01-1.707-.946-3.129-2.162-4.299-3.62-1.075 1.616-2.424 2.902-4.065 3.835-2.107 1.196-4.523 1.795-7.251 1.795-2.825 0-5.338-.671-7.539-2.01-.931-.567-1.759-1.247-2.519-1.999-.017 1.061-.347 1.92-.998 2.573-.671.67-1.557 1.005-2.657 1.005-1.053 0-1.927-.335-2.62-1.005-.695-.671-1.041-1.555-1.041-2.656v-31.948c0-1.054.346-1.928 1.041-2.621.693-.695 1.567-1.041 2.62-1.041 1.1 0 1.986.346 2.657 1.041.669.693 1.005 1.567 1.005 2.621v20.246c0 2.68.813 4.882 2.44 6.604 1.627 1.723 3.686 2.585 6.175 2.585 2.392 0 4.331-.73 5.815-2.19 1.483-1.46 2.226-3.697 2.226-6.712v-20.533c0-1.054.346-1.928 1.041-2.621.693-.695 1.567-1.041 2.62-1.041 1.1 0 1.986.346 2.656 1.041.67.693 1.006 1.567 1.006 2.621v20.246c0 2.68.8 4.882 2.405 6.604 1.602 1.723 3.649 2.585 6.138 2.585 2.393 0 4.331-.73 5.815-2.19 1.483-1.46 2.226-3.697 2.226-6.712v-20.533c0-1.054.346-1.928 1.041-2.621.693-.695 1.567-1.041 2.62-1.041 1.101 0 1.985.346 2.656 1.041.67.693 1.006 1.567 1.006 2.621v20.533c0 3.302-.587 6.113-1.76 8.436-1.173 2.32-2.812 4.08-4.917 5.276"
         fill="#444"
         transform="translate(167.17 67.67)"
         id="path13" />
      <path
         d="m0 0c-1.914-1.174-4.091-1.76-6.532-1.76-2.394 0-4.559.586-6.498 1.76-1.938 1.172-3.47 2.774-4.595 4.81-1.125 2.034-1.687 4.319-1.687 6.856 0 2.585.562 4.894 1.687 6.928s2.657 3.636 4.595 4.81c1.939 1.172 4.104 1.759 6.498 1.759 2.441 0 4.618-.587 6.532-1.759 1.914-1.174 3.422-2.776 4.523-4.81 1.102-2.034 1.653-4.343 1.653-6.928 0-2.537-.551-4.822-1.653-6.856-1.101-2.036-2.609-3.638-4.523-4.81m3.52 29.004c-2.969 1.747-6.319 2.621-10.052 2.621-3.734 0-7.096-.874-10.087-2.621-2.992-1.747-5.361-4.128-7.108-7.144-1.748-3.014-2.62-6.414-2.62-10.194 0-3.781.801-7.168 2.405-10.159 1.603-2.991 3.793-5.361 6.569-7.108 2.775-1.747 5.911-2.62 9.405-2.62 3.493 0 6.628.873 9.405 2.62 1.706 1.075 3.188 2.385 4.452 3.929v-2.672c0-1.053.345-1.927 1.041-2.621.693-.694 1.566-1.041 2.619-1.041s1.926.347 2.621 1.041c.693.694 1.041 1.568 1.041 2.621v16.01c0 3.78-.873 7.18-2.621 10.194-1.748 3.016-4.104 5.397-7.07 7.144"
         fill="#444"
         transform="translate(209.04 37.76)"
         id="path15" />
      <path
         d="m0 0v17.661c0 3.973-.754 7.323-2.262 10.051-1.507 2.728-3.565 4.798-6.174 6.21-2.609 1.411-5.563 2.118-8.866 2.118-3.159 0-6.007-.694-8.544-2.082-1.386-.759-2.596-1.678-3.661-2.729v.791c0 1.1-.335 1.985-1.005 2.656-.671.67-1.555 1.006-2.656 1.006-1.054 0-1.928-.336-2.621-1.006-.694-.671-1.041-1.556-1.041-2.656v-32.02c0-1.054.347-1.928 1.041-2.621.693-.694 1.567-1.041 2.621-1.041 1.101 0 1.985.347 2.656 1.041.67.693 1.005 1.567 1.005 2.621v20.246c0 1.77.478 3.338 1.436 4.702.957 1.364 2.25 2.452 3.877 3.267 1.627.813 3.446 1.221 5.457 1.221 2.2 0 4.151-.42 5.85-1.257 1.699-.838 3.051-2.118 4.057-3.841 1.005-1.723 1.508-3.948 1.508-6.677v-17.661c0-1.054.346-1.928 1.041-2.621.692-.694 1.566-1.041 2.62-1.041 1.052 0 1.926.347 2.62 1.041.693.693 1.041 1.567 1.041 2.621"
         fill="#444"
         transform="translate(266.69 33.42)"
         id="path17" />
      <path
         d="m0 0c-1.053 0-1.927-.336-2.62-1.006-.694-.671-1.041-1.556-1.041-2.656v-35.466c0-1.866-.42-3.518-1.257-4.954-.838-1.436-1.974-2.572-3.41-3.41-1.436-.837-3.11-1.256-5.026-1.256-1.051 0-1.913-.334-2.584-1.005-.669-.67-1.005-1.555-1.005-2.656 0-1.053.336-1.927 1.005-2.621.671-.694 1.533-1.041 2.584-1.041 3.351 0 6.293.73 8.832 2.189 2.536 1.461 4.534 3.459 5.994 5.995 1.46 2.537 2.19 5.456 2.19 8.759v35.466c0 1.1-.336 1.985-1.006 2.656-.671.67-1.555 1.006-2.656 1.006"
         fill="#444"
         transform="translate(282.41 69.1)"
         id="path19" />
      <path
         d="m0 0c-1.292 0-2.405-.467-3.338-1.4-.933-.934-1.4-2.046-1.4-3.338 0-1.293.467-2.406 1.4-3.339.933-.934 2.046-1.401 3.338-1.401s2.405.467 3.339 1.401c.932.933 1.399 2.046 1.399 3.339 0 1.292-.467 2.404-1.399 3.338-.934.933-2.047 1.4-3.339 1.4"
         fill="#444"
         transform="translate(282.41 82.97)"
         id="path21" />
      <path
         d="m0 0c-1.914-1.174-4.092-1.76-6.533-1.76-2.394 0-4.559.586-6.497 1.76-1.939 1.172-3.471 2.774-4.595 4.81-1.125 2.034-1.687 4.319-1.687 6.856 0 2.585.562 4.894 1.687 6.928 1.124 2.034 2.656 3.636 4.595 4.81 1.938 1.172 4.103 1.759 6.497 1.759 2.441 0 4.619-.587 6.533-1.759 1.914-1.174 3.422-2.776 4.523-4.81s1.652-4.343 1.652-6.928c0-2.537-.551-4.822-1.652-6.856-1.101-2.036-2.609-3.638-4.523-4.81m3.519 29.004c-2.969 1.747-6.319 2.621-10.052 2.621s-7.096-.874-10.087-2.621-5.36-4.128-7.108-7.144c-1.747-3.014-2.62-6.414-2.62-10.194 0-3.781.801-7.168 2.406-10.159 1.602-2.991 3.793-5.361 6.569-7.108 2.774-1.747 5.91-2.62 9.404-2.62 3.493 0 6.629.873 9.406 2.62 1.705 1.075 3.188 2.385 4.451 3.929v-2.672c0-1.053.346-1.927 1.041-2.621.693-.694 1.566-1.041 2.62-1.041 1.053 0 1.926.347 2.62 1.041.693.694 1.041 1.568 1.041 2.621v16.01c0 3.78-.873 7.18-2.62 10.194-1.748 3.016-4.105 5.397-7.071 7.144"
         fill="#444"
         transform="translate(319.6 37.76)"
         id="path23" />
      <path
         d="m0 0c-1.412.934-3.554 1.4-6.425 1.4-2.872 0-5.505-.671-7.897-2.01-1.619-.907-2.994-2.045-4.164-3.378v1.368c0 1.195-.3 2.093-.898 2.692-.598.598-1.496.898-2.692.898-1.149 0-2.034-.313-2.656-.934-.622-.623-.934-1.508-.934-2.656v-32.092c0-1.197.312-2.095.934-2.692.622-.599 1.507-.898 2.656-.898 1.196 0 2.094.311 2.692.934.598.621.898 1.508.898 2.656v20.964c0 2.2.706 4.02 2.118 5.456 1.411 1.436 3.338 2.416 5.779 2.943s5.193.478 8.256-.143c.622-.144 1.196-.168 1.724-.071.525.094.992.322 1.399.681.406.36.683.873.826 1.544.334 1.292-.204 2.404-1.616 3.338"
         fill="#444"
         transform="translate(365.8 68.13)"
         id="path25" />
      <path
         d="m0 0c-1.077-2.011-2.573-3.59-4.487-4.738-1.915-1.149-4.117-1.724-6.606-1.724s-4.69.575-6.604 1.724c-1.915 1.148-3.423 2.727-4.524 4.738-1.101 2.01-1.65 4.331-1.65 6.964 0 2.632.549 4.965 1.65 7 1.101 2.034 2.609 3.626 4.524 4.774 1.914 1.149 4.115 1.723 6.604 1.723s4.691-.574 6.606-1.723c1.914-1.148 3.41-2.74 4.487-4.774 1.076-2.035 1.615-4.368 1.615-7 0-2.633-.539-4.954-1.615-6.964m6.103 17.338c-1.701 2.991-4.034 5.337-7 7.036-2.969 1.698-6.367 2.549-10.196 2.549-3.876 0-7.299-.851-10.265-2.549-2.969-1.699-5.302-4.045-7-7.036-1.7-2.991-2.549-6.45-2.549-10.374 0-3.877.849-7.312 2.549-10.303 1.698-2.991 4.031-5.337 7-7.035 2.966-1.7 6.389-2.549 10.265-2.549 3.877 0 7.299.849 10.267 2.549 2.968 1.698 5.288 4.044 6.964 7.035 1.674 2.991 2.512 6.426 2.512 10.303 0 3.924-.849 7.383-2.547 10.374"
         fill="#444"
         transform="translate(405.78 42.47)"
         id="path27" />
    </g>
  </g>
</svg>
