<?xml version="1.0" encoding="UTF-8" standalone="no"?>
<svg
   id="Layer_1"
   data-name="Layer 1"
   viewBox="0 0 1113.48 400"
   version="1.1"
   sodipodi:docname="ubuntu-logo.svg"
   inkscape:export-filename="ubuntu-logo.png"
   inkscape:export-xdpi="15.79"
   inkscape:export-ydpi="15.79"
   inkscape:version="1.2.2 (b0a8486541, 2022-12-01)"
   xmlns:inkscape="http://www.inkscape.org/namespaces/inkscape"
   xmlns:sodipodi="http://sodipodi.sourceforge.net/DTD/sodipodi-0.dtd"
   xmlns="http://www.w3.org/2000/svg"
   xmlns:svg="http://www.w3.org/2000/svg">
  <sodipodi:namedview
     id="namedview59"
     pagecolor="#ffffff"
     bordercolor="#666666"
     borderopacity="1.0"
     inkscape:showpageshadow="2"
     inkscape:pageopacity="0.0"
     inkscape:pagecheckerboard="0"
     inkscape:deskcolor="#d1d1d1"
     showgrid="false"
     inkscape:zoom="0.9465819"
     inkscape:cx="556.73999"
     inkscape:cy="200.19398"
     inkscape:window-width="1920"
     inkscape:window-height="1024"
     inkscape:window-x="1366"
     inkscape:window-y="0"
     inkscape:window-maximized="1"
     inkscape:current-layer="Layer_1" />
  <defs
     id="defs4">
    <style
       id="style2">
      .cls-1 {
        fill: none;
      }

      .cls-2 {
        fill: #e95420;
      }

      .cls-3 {
        fill: #fff;
      }
    </style>
  </defs>
  <g
     id="g18">
    <path
       d="m381.86,354.01c-11.69,0-21.64-1.78-29.85-5.33-8.22-3.56-14.86-8.47-19.94-14.74-5.08-6.26-8.77-13.59-11.05-21.98-2.29-8.38-3.43-17.4-3.43-27.06v-110.77h17.28v108.49c0,9.65,1.14,18,3.43,25.03,2.29,7.03,5.46,12.83,9.53,17.4,4.06,4.57,8.98,7.96,14.74,10.16,5.76,2.21,12.2,3.3,19.31,3.3s13.55-1.1,19.31-3.3c5.76-2.2,10.67-5.59,14.74-10.16,4.07-4.57,7.24-10.37,9.53-17.4,2.29-7.03,3.43-15.37,3.43-25.03v-108.49h17.28v110.77c0,9.66-1.14,18.67-3.43,27.06-2.29,8.38-5.97,15.71-11.05,21.98-5.08,6.27-11.73,11.18-19.94,14.74-8.22,3.56-18.17,5.33-29.85,5.33Z"
       id="path6" />
    <path
       d="m500.61,226.73c2.88-2.2,7.49-4.53,13.85-6.99,6.35-2.45,13.85-3.68,22.48-3.68,9.48,0,17.91,1.69,25.28,5.08,7.37,3.39,13.59,8.13,18.67,14.23,5.08,6.1,8.93,13.34,11.56,21.72,2.62,8.38,3.94,17.57,3.94,27.56,0,10.67-1.57,20.24-4.7,28.71-3.14,8.47-7.54,15.67-13.21,21.59-5.68,5.93-12.45,10.46-20.33,13.59-7.88,3.13-16.64,4.7-26.3,4.7-11.69,0-21.34-.76-28.96-2.29-7.62-1.52-13.89-3.13-18.8-4.83v-190.04l16.51-3.05v73.68Zm0,107.98c2.54.85,6.31,1.65,11.31,2.41,4.99.76,11.56,1.14,19.69,1.14,14.23,0,25.66-4.61,34.3-13.85,8.64-9.23,12.96-22.48,12.96-39.76,0-7.28-.76-14.18-2.29-20.71-1.52-6.52-3.98-12.2-7.37-17.02-3.39-4.83-7.84-8.68-13.34-11.56-5.51-2.88-12.32-4.32-20.45-4.32-3.9,0-7.62.38-11.18,1.14-3.56.76-6.86,1.74-9.91,2.92-3.05,1.19-5.72,2.46-8,3.81-2.29,1.36-4.19,2.63-5.72,3.81v91.97Z"
       id="path8" />
    <path
       d="m726.96,345.63c-4.91,1.36-11.52,2.88-19.82,4.57-8.3,1.69-18.46,2.54-30.49,2.54-9.83,0-18.04-1.44-24.64-4.32-6.61-2.88-11.94-6.94-16.01-12.2-4.06-5.25-6.99-11.6-8.76-19.05-1.78-7.45-2.67-15.67-2.67-24.64v-73.68h16.51v68.34c0,9.32.68,17.19,2.03,23.63,1.35,6.44,3.56,11.65,6.61,15.62,3.05,3.98,6.99,6.86,11.81,8.64,4.83,1.78,10.71,2.67,17.66,2.67,7.79,0,14.56-.42,20.33-1.27,5.76-.85,9.4-1.61,10.92-2.29v-115.35h16.51v126.78Z"
       id="path10" />
    <path
       d="m763.38,223.43c4.91-1.35,11.52-2.88,19.82-4.57,8.3-1.69,18.46-2.54,30.49-2.54,9.99,0,18.33,1.44,25.03,4.32,6.69,2.88,12.02,6.99,16.01,12.32,3.98,5.34,6.82,11.73,8.51,19.18,1.69,7.46,2.54,15.67,2.54,24.64v73.42h-16.51v-68.09c0-9.31-.64-17.19-1.91-23.63-1.27-6.44-3.39-11.69-6.35-15.75-2.96-4.06-6.86-6.99-11.69-8.77-4.83-1.78-10.88-2.67-18.17-2.67-7.79,0-14.53.43-20.2,1.27-5.68.85-9.36,1.61-11.05,2.29v115.34h-16.51v-126.78Z"
       id="path12" />
    <path
       d="m916.61,218.85h52.34v13.97h-52.34v69.87c0,7.46.63,13.51,1.91,18.17,1.27,4.66,3.09,8.26,5.46,10.8,2.37,2.54,5.25,4.24,8.64,5.08,3.39.85,7.11,1.27,11.18,1.27,6.94,0,12.53-.8,16.77-2.41,4.23-1.61,7.53-3.09,9.91-4.45l4.07,13.72c-2.37,1.52-6.52,3.26-12.45,5.21-5.93,1.95-12.37,2.92-19.31,2.92-8.13,0-14.95-1.06-20.45-3.18-5.51-2.12-9.91-5.34-13.21-9.65s-5.63-9.69-6.99-16.13c-1.36-6.44-2.03-14.06-2.03-22.87v-120.94l16.51-3.05v41.67Z"
       id="path14" />
    <path
       d="m1094.4,345.63c-4.91,1.36-11.52,2.88-19.82,4.57-8.3,1.69-18.46,2.54-30.49,2.54-9.83,0-18.04-1.44-24.64-4.32-6.61-2.88-11.94-6.94-16.01-12.2-4.06-5.25-6.99-11.6-8.76-19.05-1.78-7.45-2.67-15.67-2.67-24.64v-73.68h16.51v68.34c0,9.32.68,17.19,2.03,23.63,1.35,6.44,3.56,11.65,6.61,15.62,3.05,3.98,6.99,6.86,11.81,8.64,4.83,1.78,10.71,2.67,17.66,2.67,7.79,0,14.56-.42,20.33-1.27,5.76-.85,9.4-1.61,10.92-2.29v-115.35h16.51v126.78Z"
       id="path16" />
  </g>
  <g
     id="g38">
    <path
       d="m346.66,131.23c-4.32,0-8.34-.78-12.05-2.32-3.71-1.55-6.94-3.81-9.68-6.78-2.74-2.97-4.9-6.63-6.48-10.98-1.58-4.36-2.37-9.34-2.37-14.95s.85-10.6,2.56-14.95c1.71-4.36,3.98-8.02,6.82-10.99,2.84-2.97,6.13-5.21,9.87-6.73,3.74-1.52,7.65-2.27,11.71-2.27,2.52,0,4.81.16,6.87.48,2.06.32,3.87.73,5.42,1.21,1.55.48,2.87.97,3.97,1.45,1.1.48,1.94.92,2.52,1.31l-2.13,5.71c-1.61-.97-3.66-1.92-6.15-2.86-2.48-.94-5.56-1.4-9.24-1.4-4.19,0-7.86.71-10.98,2.13-3.13,1.42-5.76,3.42-7.89,6-2.13,2.58-3.73,5.65-4.79,9.2-1.06,3.55-1.6,7.48-1.6,11.81s.53,8.47,1.6,12.05c1.06,3.58,2.63,6.63,4.69,9.15,2.06,2.52,4.6,4.45,7.6,5.81,3,1.36,6.44,2.03,10.31,2.03,4.26,0,7.82-.4,10.69-1.21,2.87-.8,5.05-1.63,6.53-2.47l1.84,5.61c-.45.32-1.23.69-2.32,1.11-1.1.42-2.48.86-4.16,1.31-1.68.45-3.61.82-5.81,1.11-2.19.29-4.65.44-7.36.44Z"
       id="path20" />
    <path
       d="m391.44,78.58c3.29,0,6.08.47,8.37,1.4,2.29.94,4.15,2.23,5.57,3.87,1.42,1.64,2.45,3.6,3.1,5.86.64,2.26.97,4.71.97,7.36v31.55c-.65.19-1.58.4-2.81.63-1.23.23-2.65.47-4.26.72-1.61.26-3.4.47-5.37.63-1.97.16-3.98.24-6.05.24-2.65,0-5.08-.29-7.31-.87-2.23-.58-4.16-1.5-5.81-2.76-1.65-1.26-2.94-2.87-3.87-4.84-.94-1.97-1.4-4.37-1.4-7.21s.52-5.03,1.55-6.97c1.03-1.94,2.48-3.53,4.36-4.79,1.87-1.26,4.1-2.18,6.68-2.76,2.58-.58,5.39-.87,8.42-.87.9,0,1.85.05,2.85.15,1,.1,1.97.23,2.9.39.93.16,1.74.32,2.42.48.68.16,1.15.31,1.4.44v-3.1c0-1.74-.13-3.44-.39-5.08-.26-1.64-.82-3.13-1.69-4.45s-2.1-2.39-3.68-3.2c-1.58-.8-3.66-1.21-6.24-1.21-3.68,0-6.42.26-8.23.77-1.81.52-3.13.94-3.97,1.26l-.87-5.52c1.1-.52,2.79-1,5.08-1.45,2.29-.45,5.05-.68,8.28-.68Zm.58,46.65c2.45,0,4.6-.08,6.44-.24,1.84-.16,3.4-.37,4.69-.63v-17.62c-.71-.32-1.84-.66-3.39-1.02-1.55-.35-3.68-.53-6.39-.53-1.55,0-3.16.11-4.84.34-1.68.23-3.23.71-4.65,1.45-1.42.74-2.58,1.76-3.48,3.05-.9,1.29-1.35,3-1.35,5.13,0,1.87.31,3.45.92,4.74.61,1.29,1.48,2.32,2.61,3.1,1.13.78,2.48,1.34,4.06,1.7,1.58.36,3.37.53,5.37.53Z"
       id="path22" />
    <path
       d="m423.03,81.48c1.87-.52,4.39-1.1,7.55-1.74,3.16-.64,7.03-.97,11.61-.97,3.81,0,6.98.55,9.53,1.64,2.55,1.1,4.58,2.66,6.1,4.7,1.52,2.03,2.6,4.47,3.24,7.31.64,2.84.97,5.97.97,9.39v27.97h-6.29v-25.94c0-3.55-.24-6.55-.73-9-.48-2.45-1.29-4.45-2.42-6-1.13-1.55-2.61-2.66-4.45-3.34-1.84-.68-4.15-1.02-6.92-1.02-2.97,0-5.53.16-7.69.48-2.16.32-3.57.62-4.21.87v43.94h-6.29v-48.3Z"
       id="path24" />
    <path
       d="m518.5,104.81c0,3.94-.57,7.52-1.69,10.74-1.13,3.23-2.71,5.97-4.74,8.23-2.03,2.26-4.44,4.02-7.21,5.28-2.77,1.26-5.84,1.89-9.19,1.89s-6.42-.63-9.19-1.89c-2.77-1.26-5.18-3.02-7.21-5.28-2.03-2.26-3.61-5-4.74-8.23-1.13-3.23-1.69-6.81-1.69-10.74s.56-7.52,1.69-10.74c1.13-3.23,2.71-5.98,4.74-8.28,2.03-2.29,4.44-4.07,7.21-5.32,2.77-1.26,5.84-1.89,9.19-1.89s6.42.63,9.19,1.89c2.77,1.26,5.18,3.03,7.21,5.32,2.03,2.29,3.61,5.05,4.74,8.28,1.13,3.23,1.69,6.81,1.69,10.74Zm-6.68,0c0-6.26-1.45-11.24-4.36-14.95-2.9-3.71-6.84-5.56-11.81-5.56s-8.9,1.86-11.81,5.56c-2.9,3.71-4.36,8.7-4.36,14.95s1.45,11.23,4.36,14.91c2.9,3.68,6.84,5.52,11.81,5.52s8.9-1.84,11.81-5.52c2.9-3.68,4.36-8.65,4.36-14.91Z"
       id="path26" />
    <path
       d="m529.83,81.48c1.87-.52,4.39-1.1,7.55-1.74,3.16-.64,7.03-.97,11.61-.97,3.81,0,6.98.55,9.53,1.64,2.55,1.1,4.58,2.66,6.1,4.7,1.52,2.03,2.6,4.47,3.24,7.31.64,2.84.97,5.97.97,9.39v27.97h-6.29v-25.94c0-3.55-.24-6.55-.73-9-.48-2.45-1.29-4.45-2.42-6-1.13-1.55-2.61-2.66-4.45-3.34-1.84-.68-4.15-1.02-6.92-1.02-2.97,0-5.53.16-7.69.48-2.16.32-3.57.62-4.21.87v43.94h-6.29v-48.3Z"
       id="path28" />
    <path
       d="m589.91,64.64c0,1.48-.45,2.66-1.35,3.53-.9.87-2,1.31-3.29,1.31s-2.39-.44-3.29-1.31c-.9-.87-1.35-2.05-1.35-3.53s.45-2.66,1.35-3.53c.9-.87,2-1.31,3.29-1.31s2.39.44,3.29,1.31c.9.87,1.35,2.05,1.35,3.53Zm-1.45,65.14h-6.29v-50.04h6.29v50.04Z"
       id="path30" />
    <path
       d="m623.21,130.85c-3.87,0-7.29-.61-10.26-1.84-2.97-1.22-5.44-2.98-7.4-5.28-1.97-2.29-3.47-5.03-4.5-8.23-1.03-3.19-1.55-6.73-1.55-10.6s.53-7.52,1.6-10.74c1.07-3.22,2.6-6,4.6-8.32,2-2.32,4.42-4.11,7.26-5.37,2.84-1.26,6.03-1.89,9.58-1.89,2.71,0,5.24.23,7.6.68,2.35.45,4.18,1.03,5.47,1.74l-1.65,5.42c-1.29-.64-2.74-1.16-4.36-1.55-1.61-.39-3.77-.58-6.48-.58-5.55,0-9.76,1.79-12.63,5.37-2.87,3.58-4.31,8.66-4.31,15.24,0,2.97.32,5.7.97,8.18.64,2.48,1.69,4.61,3.15,6.39,1.45,1.78,3.32,3.16,5.61,4.16,2.29,1,5.08,1.5,8.37,1.5,2.71,0,4.98-.31,6.82-.92s3.18-1.14,4.02-1.6l1.36,5.42c-1.16.65-2.99,1.28-5.47,1.89-2.48.61-5.08.92-7.79.92Z"
       id="path32" />
    <path
       d="m661.08,78.58c3.29,0,6.08.47,8.37,1.4,2.29.94,4.14,2.23,5.56,3.87,1.42,1.64,2.45,3.6,3.1,5.86.64,2.26.97,4.71.97,7.36v31.55c-.65.19-1.58.4-2.81.63-1.23.23-2.65.47-4.26.72-1.61.26-3.4.47-5.37.63-1.97.16-3.98.24-6.05.24-2.65,0-5.08-.29-7.31-.87-2.23-.58-4.16-1.5-5.81-2.76s-2.94-2.87-3.87-4.84c-.94-1.97-1.4-4.37-1.4-7.21s.52-5.03,1.55-6.97c1.03-1.94,2.48-3.53,4.36-4.79,1.87-1.26,4.1-2.18,6.68-2.76,2.58-.58,5.39-.87,8.42-.87.9,0,1.85.05,2.86.15,1,.1,1.97.23,2.9.39.93.16,1.74.32,2.42.48.68.16,1.14.31,1.4.44v-3.1c0-1.74-.13-3.44-.39-5.08-.26-1.64-.82-3.13-1.69-4.45s-2.1-2.39-3.68-3.2c-1.58-.8-3.66-1.21-6.24-1.21-3.68,0-6.42.26-8.23.77-1.81.52-3.13.94-3.97,1.26l-.87-5.52c1.1-.52,2.79-1,5.08-1.45,2.29-.45,5.05-.68,8.28-.68Zm.58,46.65c2.45,0,4.6-.08,6.44-.24,1.84-.16,3.4-.37,4.69-.63v-17.62c-.71-.32-1.84-.66-3.39-1.02-1.55-.35-3.68-.53-6.39-.53-1.55,0-3.16.11-4.84.34-1.68.23-3.23.71-4.65,1.45-1.42.74-2.58,1.76-3.48,3.05-.9,1.29-1.35,3-1.35,5.13,0,1.87.3,3.45.92,4.74.61,1.29,1.48,2.32,2.61,3.1,1.13.78,2.48,1.34,4.07,1.7,1.58.36,3.37.53,5.37.53Z"
       id="path34" />
    <path
       d="m705.23,130.65c-2.13-.06-3.99-.34-5.57-.82-1.58-.48-2.9-1.22-3.97-2.23-1.06-1-1.87-2.29-2.42-3.87-.55-1.58-.82-3.56-.82-5.95v-61.94l6.29-1.16v62.91c0,1.55.15,2.79.44,3.73.29.94.73,1.68,1.31,2.23.58.55,1.34.95,2.27,1.21.93.26,2.05.48,3.34.68l-.87,5.23Z"
       id="path36" />
  </g>
  <g
     id="g56">
    <rect
       class="cls-2"
       width="254.06"
       height="400"
       id="rect40" />
    <rect
       class="cls-1"
       x="30.25"
       y="169.38"
       width="193.57"
       height="193.57"
       id="rect42" />
    <circle
       class="cls-3"
       cx="58.09"
       cy="255.92"
       r="26.3"
       id="circle44" />
    <circle
       class="cls-3"
       cx="167.63"
       cy="198.25"
       r="26.3"
       id="circle46" />
    <path
       class="cls-3"
       d="m117.41,323.62c-18.95-4.06-34.78-16.16-43.68-33.32-7.01,3.19-14.9,4.16-22.49,2.76,10.77,26.45,33.61,45.66,61.65,51.67,6.15,1.32,12.42,1.96,18.68,1.92-4.83-6.35-7.52-14.01-7.7-21.99-2.17-.24-4.33-.59-6.45-1.05Z"
       id="path48" />
    <circle
       class="cls-3"
       cx="161.71"
       cy="323.76"
       r="26.3"
       id="circle50" />
    <path
       class="cls-3"
       d="m198.31,314.1c8.18-10.31,13.94-22.5,16.71-35.45,4.84-22.59.32-46.29-12.4-65.51-3.03,7.14-8.17,13.17-14.79,17.32,7.1,13.38,9.26,28.82,6.08,43.67-1.56,7.27-4.31,14.12-8.18,20.38,6.19,5.08,10.56,11.91,12.59,19.6Z"
       id="path52" />
    <path
       class="cls-3"
       d="m56.06,218.2c.67-.04,1.34-.05,2-.05,2.66,0,5.31.28,7.94.85,4.29.92,8.32,2.54,12.01,4.84,11.84-17.03,30.95-27.25,51.65-27.63.11-1.99.38-3.97.79-5.92,1.21-5.63,3.67-10.9,7.19-15.41-33.08-2.62-65.22,14.45-81.59,43.33Z"
       id="path54" />
  </g>
</svg>
