/* XPM */
static char *dummy[]={
"17 17 20 1",
"# c #3a6ea5",
"q c #3d70a6",
"b c #4677ab",
"a c #4778ab",
"c c #4d7cae",
"i c #5784b2",
"h c #6890ba",
"f c #7b9ec3",
"m c #92afcd",
"p c #96b2cf",
"e c #a6bed6",
"r c #bacce0",
"n c #c4d3e4",
". c #cedbe8",
"d c #e2e9f2",
"j c #ecf1f6",
"o c #eff3f8",
"g c #f3f6f9",
"l c #fcfdfe",
"k c #ffffff",
".................",
".###############.",
".##a######b#####.",
".#cde####fgh####.",
".#ijke##fllf####.",
".##ijkefllf#####.",
".###ijkklf######.",
".####mkkn#######.",
".###flloke######.",
".##fllfijke#####.",
".#hllf##ijkp####.",
".#qrf####i.c####.",
".###############.",
".###############.",
".###############.",
".###############.",
"................."};
