/* XPM */
static char *dummy[]={
"17 17 21 1",
"# c #a1a192",
"q c #a2a294",
"a c #a7a799",
"b c #aaaa9d",
"h c #afafa2",
"o c #b7b7ab",
"g c #b7b7ac",
"e c #c0c0b6",
". c #c7c7be",
"l c #cbcbc3",
"p c #cdcdc5",
"d c #d5d5ce",
"r c #deded9",
"m c #e3e3de",
"s c #e7e7e4",
"c c #f1f1ef",
"i c #f6f6f4",
"n c #f7f7f6",
"f c #f9f9f8",
"k c #fefefd",
"j c #ffffff",
".................",
".###############.",
".###############.",
".###a######a####.",
".##bcd####efg###.",
".##hijd##ekke###.",
".###hijdekke####.",
".####hijjke#####.",
".#####ljjm######.",
".####ekknjd#####.",
".###ekkehijd####.",
".##okke##hijp###.",
".##qre####hsb###.",
".###############.",
".###############.",
".###############.",
"................."};
