/* XPM */
static char *dummy[]={
"17 17 3 1",
"# c #a1a192",
". c #c7c7be",
"a c #ffffff",
".................",
".###############.",
".###############.",
".###############.",
".#####aaaaaa####.",
".#####aaaaaa####.",
".#####a####a####.",
".###aaaaaa#a####.",
".###aaaaaa#a####.",
".###a####aaa####.",
".###a####a######.",
".###a####a######.",
".###aaaaaa######.",
".###############.",
".###############.",
".###############.",
"................."};
