/* XPM */
static char *dummy[]={
"17 17 3 1",
"# c #3a6ea5",
". c #cedbe8",
"a c #ffffff",
".................",
".###############.",
".###############.",
".####aaaaaa#####.",
".####aaaaaa#####.",
".####a####a#####.",
".##aaaaaa#a#####.",
".##aaaaaa#a#####.",
".##a####aaa#####.",
".##a####a#######.",
".##a####a#######.",
".##aaaaaa#######.",
".###############.",
".###############.",
".###############.",
".###############.",
"................."};
