/* XPM */
static char *dummy[]={
"13 21 2 1",
"# c #a1a192",
". c #afaf9f",
".............",
".############",
".############",
".############",
".############",
".############",
".############",
".############",
".############",
".############",
".############",
".############",
".############",
".############",
".############",
".############",
".############",
".############",
".############",
".############",
".############"};
