/* XPM */
static char *dummy[]={
"21 23 263 2",
"Qt c None",
"b2 c #983a1b",
"bH c #9a320f",
"b6 c #9b3f20",
"b5 c #9b3f21",
".1 c #9c4022",
"b3 c #9d3e1f",
"b4 c #9d3f20",
"cc c #9e3510",
"b7 c #9e4021",
"#e c #9e4425",
"bZ c #9e492b",
"bp c #9f3611",
"b8 c #9f3f1e",
"#J c #9f4629",
"#r c #9f472a",
"b# c #a03712",
"ca c #a13813",
"aY c #a13a15",
"b9 c #a13e1b",
"ar c #a14120",
"af c #a14324",
"#3 c #a14526",
"#S c #a14728",
"aO c #a23c19",
"c. c #a23d19",
"aB c #a2401d",
"cb c #a33711",
"c# c #a43d18",
"b1 c #a75134",
".K c #a9583c",
"bY c #b03c12",
".# c #b4c19d",
"bJ c #bb4823",
"bK c #bb4d2a",
"bI c #bd5837",
"bG c #be4213",
"bX c #be4314",
"bL c #bf5531",
"bO c #bf5533",
"bM c #bf5634",
"bN c #bf5735",
"bP c #c05630",
".J c #c05733",
"bQ c #c1552e",
".q c #c16142",
"bo c #c24615",
"bW c #c24717",
"bU c #c24e20",
".0 c #c25937",
"#d c #c25c39",
"b. c #c34818",
"bV c #c34b1b",
"bS c #c35327",
"#I c #c35d39",
"aX c #c44d1d",
"bT c #c45024",
"bR c #c4562c",
"#2 c #c45a34",
"#R c #c45c38",
"#y c #c45d3b",
"#q c #c45e3b",
"bq c #c54a20",
"aN c #c55022",
"aA c #c55428",
"aq c #c5572d",
"ae c #c55931",
"br c #c9542d",
"ba c #ca5026",
".p c #ca5730",
"bF c #cb4b16",
"aZ c #cb5229",
"bs c #cc5d38",
"aP c #cd5730",
"bt c #cd633f",
".o c #ce5d38",
"#Q c #ce6039",
"#x c #ce613d",
"#p c #ce6440",
"bE c #cf501b",
"aC c #cf5d36",
"as c #cf603b",
"#H c #cf613c",
"bw c #cf6541",
"bu c #cf6543",
"bx c #cf6641",
"bn c #d04f19",
"a9 c #d0531d",
"#O c #d05c34",
"ap c #d05d2e",
"#N c #d05e35",
"#P c #d05e36",
"ad c #d05f33",
"#1 c #d06036",
"#G c #d0603a",
"a0 c #d0613e",
"bz c #d0653a",
"bb c #d06540",
"by c #d0663e",
".I c #d06642",
"#c c #d06644",
"bv c #d06844",
"bD c #d15520",
"aW c #d15620",
"aM c #d15926",
"az c #d15c2a",
"#Z c #d15d31",
"#0 c #d15f34",
"bB c #d16030",
"#F c #d16038",
".n c #d1623f",
"#w c #d1633d",
"#o c #d16440",
"ag c #d16441",
".m c #d16743",
".Z c #d16846",
"bC c #d25d2b",
"ac c #d25e30",
"#Y c #d26135",
"#X c #d26238",
"bA c #d26336",
"#v c #d26744",
"aQ c #d26846",
"bm c #d3571f",
"ao c #d35e2e",
"ab c #d36133",
"aa c #d36437",
"#n c #d36847",
"#E c #d36946",
"#4 c #d36947",
"bc c #d36a48",
"#b c #d36b49",
".l c #d36c4a",
"a8 c #d45a21",
"aL c #d45e29",
"ay c #d45e2b",
"an c #d46232",
"a# c #d4673c",
"#T c #d46d4b",
"bf c #d46e4a",
"aD c #d46e4c",
"#u c #d46e4e",
"#m c #d46e4f",
".H c #d46f4e",
".i c #d47050",
"#C c #d47051",
".Y c #d47251",
"aV c #d55b24",
"ax c #d5602d",
"aw c #d56433",
"am c #d56638",
"bi c #d56c42",
"bh c #d56d47",
"#D c #d56d4c",
"bg c #d56e49",
"bd c #d56e4c",
"be c #d56f4c",
".k c #d56f4d",
".j c #d57252",
"#l c #d57354",
"ce c #d5e0c4",
"aK c #d6602c",
"bl c #d66531",
"bk c #d66736",
"bj c #d66a3d",
"a5 c #d66f42",
"a4 c #d67048",
"a3 c #d6734c",
"a2 c #d67450",
"a1 c #d67451",
"#z c #d67454",
".h c #d67455",
"aS c #d67553",
"aE c #d67555",
"aR c #d67557",
"a. c #d67655",
".G c #d67657",
"#a c #d67658",
"## c #d67759",
"ah c #d67859",
"a7 c #d76835",
"a6 c #d76b3b",
"aJ c #d77045",
"aI c #d7734b",
"av c #d7744c",
"aH c #d77751",
"#k c #d7775b",
".X c #d7795a",
"#W c #d77a5c",
"aU c #d86d3e",
"aT c #d87550",
".g c #d8795b",
"al c #d87a5b",
"at c #d87a5c",
"aF c #d87b5c",
"aG c #d87b5d",
"#9 c #d87b5f",
".F c #d87c5d",
"#. c #d87c5e",
".W c #d87c5f",
"#j c #d97b60",
"#5 c #d97c5e",
"au c #d97c60",
"#f c #d97d5f",
"#V c #d97d60",
".f c #d97f62",
"aj c #d97f63",
"#8 c #d97f64",
"#i c #d97f65",
".E c #d98063",
".8 c #d98165",
"#M c #da7c61",
".9 c #da7d61",
"ai c #da7e61",
"#6 c #da8064",
"#7 c #da8065",
".V c #da8165",
"#L c #da8167",
".D c #da8265",
"ak c #db7e62",
"#U c #db8369",
".U c #db8469",
"#B c #db846a",
".7 c #db856a",
".C c #db866a",
".B c #db876c",
"#K c #db886e",
".e c #dc886d",
".A c #dc896e",
".T c #dc8b71",
".6 c #dd8a70",
"#A c #dd8a71",
".L c #dd8b71",
".z c #dd8c72",
".S c #dd8d73",
".y c #de8e74",
".5 c #de8f75",
".R c #de9078",
".x c #de9279",
"#s c #df9279",
".4 c #df947b",
"#t c #df957b",
".Q c #df957c",
".d c #df967d",
".w c #e09880",
".s c #e19881",
"#g c #e19b83",
".P c #e19b84",
"#h c #e29d86",
".3 c #e39f89",
".v c #e4a48e",
".O c #e4a591",
".2 c #e6aa96",
".t c #e6ab98",
".u c #e7ae9c",
".M c #e7b29f",
"cd c #e7d7d1",
".N c #e8b4a1",
"b0 c #ead8d2",
".r c #ecdad4",
".b c #f5f7fd",
".c c #f6e3de",
".a c #ffffff",
"QtQtQtQtQtQtQtQtQtQtQtQtQtQtQtQtQtQtQtQtQt",
"QtQtQtQtQtQtQtQtQtQtQtQtQtQtQtQtQtQtQtQtQt",
".#.a.b.a.a.a.a.a.a.a.a.a.a.a.a.a.a.a.a.a.#",
".a.c.d.e.f.g.h.i.j.k.k.l.l.m.m.n.o.p.q.r.a",
".a.s.t.u.v.w.x.y.z.A.B.C.D.E.F.G.H.I.J.K.b",
".a.L.M.N.O.P.Q.R.S.T.A.e.U.V.W.X.Y.Z.0.1.a",
".a.D.O.2.3.4.5.6.7.8.9#.###a.j.H#b#c#d#e.a",
".a#f#g#h.4.a.a#i#j#k#l#m#b#n.a.a#o#p#q#r.a",
".a.g#s#t.5.a.a.a#k#l#u#b#v.a.a.a#w#x#y#r.a",
".a#z.S.5#A#B.a.a.a#C#D#E.a.a.a#F#G#H#I#J.a",
".a#z.B#K.B#L#M.a.a.a#b.a.a.a#N#O#P#Q#R#S.a",
".a#T.V.U#U#i#V#W.a.a.a.a.a#X#Y#Z#0#1#2#3.a",
".a#4#5#6#7#8#9.ga..a.a.aa#aaabacacadaeaf.a",
".aagahaiajak#fal.a.a.a.a.aamanaoaoapaqar.a",
".aas.jat#fau#..a.a.aav.a.a.aawaxayazaAaB.a",
".aaCaDaEaFaG.a.a.aaHaIaJ.a.a.aaKaLaMaNaO.a",
".aaPaQ.iaR.a.a.aaSaTaIaJaU.a.a.aaVaWaXaY.a",
".aaZa0#b.i.a.aa1a2a3a4a5a6a7.a.aa8a9b.b#.a",
".abaaCbbbcbdbebfbgbhbibjbkblaKaVbmbnbobp.a",
".abqbrbsbtbubvbwbxbybzbAbBbCaMbDbEbFbGbH.a",
".bbIbJbKbLbMbNbO.JbPbQbRbSbTbUbVbWbXbYbZ.a",
".ab0b1b2b3b4b5b6b7b7b8b9c.c#aYcacbccbZcd.a",
"ce.a.a.a.a.a.a.a.a.a.a.a.a.a.a.a.a.a.b.ace"};
