/* XPM */
static char *dummy[]={
"21 23 194 2",
"Qt c None",
"#n c #855638",
"ab c #86492a",
"#3 c #864c2e",
"#T c #874f31",
"#L c #875234",
"#C c #875437",
".6 c #88583b",
"am c #894727",
".N c #8a5a3e",
"ax c #8b4527",
"aW c #8d4121",
"aR c #8e4224",
"aE c #8e4627",
"aJ c #8f4626",
".s c #904425",
"aN c #904526",
".e c #905f41",
".g c #925f42",
".f c #936242",
".u c #937164",
".d c #947365",
".h c #956140",
".r c #974b2a",
".q c #974d2e",
".i c #976243",
".p c #995231",
"a0 c #9b563d",
".o c #9b5737",
".l c #9b6040",
".j c #9b6444",
".m c #9c5f3f",
".k c #9c6344",
".v c #9c6a4b",
".t c #9d5a41",
".n c #9e5c3b",
"an c #a44e2c",
"ac c #a55230",
"ay c #a64e2b",
"#4 c #a65735",
"#U c #a65c3a",
"#M c #a7603f",
"a1 c #a84724",
"aX c #a84a25",
"aK c #a84d29",
"aF c #a84e2a",
"#D c #a86544",
".7 c #a86c4b",
".O c #a8704d",
"aS c #a94c27",
"aO c #a94c29",
"#o c #a96a48",
".w c #a97251",
".L c #aa4d28",
".K c #ac512b",
"a6 c #ad5b3d",
".M c #ae5d40",
".x c #ae7453",
".y c #af7450",
".J c #b05631",
"aq c #b14823",
"a7 c #b14923",
"#Y c #b14a25",
".I c #b15934",
"#8 c #b24925",
"ag c #b24a25",
"af c #b24a26",
"#X c #b24d28",
"#W c #b2552f",
"#5 c #b25632",
".z c #b27351",
"#9 c #b34924",
"ar c #b34a24",
"#7 c #b34b26",
".5 c #b34c26",
"aL c #b34d27",
"ae c #b34d28",
"az c #b34e29",
"ao c #b3502a",
"#6 c #b3502c",
"#P c #b3522e",
"ad c #b3532e",
"#V c #b35c38",
"#N c #b3613e",
"ah c #b44a24",
"aA c #b44b25",
"a2 c #b44c25",
"ap c #b44c27",
"aY c #b44d26",
"aT c #b44e27",
"aG c #b44e28",
"#O c #b45a35",
".H c #b4603b",
".A c #b4734f",
".# c #b4c19d",
"ai c #b54b25",
"aU c #b54c25",
"#K c #b54d26",
"aH c #b54d27",
".4 c #b54f29",
"#E c #b56642",
"#p c #b56d49",
"#B c #b64c25",
"#Z c #b64c26",
"aM c #b64d26",
"#Q c #b64e29",
"#F c #b6613b",
".G c #b66542",
".P c #b67955",
"a8 c #b74d25",
"#m c #b74d26",
"#S c #b74e26",
"#A c #b74e27",
"#R c #b74f29",
"#z c #b75029",
".3 c #b7522c",
"#G c #b7532e",
"#q c #b76844",
".F c #b76b47",
".B c #b77551",
"#2 c #b84e26",
"#l c #b84f28",
"#k c #b85029",
".E c #b86f4b",
".D c #b8744f",
".8 c #b87552",
"#0 c #b94f26",
"#1 c #b94f27",
"#j c #b9532c",
"#J c #b9532d",
"#I c #b9552e",
"#H c #b9552f",
".2 c #b95630",
"aD c #ba5027",
".9 c #ba714d",
".C c #ba7551",
"a. c #bb5127",
"#i c #bb572f",
"#y c #bb5831",
".1 c #bb5b33",
"#s c #bb613c",
".Q c #bb7855",
"a# c #bc5127",
"aa c #bc5228",
"#x c #bc5b34",
"#t c #bc613a",
"#. c #bc7049",
".R c #bc7653",
"aj c #bd5228",
"#w c #bd5d37",
"#v c #bd5f39",
".0 c #bd6039",
"ak c #be5329",
"al c #be5428",
"#h c #be5c35",
"#u c #be603b",
".S c #be7551",
"aZ c #bf5429",
"aw c #bf5529",
"## c #bf6e48",
"av c #c05529",
"as c #c0552a",
"a3 c #c05629",
"aQ c #c0562a",
"#g c #c0603a",
".Z c #c06640",
"#a c #c06d47",
"at c #c1562a",
"au c #c1572a",
"a4 c #c16541",
"a9 c #c16542",
"#b c #c16e47",
".T c #c17752",
"aB c #c2582b",
"#f c #c26540",
"#e c #c26942",
".Y c #c26d47",
"#c c #c26e48",
".U c #c27751",
"aC c #c3592b",
"aV c #c3592c",
"aI c #c45a2c",
"#d c #c46d45",
".X c #c4734c",
"aP c #c55b2c",
".W c #c5754f",
".V c #c57751",
"b# c #cbd6b8",
"#r c #df9a88",
"a5 c #e8dad5",
".c c #eadbd6",
"b. c #f1ddd5",
".b c #f5f7fd",
".a c #ffffff",
"QtQtQtQtQtQtQtQtQtQtQtQtQtQtQtQtQtQtQtQtQt",
"QtQtQtQtQtQtQtQtQtQtQtQtQtQtQtQtQtQtQtQtQt",
".#.a.b.a.a.a.a.a.a.a.a.a.a.a.a.a.a.a.b.a.#",
".a.c.d.e.f.g.h.i.j.k.l.m.n.o.p.q.r.s.t.c.a",
".b.u.v.w.x.y.z.A.B.C.D.E.F.G.H.I.J.K.L.M.b",
".a.N.O.P.Q.R.S.T.U.V.W.X.Y.Z.0.1.2.3.4.5.a",
".a.6.7.8.9#.###a#b#c#d#e#f#g#h#i#j#k#l#m.a",
".a#n#o#p#q#r#r#s#t#u#v#w#x#y#r#r#z#A#m#B.a",
".a#C#D#E#F#r#r#r#G#H#H#I#J#r#r#r#K#m#B#B.a",
".a#L#M#N#O#P#r#r#r#Q#R#R#r#r#r#S#m#m#m#B.a",
".a#T#U#V#W#X#Y#r#r#r#Z#r#r#r#0#1#1#0#2#m.a",
".a#3#4#5#6#7#8#9#r#r#r#r#ra.a#aaa.a.#1#m.a",
".aabacadaeafagahai#r#r#raaajakakalaja.#2.a",
".aamanaoapaqarai#r#r#r#r#rasatauavawaa#0.a",
".aaxayazaparaA#r#r#raa#r#r#raBaCaBatalaD.a",
".aaEaFaGaHaA#r#r#ra.ajas#r#r#raIaCaBawaD.a",
".aaJaKaLaM#r#r#r#0aaakataB#r#r#raIaBava..a",
".aaNaOaGaM#r#r#S#1aaakataBaI#r#raPaCaQa..a",
".aaRaSaT#KaUaM#m#0a.ajavauaCaVaPaIaBava..a",
".aaWaXaY#B#B#m#m#0a.aaaZataBaBaCaBauakaD.a",
".ba0a1a2#B#B#B#B#m#0a.aaakaZa3ataQakaaa4.b",
".aa5a6a7#B#B#B#Ba8#2#2#0aDaDa.a.a.aDa9b..a",
"b#.a.a.a.a.a.a.a.a.a.a.a.a.a.a.a.a.a.a.ab#"};
