/* XPM */
static char *dummy[]={
"21 23 236 2",
"Qt c None",
".# c #b4c19d",
"bz c #c2451a",
"bA c #c2471e",
"bB c #c24920",
"bC c #c24c22",
".Z c #c34a21",
"bD c #c44b20",
"#. c #c44e24",
"#o c #c45028",
"#y c #c45029",
"bw c #c4562e",
"#g c #c55027",
"#G c #c55129",
"bN c #c5582e",
"bE c #c64c22",
"by c #c85932",
"bF c #c95124",
"#M c #c9552a",
".K c #c95d38",
"#Z c #ca542a",
"bG c #cb5024",
"bP c #cbd6b8",
"bf c #cc4917",
"#7 c #cd5729",
"bM c #cf4b17",
"bH c #d05324",
"bI c #d05423",
"ao c #d05523",
"ae c #d05727",
"aZ c #d14f1c",
"az c #d15220",
"aJ c #d2511e",
"bJ c #d35723",
"bL c #d5521d",
"bK c #d6551e",
"bO c #dbc4bd",
"bv c #dc541d",
"bg c #de5f33",
".s c #dec7bf",
".r c #e0663c",
"bx c #e0c6be",
"bi c #e35929",
"bj c #e35b2e",
".J c #e35c2f",
"bk c #e35f31",
".Y c #e36033",
"bl c #e36233",
".9 c #e36236",
"#f c #e36238",
"#n c #e36338",
"bm c #e36436",
"#x c #e46539",
"bn c #e46a39",
"bh c #e55423",
"#F c #e5693a",
"bo c #e66d3a",
"#L c #e66d3d",
".c c #e7d0c8",
"be c #e86026",
"#Y c #e8703d",
"bp c #e8723c",
"bu c #e96126",
"#6 c #e9733e",
"ad c #e9743c",
"bs c #eb7339",
"an c #eb733a",
"bq c #eb733b",
"br c #eb753b",
".M c #ebac97",
".2 c #eca186",
".w c #eca287",
".1 c #eca288",
".N c #eca88e",
".v c #eca891",
".L c #eca994",
"aY c #ed6b2c",
"bt c #ed6c2e",
"aI c #ed6f2f",
"ay c #ed7235",
"#b c #ed987d",
"## c #ed9a7e",
".O c #ed9c83",
"#a c #ed9e83",
".u c #eda68d",
".P c #ee9376",
".y c #ee9576",
"#h c #ee9577",
".x c #ee997c",
"#i c #ee9a7b",
"a3 c #ef6739",
"a6 c #ef6e42",
"a8 c #ef7a4b",
".t c #ef906e",
"#q c #ef906f",
".z c #ef9070",
"#p c #ef9273",
"a0 c #f05420",
"a1 c #f05c2b",
".q c #f05f2e",
".I c #f0693b",
"#e c #f06a3c",
"a5 c #f06b40",
"a4 c #f06c3e",
".8 c #f06c3f",
".X c #f06d41",
"#K c #f07543",
"a7 c #f07545",
"a9 c #f0814e",
"b. c #f08650",
".C c #f08966",
".e c #f08a68",
".S c #f08b67",
".B c #f08b68",
".R c #f08b6a",
"#r c #f08d6b",
".A c #f08e6c",
".Q c #f08e6d",
".d c #f08f6d",
"aj c #f09967",
"au c #f09c67",
"av c #f09f67",
"a2 c #f16334",
"#w c #f16c3c",
"#E c #f17040",
"#X c #f17b46",
".g c #f17d55",
".G c #f17d56",
"ag c #f17d57",
".U c #f17f58",
"#9 c #f18058",
".3 c #f1805a",
"#5 c #f18148",
"#Q c #f1825a",
".F c #f1825b",
"#0 c #f1825c",
".f c #f1835e",
"aB c #f18458",
"#R c #f1845a",
".E c #f1845e",
".T c #f1855f",
".0 c #f18560",
"aP c #f18656",
"ar c #f1865b",
"#O c #f18661",
"#A c #f18760",
".D c #f18863",
"b# c #f1894f",
"#c c #f18965",
"ba c #f18a4e",
"aQ c #f18c5a",
"#1 c #f18e55",
"as c #f18f61",
"ah c #f19063",
"aa c #f19255",
"a. c #f19363",
"aU c #f19556",
"a# c #f19558",
"ai c #f19565",
"at c #f19665",
"ak c #f19758",
"aT c #f1975a",
"aD c #f19a65",
"aE c #f19e65",
"aF c #f1a163",
"#m c #f26c3a",
"#H c #f27146",
".l c #f27246",
"bd c #f27431",
"#t c #f27446",
".j c #f2764d",
".5 c #f2774e",
"#s c #f2784d",
"#z c #f2784e",
"#B c #f2794e",
".H c #f27a4f",
".V c #f27b53",
"#I c #f27c46",
".h c #f27c52",
".4 c #f27d54",
"aO c #f27e52",
"aH c #f28340",
"#P c #f2835d",
"ac c #f28449",
"#T c #f2844e",
"ax c #f28543",
"am c #f28647",
"#S c #f28652",
"bb c #f28a4a",
"#3 c #f28a4e",
"aW c #f28b45",
"#2 c #f28b52",
"ab c #f28c50",
"aC c #f28c5d",
"aV c #f2924f",
"al c #f29252",
"aw c #f2934f",
"aR c #f2935d",
"aS c #f2975d",
"#d c #f36b3d",
".n c #f36b3e",
"aq c #f36d41",
"#N c #f36e43",
"#k c #f36f42",
"#D c #f3703e",
".m c #f37043",
".7 c #f37044",
"aM c #f37247",
"#j c #f37347",
".k c #f37448",
".W c #f3744b",
".6 c #f3754a",
".i c #f3764c",
"aN c #f3784c",
"#J c #f37943",
"aX c #f37f3a",
"bc c #f37f3b",
"#W c #f38048",
"#V c #f38148",
"#U c #f3834b",
"#4 c #f3874c",
"aG c #f3904c",
"ap c #f4602e",
"#8 c #f46637",
".o c #f46a3a",
"#l c #f46b3b",
"#v c #f46c3c",
"#u c #f46d3a",
"#C c #f4703c",
"aK c #f55924",
"aA c #f55c29",
"af c #f56334",
"aL c #f56433",
".p c #f56434",
".b c #f5f7fd",
".a c #ffffff",
"QtQtQtQtQtQtQtQtQtQtQtQtQtQtQtQtQtQtQtQtQt",
"QtQtQtQtQtQtQtQtQtQtQtQtQtQtQtQtQtQtQtQtQt",
".#.a.b.a.a.a.a.a.a.a.a.a.a.a.a.a.a.a.b.a.#",
".a.c.d.e.f.g.h.i.j.k.k.l.m.n.n.o.p.q.r.s.a",
".b.t.u.v.w.x.y.z.A.B.C.D.E.F.G.H.l.I.J.K.b",
".a.e.L.M.N.O.x.P.z.Q.R.S.D.T.U.V.W.X.Y.Z.a",
".a.0.1.N.2.x.P.d.B.D.f.3.4.h.5.6.7.8.9#..a",
".a.U###a#b.a.a#c.E.U.h.j.l.7.a.a#d#e#f#g.a",
".a.4#h#i.y.a.a.a.3.4.5#j#k.a.a.a#l#m#n#o.a",
".a.H.d#p#q#r.a.a.a.h#s#t.a.a.a#u#v#w#x#y.a",
".a#z.S.A.R.C#A.a.a.a#B.a.a.a#C#C#D#E#F#G.a",
".a#H.0.C#c.D.T.F.a.a.a.a.a#I#J#J#J#K#L#M.a",
".a#N.U.T#O#A#P#Q#R.a.a.a#S#T#U#V#W#X#Y#Z.a",
".a#v.V#Q#P#P#0#R.a.a.a.a.a#1#2#3#4#5#6#7.a",
".a#8.j.g.U.F#9.a.a.aa..a.a.aa#aaabacadae.a",
".aaf.l.H.4ag.a.a.aahaiaj.a.a.aakalamanao.a",
".aapaq.W.H.a.a.aarasatauav.a.a.aawaxayaz.a",
".aaA.o.m.6.a.a.haBaCa.aDaEaF.a.aaGaHaIaJ.a",
".aaKaL#v#NaM.kaNaOaPaQaRaSaTaUaVaWaXaYaZ.a",
".aa0a1a2a3a4a5a6a7a8a9b.b#babbaxbcbdbebf.a",
".bbgbhbibjbk.Yblbmbnbobpbqbrbsaybtbubvbw.b",
".abxbybzbAbBbCbDbEbFbGbHbIbJazbKbLbMbNbO.a",
"bP.a.b.a.a.a.a.a.a.a.a.a.a.a.a.a.a.a.b.abP"};
