/* XPM */
static char *dummy[]={
"21 23 131 2",
"Qt c None",
"#6 c #708148",
"a# c #72824a",
".A c #75825e",
"a. c #75844e",
"#Y c #75854c",
".L c #768753",
"#Q c #77864e",
"#9 c #79884f",
"#K c #7a8950",
"#8 c #7b8b59",
"#Z c #7b8e55",
"#5 c #7c8d4f",
"#E c #7d8d55",
"#A c #7f8f59",
"#X c #809052",
"#4 c #809054",
"#t c #80905c",
"#P c #819157",
".z c #819261",
"#7 c #829164",
"#n c #839361",
".K c #839366",
"#R c #83965d",
"#W c #859458",
"#J c #869359",
"#h c #879366",
".T c #879466",
".1 c #879468",
"#L c #879660",
"#0 c #879661",
".n c #889965",
".8 c #889968",
"#F c #889b65",
"#D c #89955c",
"#I c #8b965d",
"#O c #8b975b",
"#V c #8b975d",
".o c #8b986b",
"#s c #8b9a64",
"#z c #8c9b61",
"#B c #8c9d6b",
"#r c #8d9a64",
"#f c #8d9d67",
"#g c #8d9d68",
"#y c #8e9b61",
"#a c #8e9d69",
"#b c #8e9d6b",
"#S c #8e9e6a",
"#x c #8f9e65",
".m c #8f9e6a",
"#2 c #8f9e6c",
"#3 c #909d6b",
"## c #909f6b",
".7 c #909f6d",
".l c #90a072",
".6 c #90a16b",
".5 c #90a16d",
"#H c #919d67",
"#q c #919d68",
"#m c #919e69",
"#. c #91a072",
"#e c #91a16b",
".0 c #91a170",
"#M c #91a171",
"#w c #92a16b",
"#l c #92a16d",
"#1 c #92a373",
".k c #95a274",
".Z c #95a373",
".Y c #95a577",
"#C c #96a16c",
"#U c #96a16d",
"#d c #96a274",
"#i c #96a577",
"#N c #97a16d",
"#v c #97a171",
"#T c #97a373",
"#G c #98a16b",
".i c #98a77b",
"#p c #99a577",
".S c #99a877",
".j c #99a878",
"#k c #9aa878",
".g c #9aaa7c",
"#o c #9bab7b",
"#j c #9cab7f",
".J c #9cab81",
".h c #9cad80",
"#c c #9cad81",
"#u c #9dab7b",
".4 c #9ead81",
".f c #9ead85",
".y c #a1ad85",
".9 c #a1b084",
".I c #a1b086",
".X c #a1b288",
".e c #a3b288",
".x c #a3b289",
".W c #a5b48a",
".d c #a5b48b",
".3 c #a7b68e",
".M c #a7b68f",
".R c #a8b792",
".w c #aab68f",
".c c #afbb94",
".v c #afbb96",
".2 c #b1bd96",
".u c #b1bf98",
".V c #b2bf9a",
".H c #b2bf9b",
".Q c #b2bf9e",
".B c #b3bf98",
".t c #b4c29f",
".G c #b5c19d",
".P c #b6c3a2",
".b c #b7c3a2",
".p c #b9c5a4",
".U c #bcc5a9",
".F c #bcc6a7",
".O c #bfc6aa",
".s c #c1c6ae",
".E c #c3c6b1",
".N c #c5c6b2",
".r c #c6c6b9",
"aa c #c6c6c6",
".q c #c7c7b4",
".C c #c7c7bb",
".D c #c7c7be",
".a c #dcdcdc",
".# c #ffffff",
"QtQtQtQtQtQtQtQtQtQtQtQtQtQtQtQtQtQtQtQtQt",
"QtQtQtQtQtQtQtQtQtQtQtQtQtQtQtQtQtQtQtQtQt",
"Qt.#.#.#.#.#.#.#.#.#.#.#.#.#.#.#.#.#.#.#Qt",
".#.a.b.c.d.e.f.g.h.i.i.j.j.k.k.l.m.n.o.a.#",
".#.p.q.r.s.p.t.u.u.v.c.c.w.d.x.y.g.l.z.A.#",
".#.B.C.D.E.F.b.G.H.u.v.v.c.w.x.I.J.k.K.L.#",
".#.M.E.N.O.P.Q.v.c.R.d.x.f.y.h.g.S.k.T.L.#",
".#.x.F.U.P.V.c.R.W.X.h.g.S.Y.k.Z.l.0.1.L.#",
".#.e.t.b.Q.2.R.3.X.4.g.S.k.l.5.6.5.7.8.L.#",
".#.h.H.Q.u.c.3.x.9.J.i.k#..6.m.m.6##.T.L.#",
".#.h.c.2.c.R.3.X.4.g.S.k.5.m#a#a.m#b.K.L.#",
".#.i.w.c.c.R.W.e#c.g.S#d#e.m.m#f#a#g#h.L.#",
".##i.x.3.R.3.x.e.4#j#k#d#l#e#m#f#f#f#n.L.#",
".#.Z.y.d.3.3.x.e.f.J#o#p#l#e#q#r#r#s#t.L.#",
".#.6.h.e.x.W.x.x.y.J#u#p#v#w#q#x#y#z#A.L.#",
".##B.i.f.e.#.#.#.#.#.#.##v#C#q#y#y#D#E.L.#",
".##F.k.g.y.#.#.#.#.#.#.##v#G#H#y#I#J#K.L.#",
".##L#M.S.g.#.#.#.#.#.#.##N#w#H#y#O#P#Q.L.#",
".##R#S.l#i.i#o.j#p#p#T#U#w#q#y#V#W#X#Y.L.#",
".##Z#0#B.0#1#1.l#..7#2#3#f#z#D#J#4#5#6.L.#",
".##7.L#8#P#0#0#0#0#0#0#D#D#D#P#9a.a#.L.L.#",
".#aa.L.L.L.L.L.L.L.L.L.L.L.L.L.L.L.L.Laa.#",
"Qt.#.#.#.#.#.#.#.#.#.#.#.#.#.#.#.#.#.#.#Qt"};
