/* XPM */
static char *dummy[]={
"21 23 56 1",
". c None",
"z c #474a3a",
"c c #474a3c",
"d c #494c3c",
"L c #4a4c3c",
"e c #4a4c3e",
"N c #4b4e3e",
"f c #4d503f",
"R c #4d5241",
"g c #4e5140",
"h c #505340",
"p c #505542",
"b c #52544b",
"i c #525544",
"q c #535643",
"j c #535844",
"k c #545945",
"Y c #565b45",
"l c #565b47",
"m c #575c48",
"n c #585d47",
"O c #595e48",
"r c #5a5f48",
"A c #5b6049",
"s c #5c6249",
"t c #5e634a",
"u c #5f644b",
"v c #60654c",
"B c #61664c",
"w c #62674d",
"P c #62684e",
"C c #63684e",
"x c #64694d",
"H c #646a4e",
"D c #656b4f",
"V c #656d4f",
"o c #666b57",
"E c #666c50",
"I c #676d51",
"F c #686d51",
"G c #686e50",
"J c #696f53",
"M c #6a7052",
"Q c #6b7152",
"S c #6b7354",
"T c #6d7354",
"U c #6e7354",
"W c #6f7455",
"y c #6f745d",
"0 c #717655",
"X c #727756",
"Z c #737857",
"1 c #777c62",
"K c #dce8cb",
"a c #e1e1e1",
"# c #ffffff",
".....................",
".....................",
".###################.",
"#abccdefghhijkllmnoa#",
"#bfpqjlmrsttuvwxxxxy#",
"#zpnAstuBCDEFGGGGGGG#",
"#cjAtuBxHEIGGJJJJJJJ#",
"#cktuKKKKKKKKKKKJJJJ#",
"#LltBKKKKKKKKKKKJMJJ#",
"#NOvPKKKKKKKKKKKQQMJ#",
"#fAxDKIGGGJJQQQKQQQM#",
"#RsHEKGGJJMQQSTKSSQQ#",
"#htEIKGGJMQQUUUKUUSQ#",
"#itVGKGJJQQUWWWKWWUQ#",
"#juGGKJJQQUUWXXKXWUQ#",
"#kBGJKJJQSUWXXXKXXWQ#",
"#YwGJKJMQTUWXXZKXXWS#",
"#lxGJKKKKKKKKKKKZXWT#",
"#lxGJJJMQSUW0XXZXXWS#",
"#mxGJJMMQSUUWXXXX0UQ#",
"#oCGJJJJQQSUUWWWWUT1#",
"#ayGJJJJMQQQQQSTSQ1a#",
".###################."};
