/* XPM */
static char *dummy[]={
"21 23 128 2",
"Qt c None",
"#3 c #708148",
"#8 c #72824a",
".A c #75825e",
"#7 c #75844e",
"#V c #75854c",
".L c #768753",
"#M c #77864e",
"#6 c #79884f",
"#E c #7a8950",
"#5 c #7b8b59",
"#W c #7b8e55",
"#2 c #7c8d4f",
"#y c #7d8d55",
"#t c #7f8f59",
"#U c #809052",
"#1 c #809054",
"#l c #80905c",
"#L c #819157",
".z c #819261",
"#4 c #829164",
"#h c #839361",
".K c #839366",
"#N c #83965d",
"#T c #859458",
"#D c #869359",
"#b c #879366",
".T c #879466",
".Y c #879468",
"#F c #879660",
"#X c #879661",
".n c #889965",
".4 c #889968",
"#z c #889b65",
"#x c #89955c",
"#C c #8b965d",
"#K c #8b975b",
"#S c #8b975d",
".o c #8b986b",
"#k c #8b9a64",
"#s c #8c9b61",
"#u c #8c9d6b",
"#j c #8d9a64",
"## c #8d9d67",
"#a c #8d9d68",
"#r c #8e9b61",
".8 c #8e9d69",
".9 c #8e9d6b",
"#O c #8e9e6a",
"#q c #8f9e65",
".m c #8f9e6a",
"#Z c #8f9e6c",
"#0 c #909d6b",
".7 c #909f6b",
".3 c #909f6d",
".l c #90a072",
".1 c #90a16b",
".2 c #90a16d",
"#B c #919d67",
"#p c #919d68",
".6 c #91a072",
"#. c #91a16b",
".X c #91a170",
"#G c #91a171",
"#o c #92a16b",
"#g c #92a16d",
"#Y c #92a373",
".k c #95a274",
".W c #95a373",
"#w c #96a16c",
"#R c #96a16d",
"#c c #96a577",
"#J c #97a16d",
"#n c #97a171",
"#Q c #97a373",
"#A c #98a16b",
".i c #98a77b",
"#P c #99a577",
".S c #99a877",
".j c #99a878",
"#I c #9aa674",
"#f c #9aa878",
".g c #9aaa7c",
"#H c #9ba877",
"#i c #9bab7b",
"#e c #9cab7f",
".J c #9cab81",
".h c #9cad80",
"#m c #9dab7b",
"#d c #9ead81",
".f c #9ead85",
"#v c #a1ad81",
".y c #a1ad85",
".5 c #a1b084",
".I c #a1b086",
".e c #a3b288",
".x c #a3b289",
".d c #a5b48b",
".0 c #a7b68e",
".M c #a7b68f",
".R c #a8b792",
".w c #aab68f",
".c c #afbb94",
".v c #afbb96",
".Z c #b1bd96",
".u c #b1bf98",
".V c #b2bf9a",
".H c #b2bf9b",
".Q c #b2bf9e",
".B c #b3bf98",
".t c #b4c29f",
".G c #b5c19d",
".P c #b6c3a2",
".b c #b7c3a2",
".p c #b9c5a4",
".U c #bcc5a9",
".F c #bcc6a7",
".O c #bfc6aa",
".s c #c1c6ae",
".E c #c3c6b1",
".N c #c5c6b2",
".r c #c6c6b9",
"#9 c #c6c6c6",
".q c #c7c7b4",
".C c #c7c7bb",
".D c #c7c7be",
".a c #dcdcdc",
".# c #ffffff",
"QtQtQtQtQtQtQtQtQtQtQtQtQtQtQtQtQtQtQtQtQt",
"QtQtQtQtQtQtQtQtQtQtQtQtQtQtQtQtQtQtQtQtQt",
"Qt.#.#.#.#.#.#.#.#.#.#.#.#.#.#.#.#.#.#.#Qt",
".#.a.b.c.d.e.f.g.h.i.i.j.j.k.k.l.m.n.o.a.#",
".#.p.q.r.s.p.t.u.u.v.c.c.w.d.x.y.g.l.z.A.#",
".#.B.C.D.E.F.b.G.H.u.v.v.c.w.x.I.J.k.K.L.#",
".#.M.E.N.O.P.Q.v.c.R.d.x.f.y.h.g.S.k.T.L.#",
".#.x.F.U.P.V.c.R.#.#.#.#.#.#.#.W.l.X.Y.L.#",
".#.e.t.b.Q.Z.R.0.#.#.#.#.#.#.#.1.2.3.4.L.#",
".#.h.H.Q.u.c.0.x.5.J.i.k.6.1.#.m.1.7.T.L.#",
".#.h.c.Z.c.#.#.#.#.#.#.#.2.m.#.8.m.9.K.L.#",
".#.i.w.c.c.#.#.#.#.#.#.##..m.###.8#a#b.L.#",
".##c.x.0.R.#.x.e#d#e#f.##g#..########h.L.#",
".#.W.y.d.0.#.x.e.f.J#i.##g.#.##j#j#k#l.L.#",
".#.1.h.e.x.#.x.x.y.J#m.##n#o#p#q#r#s#t.L.#",
".##u.i.f.e.#.e.I#v.J#m.##n#w#p#r#r#x#y.L.#",
".##z.k.g.y.#.#.#.#.#.#.##n#A#B#r#C#D#E.L.#",
".##F#G.S.g.h.h.J#e#m#H#I#J#o#B#r#K#L#M.L.#",
".##N#O.l#c.i#i.j#P#P#Q#R#o#p#r#S#T#U#V.L.#",
".##W#X#u.X#Y#Y.l.6.3#Z#0###s#x#D#1#2#3.L.#",
".##4.L#5#L#X#X#X#X#X#X#x#x#x#L#6#7#8.L.L.#",
".##9.L.L.L.L.L.L.L.L.L.L.L.L.L.L.L.L.L#9.#",
"Qt.#.#.#.#.#.#.#.#.#.#.#.#.#.#.#.#.#.#.#Qt"};
