/* XPM */
static char *dummy[]={
"21 23 125 2",
"Qt c None",
"#1 c #92a75f",
"#6 c #94a861",
"#5 c #97aa65",
"#T c #97ab63",
".A c #98a873",
"#M c #99ac65",
".L c #9aae69",
"#4 c #9bae65",
"#H c #9caf67",
"#3 c #9eb270",
"#0 c #9eb365",
"#U c #9eb46b",
"#z c #a0b46b",
"#S c #a2b669",
"#t c #a3b670",
"#Z c #a3b76b",
"#L c #a3b76e",
"#n c #a4b772",
".z c #a5ba77",
"#2 c #a6b879",
".K c #a6ba7c",
"#g c #a7ba77",
"#R c #a7bb6e",
"#N c #a7be73",
"#G c #a9ba70",
"## c #a9ba7c",
".T c #a9bc7c",
".W c #a9bc7d",
"#I c #a9be77",
"#y c #abbc72",
".n c #acc17b",
"#A c #acc37b",
"#K c #adbe71",
"#F c #adbe73",
".Z c #adc17e",
".o c #aec080",
"#m c #aec17a",
"#l c #afc17a",
"#s c #afc377",
"#f c #afc47d",
"#r c #b0c377",
"#u c #b0c581",
"#. c #b1c47e",
".6 c #b1c47f",
"#O c #b1c680",
".7 c #b2c581",
"#E c #b3c47d",
"#k c #b3c47e",
"#e c #b3c57f",
"#Y c #b3c581",
".m c #b3c680",
"#X c #b3c683",
".0 c #b3c881",
".1 c #b4c781",
".Y c #b4c784",
".l c #b4c888",
".X c #b4c984",
"#q c #b5c881",
"#W c #b5c888",
".V c #b5c987",
"#d c #b6c984",
"#J c #b6c988",
"#V c #b6cb8a",
"#x c #b8c883",
".k c #b8ca8a",
"#h c #b8cb8a",
"#Q c #b9c984",
".9 c #b9ca8a",
"#D c #bac881",
"#p c #bac988",
"#P c #bacb8a",
"#a c #bacd8d",
".i c #bbd092",
"#j c #bccd8d",
".j c #bcd08f",
".S c #bdd08e",
"#w c #bed08e",
"#c c #bed08f",
"#i c #bfd392",
".g c #bfd394",
"#b c #bfd396",
".J c #bfd398",
".h c #c0d598",
"#o c #c1d392",
".5 c #c1d598",
"#C c #c2d598",
".f c #c3d59c",
"#v c #c4d598",
".y c #c4d59c",
"#B c #c4d99b",
".I c #c5d99e",
".4 c #c6daa0",
".e c #c7daa0",
".x c #c8daa1",
".8 c #c9dca2",
".d c #c9dca4",
".3 c #ccdfa7",
".M c #ccdfa8",
".R c #cce0ab",
".w c #cedfa8",
".c c #d2e3ae",
".v c #d3e5b0",
".2 c #d4e5b0",
".u c #d5e8b2",
".B c #d7e8b2",
".H c #d7e9b6",
".Q c #d7e9b9",
".t c #d8ecbb",
".G c #daecb9",
".P c #dbeebf",
".b c #dceebf",
".p c #deefc0",
".F c #e0f0c4",
".U c #e1efc6",
".O c #e3f0c7",
".s c #e6f1cc",
".E c #e7f1cf",
".N c #eaf1d0",
".r c #eaf2d8",
".q c #ebf2d3",
".C c #ecf3db",
".D c #ecf3df",
".a c #fbfffb",
".# c #ffffff",
"QtQtQtQtQtQtQtQtQtQtQtQtQtQtQtQtQtQtQtQtQt",
"QtQtQtQtQtQtQtQtQtQtQtQtQtQtQtQtQtQtQtQtQt",
"Qt.#.#.#.#.#.#.#.#.#.#.#.#.#.#.#.#.#.#.#Qt",
".#.a.b.c.d.e.f.g.h.i.i.j.j.k.k.l.m.n.o.a.#",
".#.p.q.r.s.p.t.u.u.v.c.c.w.d.x.y.g.l.z.A.#",
".#.B.C.D.E.F.b.G.H.u.v.v.c.w.x.I.J.k.K.L.#",
".#.M.E.N.O.P.Q.v.c.R.d.x.f.y.h.g.S.k.T.L.#",
".#.x.F.U.P.#.#.#.#.#.#.#.#.#.#.#.l.V.W.L.#",
".#.e.t.b.Q.#.#.#.#.#.#.#.#.#.#.#.X.Y.Z.L.#",
".#.h.H.Q.u.#.#.#.#.#.#.#.#.#.#.#.0.1.T.L.#",
".#.h.c.2.c.#.3.4.5.g.S.k.X.m.6.#.m.7.K.L.#",
".#.i.w.c.c.#.8.e.h.g.S.9.0.m.m.#.6#.##.L.#",
".##a.x.3.R.#.x.e.5#b#c.9#d.0#e.##f#f#g.L.#",
".##h.y.d.3.#.x.e.f.J#i#j#d.0#k.##l#m#n.L.#",
".#.0.h.e.x.#.x.x.y.J#o#j#p#q#k.##r#s#t.L.#",
".##u.i.f.e.#.e.I#v.J#o#w#p#x#k.##r#y#z.L.#",
".##A.k.g.y.##B.f#C#b#c.S#p#D#E.##F#G#H.L.#",
".##I#J.S.g.#.#.#.#.#.#.#.#.#.#.##K#L#M.L.#",
".##N#O.l#a.i#i.j#j#j#P#Q#q#k#r#F#R#S#T.L.#",
".##U#I#u.V#V#V.l#W.Y#X#Y#f#s#y#G#Z#0#1.L.#",
".##2.L#3#L#I#I#I#I#I#I#y#y#y#L#4#5#6.L.L.#",
".#.#.L.L.L.L.L.L.L.L.L.L.L.L.L.L.L.L.L.#.#",
"Qt.#.#.#.#.#.#.#.#.#.#.#.#.#.#.#.#.#.#.#Qt"};
