/* XPM */
static char *dummy[]={
"9 30 48 1",
"# c None",
"z c #adb8a1",
"w c #b2bba4",
"v c #b5c0a7",
"o c #b7bdab",
"y c #b7c2a9",
"r c #bbc5aa",
"B c #bcc7ad",
"e c #bcc8a8",
"u c #bdc7ad",
"n c #c0c9ae",
"x c #c0cdb1",
"I c #c0ceb1",
"A c #c3cdb1",
"F c #c4cfb3",
"d c #c5cdb1",
"q c #c5d1b4",
"E c #c6d2b5",
"m c #c7cfb3",
"Q c #c7d1b4",
"P c #c9d3b5",
"L c #c9d4b5",
"S c #cbceb6",
"t c #cbd4b5",
"T c #ccd6b5",
"j c #cdd5b5",
"H c #cdd8b8",
"N c #cdd9b8",
"D c #ced5b6",
"l c #ced6b7",
"p c #ced7b7",
"K c #ced9b8",
"C c #cfd9b8",
"M c #cfdaba",
"s c #d1d8b8",
"h c #d1d9b8",
"G c #d1daba",
"O c #d1ddbc",
"i c #d2daba",
"k c #d3dabd",
"f c #d3ddbc",
". c #d6d8bb",
"R c #d7dbc1",
"J c #d8e0be",
"g c #d9dcbc",
"c c #dde3c3",
"b c #e5e6ca",
"a c #e7e8cb",
"....#####",
"aabcde###",
"bbbccfe##",
"gghiijde#",
"kkllmdno#",
"pppqnnrro",
"sstqurvwo",
"sstqxryzo",
"sstqAuyzo",
"sstqAuBzo",
"CDDqAxBwo",
"CDDEAxBzo",
"CDDEAxBwo",
"CDDEAxBwo",
"CCDEFxxwo",
"GCCEEAxvo",
"GCCHEFxwo",
"GfCHHEIvo",
"fffHHEqvo",
"fffHHHqvo",
"JJJGKHLro",
"JJJfMHNuo",
"JJJffKNuo",
"JJJJOMNro",
"JJJJfMNro",
"JJJJOMNro",
"JJJJMKNro",
"JJJJMMNro",
"PQQQFERro",
"SSSSSTRro"};
