/* XPM */
static char *dummy[]={
"9 30 53 1",
". c None",
"s c #b9beaa",
"u c #bac1ac",
"B c #c0c7b1",
"q c #c4c9b1",
"G c #c4cbb3",
"x c #c6cbb3",
"X c #c6ceb6",
"v c #c8cdb4",
"N c #c8d1b7",
"j c #c9cdb4",
"S c #cad1b7",
"# c #cbceb5",
"Y c #cbceb6",
"C c #cbd1b7",
"w c #ccd0b7",
"y c #ccd1b7",
"a c #cdd0b7",
"H c #ced2b8",
"O c #ced3b9",
"b c #cfd2b8",
"D c #cfd3b9",
"Q c #cfd5b9",
"l c #d0d2b9",
"r c #d0d3b9",
"V c #d0d6ba",
"z c #d2d5b9",
"I c #d2d6ba",
"n c #d3d5b9",
"k c #d3d6ba",
"t c #d4d6ba",
"A c #d4d7bb",
"T c #d4d9bc",
"o c #d6d7bb",
"p c #d6d8bb",
"g c #d6d8bd",
"J c #d6d9bc",
"E c #d7dabd",
"W c #d7dbbd",
"m c #d9dabd",
"F c #d9dbbd",
"L c #d9dcbe",
"K c #dadcbf",
"M c #daddbf",
"h c #dbdcbf",
"P c #dbdec0",
"R c #dddec1",
"c c #dedfc2",
"U c #dee0c2",
"d c #e1e2c4",
"i c #e2e1c4",
"e c #e5e6ca",
"f c #e7e8cb",
".....#aab",
"...aacdef",
"..agchiee",
".jklmmmmm",
".j#nnnnop",
"qr#lllnno",
"qqjallnno",
"sqjallnto",
"uqvwllnto",
"uqvblntop",
"uxybztApp",
"BvyrkAApg",
"BCDrtAppp",
"BCDrtAppp",
"BCDrAApEF",
"BCDkAppEF",
"GHIAJJEFK",
"GHIAJEFLM",
"NOIAJELMP",
"NQIJELLRR",
"SQTJLLMRR",
"SQAJLMPRU",
"NVTWLMRUU",
"XVTWMPRUU",
"XVTWMMPUU",
"XVTWLMPRR",
"XQTWLWLKK",
"XQTktAAJE",
"XQQzvYwww",
"XQQzYYYww"};
