/* XPM */
static char *dummy[]={
"1 3 2 1",
". c #66667e",
"# c #fbfcfd",
".",
"#",
"."};
