/* XPM */
static char *dummy[]={
"21 23 80 2",
"Qt c None",
".x c #591b30",
"## c #642136",
".# c #848ca2",
".b c #9198aa",
"#m c #9ca4b9",
".a c #be3f3b",
"#i c #c23f4b",
"#f c #db5b54",
"#j c #db5d53",
"#l c #df6157",
"#g c #df6257",
"#k c #e16154",
"#d c #e66457",
"#h c #e76557",
".8 c #e7685c",
"#e c #e86659",
"#b c #ea6a5d",
".9 c #ec6b5d",
"#n c #eceaea",
"#. c #ef6e60",
"#c c #ef6f5f",
".6 c #f07060",
"#a c #f17062",
".1 c #f27562",
".7 c #f37563",
".4 c #f47664",
".S c #f67a67",
".5 c #f77b68",
".3 c #f97d6a",
".h c #f9e9b6",
".X c #fa7c67",
".g c #fae9b6",
".f c #faebb7",
".O c #fb7d68",
".2 c #fb7e68",
".K c #fb7f6b",
".0 c #fb806b",
".R c #fb816e",
".W c #fb826c",
".L c #fb826e",
".P c #fc806d",
".s c #fcc69d",
".T c #fd8068",
".Q c #fe826f",
".V c #fe836e",
".N c #fe8671",
".I c #fe8a71",
".r c #fec59c",
".U c #ff816a",
".Y c #ff8269",
".Z c #ff826a",
".H c #ff8470",
".M c #ff8870",
".J c #ff8975",
".B c #ff8c75",
".C c #ff8d77",
".D c #ff907c",
".E c #ff917e",
".t c #ff947c",
".u c #ff947e",
".G c #ff967e",
".v c #ff9e87",
".l c #ffa186",
".m c #ffa28a",
".w c #ffa790",
".i c #ffab90",
".n c #ffab96",
".y c #ffad8f",
".A c #ffae91",
".j c #ffaf97",
".z c #ffb08f",
".o c #ffbaa0",
".p c #ffc2a0",
".c c #ffc3aa",
".q c #ffc7a2",
".k c #ffcba4",
".d c #ffd5b7",
".e c #ffe3b9",
".F c #ffffff",
"QtQtQtQtQtQtQtQtQtQtQtQtQtQtQtQtQtQtQtQtQt",
"QtQtQtQtQtQtQtQtQtQtQtQtQtQtQtQtQtQtQtQtQt",
"Qt.#.a.a.a.a.a.a.a.a.a.a.a.a.a.a.a.a.a.#Qt",
".b.a.c.d.e.f.g.h.h.g.h.h.g.h.h.f.e.d.c.a.b",
".a.i.j.j.k.k.k.k.k.k.k.k.k.k.k.k.k.j.j.i.a",
".a.l.m.n.o.p.q.r.s.q.r.s.q.r.s.p.o.n.m.l.a",
".a.t.u.v.w.x.x.y.z.A.y.z.A.y.x.x.w.v.u.t.a",
".a.B.C.D.E.F.F.x.G.G.G.G.G.x.F.F.G.D.C.B.a",
".a.H.I.J.I.F.F.F.x.I.I.I.x.F.F.F.I.J.I.H.a",
".a.K.L.M.N.N.F.F.F.x.N.x.F.F.F.N.N.M.L.K.a",
".a.O.P.Q.R.R.R.F.F.F.x.F.F.F.R.R.R.R.P.O.a",
".a.S.T.U.V.W.W.W.F.F.F.F.F.W.W.W.W.U.T.S.a",
".a.S.X.Y.Z.0.0.0.x.F.F.F.x.0.0.0.0.Y.X.S.a",
".a.1.S.2.O.3.3.x.F.F.F.F.F.x.3.3.3.2.S.1.a",
".a.1.4.5.5.5.x.F.F.F.5.F.F.F.x.5.5.5.4.1.a",
".a.6.6.7.4.x.F.F.F.4.4.4.F.F.F.x.4.7.6.6.a",
".a.8.9#.##.F.F.F#a#a#a#a#a.F.F.F###..9.8.a",
".a.8.8#b#c.F.F#c#c#c#c#c#c#c.F.F#c#b.8.8.a",
".a.8#d#e#b#b#b#b#b#b#b#b#b#b#b#b#b#e#d.8.a",
".a#f#f#g#h.8.8.8.8.8.8.8.8.8.8.8.8#g#f#f.a",
".a#i#f#j#k#l#l#l#l#l#l#l#l#l#l#l#l#j#f#i.a",
"#m.a#i#i#i#i#i#i#i#i#i#i#i#i#i#i#i#i#i.a#m",
"#n#m.a.a.a.a.a.a.a.a.a.a.a.a.a.a.a.a.a#m#n"};
