/* XPM */
static char *dummy[]={
"21 23 42 1",
". c None",
"y c #94949c",
"a c #a9adb9",
"N c #aaadb9",
"# c #b7bbc4",
"B c #b8b7c8",
"L c #bdbed2",
"J c #c3c5d4",
"K c #c6c9d3",
"H c #cacbd8",
"I c #cbccda",
"G c #cccedb",
"F c #ceceda",
"E c #d0d0dc",
"D c #d1d1dc",
"C c #d2d3df",
"A c #d4d5de",
"z c #d4d6e0",
"x c #d6d7e1",
"w c #d7d8e2",
"v c #dadbe3",
"u c #dadbe4",
"t c #dcdee5",
"s c #dddee7",
"r c #dedee7",
"q c #e0e0e9",
"p c #e1e1e7",
"b c #e1e1e9",
"l c #e2e2e9",
"o c #e2e2ea",
"n c #e3e3e8",
"m c #e4e4eb",
"h c #e5e5ec",
"k c #e6e6ed",
"j c #e7e7ed",
"i c #e9e9ef",
"M c #efeeee",
"g c #f0eff4",
"e c #f3f2f6",
"f c #f4f3f7",
"c c #fdfdfd",
"d c #ffffff",
".....................",
".....................",
".#aaaaaaaaaaaaaaaaa#.",
"#abcdddddddddddddcba#",
"abeeeeeeeeeeeeeeeeeba",
"afgggggggggggggggggfa",
"ahiiiiiiiiiiiiiiiiiha",
"ahjjjjjjjjjjjjjjjjjha",
"akhhhhhhhhhhhhhhhhhka",
"aklllllllllllllllllka",
"amnnnnnnnnnnnnnnnnnma",
"aopppppppppppppppppoa",
"aqrrrrrrrrrrrrrrrrrqa",
"astttttttttttttttttsa",
"auvvvvvvvvvvvvvvvvvua",
"awxxdyyyyyyyxxxxxxxwa",
"azAAdBBBBBByAAAAAAAza",
"aCDDdBBBBBByDDDDDDDCa",
"aEFFddddddddFFFFFFFEa",
"aGHHHHHHHHHHHHHHHHHGa",
"aIJJJJJJJJJJJJJJJJJIa",
"KaLLLLLLLLLLLLLLLLLaK",
"MKaaaaNaNNaaaaaaaaaKM"};
