/* XPM */
static char *dummy[]={
"21 23 36 1",
". c None",
"k c #252536",
"a c #4f596f",
"H c #535c72",
"G c #5b667e",
"o c #6e6d8f",
"# c #7b8399",
"e c #8387ad",
"g c #8b8fb2",
"d c #8d90ae",
"i c #9498b9",
"f c #9c9eb5",
"l c #9da0bd",
"h c #a1a3bb",
"j c #a6a9be",
"p c #a7abc5",
"m c #aeb0c3",
"q c #b1b3c7",
"r c #b2b4cd",
"s c #babbce",
"t c #bdbed3",
"u c #bfc1d2",
"w c #c0c0d4",
"y c #c3c4d5",
"C c #c6c6db",
"v c #c6c7db",
"A c #c7c7d9",
"D c #cdcde1",
"x c #ced0e1",
"E c #d3d1e4",
"z c #d6d6e6",
"b c #d8d7e9",
"B c #dbdbe9",
"c c #ece9f8",
"F c #fefbff",
"n c #ffffff",
".....................",
".....................",
".#aaaaaaaaaaaaaaaaa#.",
"#abcccccccccccccccba#",
"abdddddddddddddddddba",
"aefffffffffffffffffea",
"aghhhhhhhhhhhhhhhhhga",
"aijjjkkkkkkkkkkkjjjia",
"almmnooooooooookmmmla",
"apqqnooooooooookqqqpa",
"arssnknnnnnnnnnksssra",
"atuunkuuuuuuuunkuuuta",
"avwwnkwwwwwwwwnkwwwva",
"axyynkyyyyyyyynkyyyxa",
"azAAnkAAAAAAAAnkAAAza",
"aBCCnkCCCCCCCCnkCCCBa",
"aBDDnkDDDDDDDDnkDDDBa",
"aBEEnkkkkkkkkkkkEEEBa",
"aBbbnnnnnnnnnnnnbbbBa",
"aFcccccccccccccccccFa",
"abFFFFFFFFFFFFFFFFFba",
"#Gbnnnnnnnnnnnnnnnba#",
".#aaaaHaHHaaaaaaaaa#."};
