/* XPM */
static char *dummy[]={
"21 23 40 1",
". c None",
"j c #252536",
"a c #5f6a85",
"m c #6e6d8f",
"# c #8088a0",
"I c #8488b1",
"K c #a1a9c0",
"J c #a2a4c6",
"H c #b0b1cd",
"F c #b7b9d2",
"D c #bebed8",
"G c #bfc2df",
"E c #c4c8e1",
"B c #c6c8dd",
"z c #cccde2",
"C c #cccee5",
"A c #d0d1e8",
"x c #d5d7e9",
"y c #d5d7ec",
"v c #dbdced",
"u c #dbdded",
"w c #dcddf0",
"s c #dfdff1",
"b c #e0dff3",
"t c #e0e1f4",
"q c #e5e6f4",
"r c #e6e7f7",
"d c #e9e7fb",
"o c #eaeaf8",
"n c #eaeaf9",
"p c #eaeafa",
"e c #ecebfb",
"g c #ededfc",
"k c #eeeefd",
"l c #f1f1fd",
"h c #f5f4fd",
"i c #f6f4fd",
"f c #faf9fe",
"L c #fffefe",
"c c #ffffff",
".....................",
".....................",
".#aaaaaaaaaaaaaaaaa#.",
"#abcccccccccccccccba#",
"adcccccccccccccccccda",
"accccccccccccccccccca",
"aefffffffffffffffffea",
"aghhijjjjjjjjjjjhhhga",
"akllcmmmmmmmmmmjlllka",
"alnncmmmmmmmmmmjnnnla",
"akoocjcccccccccjoooka",
"apqqcjqqqqqqqqcjqqqpa",
"arsscjsssssssscjsssra",
"atuucjuuuuuvuucjuvuta",
"awxxcjxxxxxxxxcjxxxwa",
"ayzzcjzzzzzzzzcjzzzya",
"aABBcjBBBBBBBBcjBBBAa",
"aCDDcjjjjjjjjjjjDDDCa",
"aEFFccccccccccccFFFEa",
"aGHHHHHHHHHHHHHHHHHGa",
"aIJJJJJJJJJJJJJJJJJIa",
"KaIIIIIIIIIIIIIIIIIaK",
"LKaaaaaaaaaaaaaaaaaKL"};
