/* XPM */
static char *dummy[]={
"21 23 41 1",
". c None",
"j c #252536",
"p c #454556",
"a c #5f6a85",
"m c #6e6d8f",
"# c #8088a0",
"J c #8488b1",
"L c #a1a9c0",
"K c #a2a4c6",
"I c #b0b1cd",
"G c #b7b9d2",
"E c #bebed8",
"H c #bfc2df",
"F c #c4c8e1",
"C c #c6c8dd",
"A c #cccde2",
"D c #cccee5",
"B c #d0d1e8",
"y c #d5d7e9",
"z c #d5d7ec",
"w c #dbdced",
"v c #dbdded",
"x c #dcddf0",
"t c #dfdff1",
"b c #e0dff3",
"u c #e0e1f4",
"r c #e5e6f4",
"s c #e6e7f7",
"d c #e9e7fb",
"o c #eaeaf8",
"n c #eaeaf9",
"q c #eaeafa",
"e c #ecebfb",
"g c #ededfc",
"k c #eeeefd",
"l c #f1f1fd",
"h c #f5f4fd",
"i c #f6f4fd",
"f c #faf9fe",
"M c #fffefe",
"c c #ffffff",
".....................",
".....................",
".#aaaaaaaaaaaaaaaaa#.",
"#abcccccccccccccccba#",
"adcccccccccccccccccda",
"accccccccccccccccccca",
"aefffffffffffffffffea",
"aghhihhcjjjjjjjhhhhga",
"aklllllcmmmmmmjllllka",
"alnnnnncccccccjnnnnla",
"akooopjjjjjjocjooooka",
"aqrrcjmmmmmjrcjrrrrqa",
"asttcjcccccjtcjttttsa",
"auvvcjvvvvcjcjjvvwvua",
"axyycjyyyycjcccyyyyxa",
"azAAcjAAAAcjAAAAAAAza",
"aBCCcjjjjjjjCCCCCCCBa",
"aDEEccccccccEEEEEEEDa",
"aFGGGGGGGGGGGGGGGGGFa",
"aHIIIIIIIIIIIIIIIIIHa",
"aJKKKKKKKKKKKKKKKKKJa",
"LaJJJJJJJJJJJJJJJJJaL",
"MLaaaaaaaaaaaaaaaaaLM"};
