/* XPM */
static char *dummy[]={
"21 23 48 1",
". c None",
"n c #252536",
"u c #424252",
"a c #6b758f",
"T c #6c7690",
"r c #6e6d8f",
"# c #848ca2",
"P c #8589b0",
"Q c #9c9ebe",
"R c #9ca4b9",
"O c #a7a8c2",
"M c #acaec6",
"L c #adaec6",
"J c #b2b2ca",
"N c #b2b5d0",
"K c #b6b9d1",
"H c #b8b9ce",
"F c #bcbdd1",
"I c #bcbed4",
"G c #bfc1d6",
"D c #c3c4d6",
"E c #c3c5d9",
"B c #c8c9d9",
"C c #c8c9db",
"A c #c8cad9",
"y c #cbcbdc",
"z c #cbccde",
"b c #cccbdd",
"w c #cfd0dd",
"x c #d0d1e0",
"e c #d2d1e3",
"t c #d3d3e0",
"s c #d3d3e1",
"v c #d3d3e2",
"i c #d5d4e3",
"k c #d5d5e3",
"o c #d6d6e4",
"p c #d8d8e5",
"q c #d8d8e6",
"l c #dcdbe7",
"m c #dddbe7",
"j c #e0dfea",
"S c #e4e3e3",
"h c #e9e8f1",
"g c #edebf3",
"f c #f2f1f7",
"c c #fbfbfc",
"d c #ffffff",
".....................",
".....................",
".#aaaaaaaaaaaaaaaaa#.",
"#abcdddddddddddddcba#",
"aefffffffffffffffffea",
"aghhhhhhhhhhhhhhhhhga",
"aijjjjjjjjjjjjjjjjjia",
"akllmlldnnnnnnnllllka",
"aopqpppdrrrrrrnqqppoa",
"apsssssdddddddnsssspa",
"aotttunnnnnntdnttttoa",
"avwwdnrrrrrnwdnwwwwva",
"axyydndddddnydnyyyyxa",
"azAAdnAAAAdndnnAABAza",
"aCDDdnDDDDdndddDDDDCa",
"aEFFdnFFFFdnFFFFFFFEa",
"aGHHdnnnnnnnHHHHHHHGa",
"aIJJddddddddJJJJJJJIa",
"aKLLMLLLLLLLLMLLLLMKa",
"aNOOOOOOOOOOOOOOOOONa",
"aPQQQQQQQQQQQQQQQQQPa",
"RaPPPPPPPPPPPPPPPPPaR",
"SRaaaaTaTTaaaaaaaaaRS"};
