/* XPM */
static char *dummy[]={
"1 30 25 1",
". c #babac5",
"w c #cccbd9",
"c c #d7d7e3",
"d c #d9d9e5",
"e c #dbdde6",
"f c #dcdde8",
"h c #dedfea",
"g c #dee0e6",
"i c #e3e6e8",
"b c #e4e5ed",
"j c #e6e8ed",
"k c #e8e9f1",
"v c #eaedf5",
"# c #eceef5",
"m c #edf0f3",
"l c #eeeeee",
"n c #f4f3f5",
"o c #f6f6f6",
"p c #f8f8f9",
"q c #fafafb",
"r c #fbfbfc",
"s c #fcfcfd",
"u c #fdfffc",
"t c #fefdfe",
"a c #ffffff",
".",
"#",
"a",
"#",
"b",
"c",
"c",
"d",
"e",
"f",
"f",
"g",
"h",
"i",
"b",
"j",
"k",
"l",
"m",
"n",
"o",
"p",
"q",
"r",
"s",
"t",
"a",
"u",
"v",
"w"};
