/* XPM */
static char *dummy[]={
"3 3 3 1",
"a c #477bc4",
". c #4f88d6",
"# c #6497db",
"..#",
"..#",
"aaa"};
