/* XPM */
static char *dummy[]={
"21 23 48 1",
". c None",
"b c #3966ad",
"a c #3a67ad",
"d c #3b69ae",
"T c #3b6aae",
"P c #3c6baf",
"f c #3d6bae",
"k c #3e6caf",
"K c #3f6caf",
"# c #4582d5",
"c c #4988d7",
"Q c #5d96dc",
"L c #5d97dc",
"O c #6198dd",
"R c #649bde",
"I c #659cde",
"G c #699edf",
"M c #699fdf",
"N c #6ba0e0",
"E c #6da0df",
"J c #6fa2e0",
"C c #71a2e0",
"H c #72a4e1",
"A c #74a4e0",
"S c #74a4e1",
"g c #75a4e1",
"F c #76a7e1",
"y c #77a7e1",
"D c #7ba9e2",
"w c #7eabe2",
"B c #7eabe3",
"l c #80abe3",
"z c #82aee4",
"j c #83aee4",
"i c #86afe4",
"u c #87b0e4",
"n c #87b0e5",
"o c #89b0e5",
"x c #89b1e5",
"m c #8ab2e5",
"s c #8cb3e5",
"h c #8db4e6",
"q c #8fb4e5",
"v c #92b7e6",
"p c #93b7e7",
"t c #96b9e8",
"r c #98bbe8",
"e c #9ebfe9",
".....................",
".....................",
".....................",
"..#abbbbbbbbbbbbba#..",
".cdeeeeeeeeeeeeeeedc.",
".fghijjjjjjjjjjjihgf.",
".klmnnnnnnnnnnnnnmlk.",
".kopppppppppppppppok.",
".kqrrrbbrrrrrbbrrrqk.",
".kstttbbbtttbbbettsk.",
".kuvvvvbbbvbbbeevvuk.",
".kwxxxxxbbbbbeexxxwk.",
".kyzzzzzzbbbeezzzzyk.",
".kABBBBBbbbbbBBBBBAk.",
".kCDDDDbbbebbbDDDDCk.",
".kEFFFbbbeeFbbbFFFEk.",
".kGHHHbbeeHHHbbeHHGk.",
".kIJJJJeeJJJJJeeJJIk.",
".KLMNNNNNNNNNNNNNMLK.",
".OPQRIIIIIIIIIIIRQPO.",
".SedTTTTTTTTTTTTTdeS.",
"..heeeeeeeeeeeeeeeh..",
"....................."};
