/* XPM */
static char *dummy[]={
"21 23 43 1",
". c None",
"a c #2f548f",
"J c #4c89d7",
"# c #4f88d6",
"k c #538fda",
"g c #5592da",
"m c #5792da",
"o c #5b95db",
"q c #6097dc",
"c c #6199dd",
"s c #659add",
"j c #699fdf",
"u c #6a9ede",
"i c #6a9fdf",
"l c #6ba0e0",
"K c #6d9ede",
"h c #6da1e0",
"n c #6fa2e0",
"w c #70a0df",
"N c #74a4e1",
"p c #74a5e1",
"f c #77a7e1",
"H c #78a5e0",
"y c #78a6e1",
"r c #78a8e2",
"e c #7ba9e2",
"t c #7eabe3",
"L c #80abe3",
"M c #83ade4",
"v c #83aee4",
"B c #84ade3",
"d c #84afe4",
"x c #89b1e5",
"D c #8bb0e4",
"F c #8db2e5",
"O c #8db4e6",
"z c #92b7e6",
"I c #99bbe8",
"C c #9ebee9",
"A c #a1c1ea",
"E c #a5c2ea",
"G c #a7c4eb",
"b c #b9d0ef",
".....................",
".....................",
".....................",
"..#aaaaaaaaaaaaaaa#..",
".#abbbbbbbbbbbbbbba#.",
".acdefffffffffffedca.",
".aghijjjjjjjjjjjihga.",
".aklllllllllllllllka.",
".amnnnnnnnnnnnnnnnma.",
".aopppppppppppppppoa.",
".aqrrrrrrrrrrrrrrrqa.",
".astttttttttttttttsa.",
".auvvvvvvvvvvvvvvvua.",
".awxxxaaaaaaaxxxxxwa.",
".ayzzzaaaaaaaAzzzzya.",
".aBCCCaaaaaaaACCCCBa.",
".aDEEEEAAAAAAAEEEEDa.",
".aFGGGGGGGGGGGGGGGFa.",
".aHICCCCCCCCCCCCCIHa.",
".JaKLMMMMMMMMMMMLKaJ.",
".NbaaaaaaaaaaaaaaabN.",
"..ObbbbbbbbbbbbbbbO..",
"....................."};
