/* XPM */
static char *dummy[]={
"3 1 2 1",
". c #477bc4",
"# c #4f88d6",
".##"};
