/* XPM */
static char *dummy[]={
"21 23 49 1",
". c None",
"b c #3966ad",
"a c #3a67ad",
"d c #3b69ae",
"U c #3b6aae",
"Q c #3c6baf",
"f c #3d6bae",
"k c #3e6caf",
"L c #3f6caf",
"# c #4582d5",
"c c #4988d7",
"R c #5d96dc",
"M c #5d97dc",
"P c #6198dd",
"S c #649bde",
"J c #659cde",
"H c #699edf",
"N c #699fdf",
"O c #6ba0e0",
"F c #6da0df",
"K c #6fa2e0",
"D c #71a2e0",
"I c #72a4e1",
"B c #74a4e0",
"T c #74a4e1",
"g c #75a4e1",
"G c #76a7e1",
"z c #77a7e1",
"E c #7ba9e2",
"x c #7eabe2",
"C c #7eabe3",
"l c #80abe3",
"A c #82aee4",
"j c #83aee4",
"i c #86afe4",
"v c #87b0e4",
"n c #87b0e5",
"o c #89b0e5",
"y c #89b1e5",
"m c #8ab2e5",
"t c #8cb3e5",
"h c #8db4e6",
"q c #8fb4e5",
"w c #92b7e6",
"p c #93b7e7",
"u c #96b9e8",
"r c #98bbe8",
"e c #9ebfe9",
"s c #a1c1ea",
".....................",
".....................",
".....................",
"..#abbbbbbbbbbbbba#..",
".cdeeeeeeeeeeeeeeedc.",
".fghijjjjjjjjjjjihgf.",
".klmnnnnnnnnnnnnnmlk.",
".kopppbbbbbbbbbpppok.",
".kqrrrbbbbbbbbbsrrqk.",
".ktuuubbbbbbbbbsuutk.",
".kvwwwbsssssssbswwvk.",
".kxyyybsyyyyyybsyyxk.",
".kzAAAbsAAAAAAbsAAzk.",
".kBCCCbsCCCCCCbsCCBk.",
".kDEEEbsEEEEEEbsEEDk.",
".kFGGGbsGGGGGGbsGGFk.",
".kHIIIbbbbbbbbbsIIHk.",
".kJKKKKsssssssssKKJk.",
".LMNOOOOOOOOOOOOONML.",
".PQRSJJJJJJJJJJJSRQP.",
".TedUUUUUUUUUUUUUdeT.",
"..heeeeeeeeeeeeeeeh..",
"....................."};
