/* XPM */
static char *dummy[]={
"21 23 43 1",
". c None",
"a c #2f548f",
"J c #4c89d7",
"# c #4f88d6",
"k c #538fda",
"g c #5592da",
"m c #5792da",
"p c #5b95db",
"r c #6097dc",
"c c #6199dd",
"t c #659add",
"j c #699fdf",
"v c #6a9ede",
"i c #6a9fdf",
"l c #6ba0e0",
"K c #6d9ede",
"h c #6da1e0",
"n c #6fa2e0",
"x c #70a0df",
"N c #74a4e1",
"q c #74a5e1",
"f c #77a7e1",
"H c #78a5e0",
"z c #78a6e1",
"s c #78a8e2",
"e c #7ba9e2",
"u c #7eabe3",
"L c #80abe3",
"M c #83ade4",
"w c #83aee4",
"B c #84ade3",
"d c #84afe4",
"y c #89b1e5",
"D c #8bb0e4",
"F c #8db2e5",
"O c #8db4e6",
"A c #92b7e6",
"I c #99bbe8",
"C c #9ebee9",
"o c #a1c1ea",
"E c #a5c2ea",
"G c #a7c4eb",
"b c #b9d0ef",
".....................",
".....................",
".....................",
"..#aaaaaaaaaaaaaaa#..",
".#abbbbbbbbbbbbbbba#.",
".acdefffffffffffedca.",
".aghijjjjjjjjjjjihga.",
".aklllaaaaaaaaalllka.",
".amnnnaaaaaaaaaonnma.",
".apqqqaaaaaaaaaoqqpa.",
".arsssaoooooooaossra.",
".atuuuaouuuuuuaouuta.",
".avwwwaowwwwwwaowwva.",
".axyyyaoyyyyyyaoyyxa.",
".azAAAaoAAAAAAaoAAza.",
".aBCCCaoCCCCCCaoCCBa.",
".aDEEEaaaaaaaaaoEEDa.",
".aFGGGGoooooooooGGFa.",
".aHICCCCCCCCCCCCCIHa.",
".JaKLMMMMMMMMMMMLKaJ.",
".NbaaaaaaaaaaaaaaabN.",
"..ObbbbbbbbbbbbbbbO..",
"....................."};
