/* XPM */
static char *dummy[]={
"16 16 86 2",
"Qt c #4f88d6",
".k c #5089d6",
".f c #5089d7",
".# c #5189d7",
".H c #518ad8",
".g c #518bd8",
".s c #528ad8",
".a c #528bd8",
".p c #528cd9",
".z c #538bd8",
".b c #538cd9",
".t c #538dd9",
".Y c #538dda",
".I c #548dd9",
".c c #548dda",
".d c #548eda",
".e c #548edb",
".h c #548fdb",
".A c #558edb",
".u c #558fdb",
".S c #558fdc",
".l c #5590dc",
".i c #5690dc",
".j c #5691dc",
".N c #5691dd",
".m c #5791dd",
".n c #5792dd",
".J c #5892de",
".T c #5893dd",
".o c #5893de",
".v c #5894de",
".B c #5993de",
".q c #5994df",
"#h c #5995e0",
".r c #5a95df",
".w c #5a95e0",
".C c #5a96e0",
"#l c #5b96e0",
".x c #5b96e1",
".y c #5b97e1",
".D c #5c97e1",
"#b c #5c98e1",
".K c #5c98e2",
".E c #5d98e2",
".2 c #5d99e2",
".F c #5d99e3",
".G c #5e99e3",
"#m c #5e9ae4",
".Z c #5e9be4",
".8 c #5f9ae4",
".L c #5f9be4",
".O c #5f9ce4",
".M c #5f9ce5",
".U c #609be5",
"#c c #609ce5",
".3 c #609de5",
".P c #619de6",
".Q c #619ee6",
".R c #629ee6",
"#n c #629ee7",
".V c #639fe7",
".4 c #639fe8",
"#d c #63a0e7",
".W c #63a0e8",
".X c #63a1e8",
".9 c #64a1e9",
".0 c #64a2e9",
".5 c #65a2e9",
"#o c #65a2ea",
".1 c #65a3ea",
"#r c #66a4ea",
".6 c #66a4eb",
"#. c #67a4eb",
"#i c #67a5eb",
".7 c #67a5ec",
"## c #68a6ec",
"#a c #69a7ed",
"#j c #69a7ee",
"#e c #69a8ed",
"#f c #6ba9ef",
"#g c #6baaef",
"#s c #6cabf0",
"#k c #6dabf0",
"#p c #6dacf0",
"#q c #6eadf1",
"#t c #6faff3",
"QtQtQt.#.a.b.c.d.e.e.e.e.e.e.e.e",
"QtQt.f.g.b.d.h.i.i.j.j.j.j.j.j.j",
"Qt.k.g.b.d.l.m.n.o.o.o.o.o.o.o.o",
"Qt.f.p.d.l.n.o.q.r.r.r.r.r.r.r.r",
".f.s.t.u.n.v.w.x.y.y.y.y.y.y.y.y",
".f.z.A.m.B.C.D.E.F.G.G.G.G.G.G.G",
".H.I.i.J.w.K.F.L.M.M.M.M.M.M.M.M",
".a.e.N.q.D.G.O.P.Q.R.R.R.R.R.R.R",
".p.S.T.C.F.U.Q.V.W.X.X.X.X.X.X.X",
".Y.i.q.D.Z.P.W.0.1.1.1.1.1.1.1.1",
".d.n.w.2.3.4.5.6.7.7.7.7.7.7.7.7",
".u.o.y.8.Q.9#.###a#a#a#a#a#a#a#a",
".l.q#b#c#d.1###e#f#g#g#g#g#g#g#g",
".j#h.F.P.9#i#j#g#k#k#k#k#k#k#k#k",
".n#l#m#n#o###f#p#q#q#q#q#q#q#q#q",
".n#l.L.V#r#a#s#q#t#t#t#t#t#t#t#t"};
