/* XPM */
static char *dummy[]={
"1 30 25 1",
"v c #427ed2",
"a c #4f88d6",
"b c #508ad7",
"c c #518bd8",
"d c #548edb",
"e c #5691dc",
"f c #5893de",
"g c #5a95df",
"h c #5b97e1",
"w c #5c8dd4",
"i c #5e99e3",
"# c #5f9ce4",
"j c #5f9ce5",
"k c #629ee6",
"l c #63a1e8",
"m c #65a3ea",
"n c #67a5ec",
"o c #69a7ed",
"p c #6baaef",
". c #6c8cbd",
"q c #6dabf0",
"r c #6eadf1",
"s c #6faff3",
"t c #71b0f4",
"u c #72b2f5",
".",
"#",
"a",
"a",
"a",
"b",
"c",
"d",
"e",
"f",
"g",
"h",
"i",
"j",
"k",
"l",
"m",
"n",
"o",
"p",
"q",
"r",
"s",
"t",
"u",
"u",
"u",
"u",
"v",
"w"};
