/* XPM */
static char *dummy[]={
"13 30 114 2",
"Qt c None",
".Y c #2f548f",
".4 c #325791",
".D c #355a94",
".q c #3e629b",
"#U c #427ed2",
".h c #477bc4",
".b c #4a74af",
"#T c #4d84d2",
".a c #4e70a6",
".i c #4f88d6",
".y c #5089d6",
".j c #5089d7",
".Z c #508ad7",
".r c #5189d7",
".m c #518ad7",
".k c #518ad8",
".l c #518bd8",
".G c #528ad8",
"#. c #528bd7",
".s c #528bd8",
"#d c #528bd9",
".n c #528cd9",
"#S c #5389d5",
".M c #538bd8",
".o c #538cd9",
".p c #538dd9",
"## c #538dda",
".T c #548dd9",
".t c #548dda",
".u c #548eda",
".v c #548edb",
".w c #548fdb",
".N c #558edb",
".H c #558fdb",
".5 c #558fdc",
".z c #5590dc",
".x c #5690dc",
"#u c #5691dc",
".0 c #5691dd",
".A c #5791dd",
".B c #5792dd",
".U c #5892de",
".6 c #5893dd",
".C c #5893de",
".I c #5894de",
".O c #5993de",
".E c #5994df",
"#v c #5995e0",
".c c #5a81b8",
".e c #5a95db",
".F c #5a95df",
".J c #5a95e0",
".P c #5a96e0",
"#V c #5b8cd2",
"#A c #5b96e0",
".K c #5b96e1",
".L c #5b97e1",
".Q c #5c97e1",
"#p c #5c98e1",
".V c #5c98e2",
".f c #5d98e0",
".R c #5d98e2",
"#e c #5d99e2",
".S c #5d99e3",
".d c #5e8ac6",
".1 c #5e99e3",
"#B c #5e9ae4",
"#a c #5e9be4",
"#k c #5f9ae4",
".W c #5f9be4",
".g c #5f9ce4",
".X c #5f9ce5",
".7 c #609be5",
"#q c #609ce5",
"#f c #609de5",
".2 c #619de6",
".3 c #619ee6",
"#C c #629ee7",
".8 c #639fe7",
"#g c #639fe8",
"#r c #63a0e7",
".9 c #63a0e8",
"#l c #64a1e9",
"#b c #64a2e9",
"#h c #65a2e9",
"#D c #65a2ea",
"#c c #65a3ea",
"#G c #66a4ea",
"#i c #66a4eb",
"#m c #67a4eb",
"#w c #67a5eb",
"#j c #67a5ec",
"#n c #68a6ec",
"#o c #69a7ed",
"#x c #69a7ee",
"#s c #69a8ed",
"#J c #6aa8ee",
"#t c #6ba9ef",
"#y c #6baaef",
".# c #6c8cbd",
"#H c #6cabf0",
"#z c #6dabf0",
"#E c #6dacf0",
"#K c #6dacf1",
"#F c #6eadf1",
"#P c #6eaef2",
"#L c #6faff2",
"#I c #6faff3",
"#N c #70b0f3",
"#M c #70b0f4",
"#Q c #71b1f4",
"#O c #71b1f5",
"#R c #72b2f5",
"QtQtQtQtQtQtQt.#.#.#.#.#.#",
"QtQtQtQtQt.a.a.b.c.d.e.f.g",
"QtQtQtQt.a.h.i.i.i.i.i.i.i",
"QtQtQt.a.h.i.i.i.i.i.i.i.i",
"QtQt.a.h.i.i.i.i.i.i.i.i.i",
"Qt.a.h.i.i.i.i.i.i.j.k.l.l",
"Qt.a.i.i.i.i.i.i.m.l.n.o.p",
".q.h.i.i.i.i.i.r.s.o.t.u.v",
".q.i.i.i.i.i.j.l.o.u.w.x.x",
".q.i.i.i.i.y.l.o.u.z.A.B.C",
".D.i.i.i.i.j.n.u.z.B.C.E.F",
".D.i.i.i.j.G.p.H.B.I.J.K.L",
".D.i.i.i.j.M.N.A.O.P.Q.R.S",
".D.i.i.y.k.T.x.U.J.V.S.W.X",
".Y.i.i.Z.s.v.0.E.Q.1.g.2.3",
".4.i.i.k.n.5.6.P.S.7.3.8.9",
".Y.i.i#.##.x.E.Q#a.2.9#b#c",
".Y.i.i#d.u.B.J#e#f#g#h#i#j",
".Y.i.i.n.H.C.L#k.3#l#m#n#o",
".Y.i.i.p.z.E#p#q#r#c#n#s#t",
".Y.i.i.t#u#v.S.2#l#w#x#y#z",
".Y.i.i.u.B#A#B#C#D#n#t#E#F",
".Y.i.i.N.B#A.W.8#G#o#H#F#I",
".Y.i.i.H.C.Q.X.9#m#J#K#L#M",
".Y.i.i.H.C.Q#q#l#j#t#F#N#O",
".Y.i.i.5.C.V#q#b#n#y#P#Q#R",
".Y.i.i.5.C.V#q#b#n#y#P#Q#R",
".Y.i.i.5.C.V#q#b#n#y#P#Q#R",
".Y#S#S#S#S#S#S#S#S#S#T#U#U",
".Y.i.i.i.i.i.i.i#S#V#V#V#V"};
