/* XPM */
static char *dummy[]={
"39 4 4 1",
"b c #4f53bc",
"a c #6d74cd",
". c #7586dc",
"# c #7587dd",
".......................................",
"#######################################",
"aaaaaaaaaaaaaaaaaaaaaaaaaaaaaaaaaaaaaaa",
"bbbbbbbbbbbbbbbbbbbbbbbbbbbbbbbbbbbbbbb"};
