/* XPM */
static char *dummy[]={
"39 5 16 1",
"n c #00138c",
"l c #001da0",
"m c #001da1",
"j c #001ea0",
"k c #001ea1",
"i c #002dbe",
"f c #002dbf",
"g c #002ebe",
"h c #002ebf",
"c c #003ddc",
"e c #003ddd",
"d c #003edc",
"b c #003edd",
"# c #0048f1",
"a c #0441d8",
". c #074fea",
".######################################",
"abcccdeccedbccbcbceeccecdecceccedececee",
"fgghhhgiiiiffhgihgfhigfhiifigfggifggfhg",
"jjkjjlljlklkjmjkkmmjmkkjjkjjkjjjjmjkkkk",
"nnnnnnnnnnnnnnnnnnnnnnnnnnnnnnnnnnnnnnn"};
