/* XPM */
static char *dummy[]={
"21 23 284 2",
"Qt c None",
"cj c #a62b0d",
"cn c #a93012",
"cm c #a93214",
"bZ c #aa2300",
".2 c #aa3315",
"cl c #ab3112",
"cg c #ab3c1f",
"ck c #ac3011",
"co c #ac3213",
"#g c #ac3618",
"cy c #ac3c1f",
"cp c #ad3213",
"#P c #ad391c",
"#w c #ad3a1d",
"cx c #ae2400",
"cq c #ae3110",
"#Z c #ae391b",
"bG c #af2601",
"an c #af3516",
"a. c #af3719",
"bp c #b02702",
"aA c #b03312",
"cv c #b12803",
"cu c #b12a06",
"ba c #b12b06",
"aZ c #b12d0a",
"cr c #b1300d",
"cs c #b22e0a",
"aM c #b2310f",
"cw c #b42701",
"ct c #b42d08",
"ci c #b54428",
".K c #b64b30",
".# c #b7c6f0",
"cf c #c22a00",
"b1 c #cc3813",
"b2 c #cc3e1b",
"b0 c #cd4928",
"b3 c #cf4421",
"b6 c #cf4624",
"b4 c #cf4725",
"b5 c #cf4726",
".J c #d04623",
"b7 c #d04723",
".q c #d05334",
"bY c #d12f00",
"ce c #d13001",
"b8 c #d14621",
"b9 c #d2451e",
".1 c #d24a28",
"#f c #d24c2a",
"#O c #d34d2a",
"#E c #d34d2c",
"#v c #d34e2c",
"#Y c #d44c29",
"cd c #d53504",
"cb c #d53d0e",
"c# c #d54216",
"c. c #d5451b",
"#9 c #d54a25",
"bF c #d63302",
"cc c #d63909",
"ca c #d64013",
"az c #d6461c",
"am c #d64921",
"bo c #d73605",
"b# c #d73b0b",
"aL c #d74216",
"bH c #d8370e",
"aY c #d83f10",
"bI c #db431c",
".p c #dc451f",
"bq c #dd3c14",
"bJ c #dd4c28",
"bb c #de4018",
"bK c #de522f",
"a0 c #df451e",
"#D c #df522e",
"#u c #df5330",
"bL c #df5533",
"bX c #e03802",
"aN c #e04b25",
".o c #e04d28",
"#X c #e05029",
"#N c #e0512c",
"bN c #e05531",
".I c #e05532",
"bO c #e05631",
"#e c #e05634",
"bM c #e05734",
"#8 c #e14f25",
"aB c #e14f2b",
"bc c #e1512e",
"br c #e15431",
"bP c #e1562e",
".0 c #e15937",
"#V c #e24b22",
"#U c #e24d24",
"#W c #e24d25",
"al c #e24e21",
"#L c #e24e27",
"#M c #e2502a",
"#C c #e2522d",
".n c #e25330",
"ao c #e25432",
"bQ c #e2552a",
"#t c #e25531",
".m c #e25633",
"#B c #e25634",
"a1 c #e25836",
"ay c #e34c1c",
"#6 c #e34c20",
"#7 c #e34d22",
"#K c #e35836",
"a# c #e35937",
"#r c #e35938",
"bs c #e35b39",
"#q c #e35b3a",
"#d c #e35c3a",
".l c #e35c3b",
"#0 c #e35d3c",
"aO c #e35e3d",
"bE c #e43d05",
"bW c #e43e07",
"aX c #e44713",
"aK c #e44a18",
"#5 c #e44f23",
"bS c #e4501f",
"#4 c #e45127",
"bR c #e45325",
"#J c #e45d3d",
"bv c #e45e3b",
"bt c #e45e3d",
"bu c #e45f3d",
".k c #e45f3e",
"#A c #e45f40",
"#p c #e45f41",
".H c #e4603f",
".i c #e46142",
"#I c #e46143",
"a2 c #e46242",
".Z c #e46343",
".j c #e46344",
"#o c #e46446",
"#z c #e46447",
"bn c #e54009",
"bV c #e5430d",
"bU c #e54813",
"bT c #e54c19",
"aj c #e54d1e",
"ak c #e54d1f",
"ai c #e55022",
"ah c #e55326",
"ag c #e5572c",
"bx c #e55e37",
"bw c #e55e39",
"#F c #e56546",
".h c #e56648",
"af c #e56747",
"aP c #e56748",
"a3 c #e56749",
".G c #e56849",
"#c c #e5684a",
"#b c #e5684b",
"#n c #e5684d",
"ap c #e5694b",
".Y c #e56a4c",
"#3 c #e56b4e",
"b. c #e6440d",
"ax c #e64d1c",
"aw c #e64e1c",
"by c #e65d32",
"bg c #e6643d",
"bf c #e66541",
"be c #e66543",
"a4 c #e66845",
".g c #e66a4d",
"aC c #e66b4e",
"at c #e66c4d",
"aQ c #e66c4e",
"aR c #e66d50",
"#a c #e66d51",
".F c #e66e50",
"aE c #e66e51",
"ae c #e66e52",
".X c #e66f52",
"#2 c #e66f53",
"aJ c #e74d18",
"av c #e75221",
"au c #e75526",
"bz c #e75b2c",
"bh c #e76238",
"a6 c #e7643b",
"aT c #e7653c",
"aF c #e7653d",
"a5 c #e76741",
"aS c #e76842",
"aa c #e76d51",
"#m c #e76d53",
"#T c #e76e54",
"#h c #e76f52",
"aD c #e76f53",
"## c #e76f54",
"aq c #e77054",
".f c #e77155",
"ar c #e77156",
"ad c #e77157",
".E c #e77256",
"#l c #e77259",
"#. c #e77359",
"bD c #e8440b",
"aW c #e84c16",
"aH c #e85421",
"bA c #e85725",
"bi c #e86032",
"a7 c #e86235",
"aU c #e86236",
"as c #e87055",
"ab c #e87257",
"ac c #e87359",
".3 c #e87458",
".W c #e87459",
"#S c #e8745b",
".D c #e87559",
"#1 c #e8765d",
".V c #e8775d",
"#H c #e8775e",
".9 c #e8785e",
".C c #e8795e",
".B c #e8795f",
"#Q c #e87a60",
"#R c #e87c62",
".T c #e87e65",
"bm c #e9480e",
"a9 c #e94a11",
"bC c #e95019",
"bB c #e9541f",
"bj c #e95c2a",
".e c #e97b60",
".U c #e97b61",
".A c #e97c62",
".8 c #e97d64",
"#G c #e97e65",
".L c #e97f65",
".z c #e97f66",
".S c #e98168",
"bk c #ea5924",
"a8 c #ea5e2d",
".y c #ea8168",
".7 c #ea836a",
".R c #ea856d",
".x c #ea876e",
"cz c #ead4cf",
"#x c #eb876e",
"#y c #eb8a70",
".6 c #eb8a71",
".Q c #eb8b72",
".d c #eb8b73",
".w c #eb8d75",
".s c #ec8d76",
"#i c #ec9179",
".P c #ec917a",
"#j c #ec937c",
"aV c #ed7144",
"aI c #ed7449",
".5 c #ed957f",
".v c #ee9a85",
".O c #ee9d89",
"ch c #eed6d0",
".4 c #efa18d",
".t c #efa390",
".r c #efd8d2",
".u c #f0a694",
".M c #f0a997",
".N c #f1ac9a",
"#s c #f3bbad",
"bd c #f5c1b5",
".a c #f5f7fd",
"bl c #f7b8a1",
"#k c #f7ccc2",
".c c #fae1dc",
"aG c #fef5f1",
".b c #ffffff",
"QtQtQtQtQtQtQtQtQtQtQtQtQtQtQtQtQtQtQtQtQt",
"QtQtQtQtQtQtQtQtQtQtQtQtQtQtQtQtQtQtQtQtQt",
"Qt.#.a.b.b.b.b.b.b.b.b.b.b.b.b.b.b.b.b.#Qt",
".#.c.d.e.f.g.h.i.j.k.k.l.l.m.m.n.o.p.q.r.#",
".b.s.t.u.v.w.x.y.z.A.B.C.D.E.F.G.H.I.J.K.a",
".b.L.M.N.O.P.Q.R.S.T.A.U.V.W.X.Y.Z.0.1.2.b",
".b.3.O.4.5.6.7.8.9#.###a#b#c.j.H#d#e#f#g.b",
".b#h#i#j.6#k.b#l#m#n#o#p#q#r.b#s#t#u#v#w.b",
".b.g#x#y.7.b.b.b#n#z#A#q#B.b.b.b#C#D#E#w.b",
".b#F.S.7#G#H.b.b.b#I#J#K.b.b.b#L#M#N#O#P.b",
".b#F#Q#R#Q#S#T.b.b.b#d.b.b.b#U#V#W#X#Y#Z.b",
".b#0.W.V#1#l#2#3.b.b.b.b.b#4#5#6#7#8#9a..b",
".ba#aaabacadae.gaf.b.b.bagahaiajakalaman.b",
".baoapaqaras#hat.b.b.b.b.bauavawaxayazaA.b",
".baB.jaC#haDaE.b.b.baF.b.baGaHaIaJaKaLaM.b",
".baNaOaPaQaR.b.b.baSaTaU.b.b.baVaWaXaYaZ.b",
".ba0a1a2a3.b.b.ba4a5a6a7a8.b.b.ba9b.b#ba.b",
".bbbbc#da2bd.bbebfbgbhbibjbk.bblbmbnbobp.b",
".bbqaNbrbsbtbubvbwbxbybzbAbBbCa9bDbEbFbG.b",
".bbHbIbJbKbLbMbNbObPbQbRbSbTbUbVbWbXbYbZ.b",
".ab0b1b2b3b4b5b6b7b8b9c.c#cacbcccdcecfcg.b",
".#chcicjckclcmcncocpcqcrcsctcucvcwcxcycz.#",
"Qt.#.b.b.b.b.b.b.b.b.b.b.b.b.b.b.b.b.a.#Qt"};
