/* XPM */
static char *dummy[]={
"21 23 146 2",
"Qt c None",
".K c #002452",
".e c #002453",
"#b c #002555",
".f c #002557",
".g c #002658",
"#j c #00275a",
".h c #00285c",
"#r c #00295f",
".i c #002a61",
".v c #002a62",
"#C c #002b63",
".j c #002d67",
"#J c #002d68",
".k c #002f6b",
".l c #002f6c",
".w c #003070",
".L c #003170",
"#T c #003172",
".m c #003273",
".x c #003275",
".0 c #003377",
".n c #003478",
".o c #00357b",
"#7 c #00367e",
".p c #00377f",
".q c #003780",
"#k c #003781",
"ab c #003881",
".s c #003882",
".y c #003883",
".r c #003984",
"#s c #003985",
".z c #003a88",
"#D c #003b8a",
".M c #003b8b",
".N c #003c8f",
".A c #003d8f",
"#c c #003d90",
".1 c #003d92",
".B c #003e90",
".O c #003e94",
"#O c #003f93",
"#l c #003f95",
".2 c #003f97",
".C c #004094",
"#U c #004095",
".P c #004099",
"#d c #00409c",
"#t c #00419b",
".3 c #00419d",
".D c #004299",
".Q c #00429d",
"#e c #0042a1",
".E c #00439b",
"#E c #00439f",
".4 c #0043a1",
"#u c #0043a2",
"#3 c #00449d",
".F c #00449e",
".R c #0044a2",
"#f c #0044a5",
"#v c #0044a6",
".G c #00459f",
".I c #0045a0",
".H c #0045a1",
"#K c #0045a3",
".5 c #0045a4",
"#F c #0045a5",
"#m c #0045a9",
"ac c #0046a1",
"ak c #0046a2",
".S c #0046a5",
"#g c #0046a8",
"#n c #0046aa",
"#P c #0047a7",
".6 c #0047a8",
"#h c #0047aa",
"#G c #0047ab",
"#o c #0047ac",
".T c #0048a8",
"#V c #0048aa",
".7 c #0048ab",
"#w c #0048ad",
".U c #0049ab",
"#i c #0049ac",
".8 c #0049ad",
"#x c #0049ae",
".V c #004aac",
".W c #004aad",
".9 c #004aae",
"#y c #004aaf",
".Z c #004bad",
".X c #004bae",
".Y c #004baf",
"#p c #004bb0",
"#. c #004cb0",
"#z c #004cb1",
"## c #004db1",
"#a c #004db2",
"ad c #004eb2",
"#q c #004eb3",
"#A c #004fb3",
"#B c #004fb4",
"#H c #0050b5",
"#I c #0051b6",
"#L c #0052b7",
"#M c #0053b8",
"aa c #0054b8",
"#N c #0054b9",
"#Z c #0055b9",
"#Q c #0055ba",
"#R c #0056bb",
"#S c #0057bc",
"ah c #0058bc",
"#W c #0058bd",
"#9 c #0059bd",
"#X c #0059be",
"a# c #005abe",
"#Y c #005abf",
"ai c #005bc0",
"ae c #005cc0",
"#0 c #005cc1",
"#1 c #005dc2",
"#2 c #005ec3",
"af c #005fc3",
"#5 c #005fc4",
"ag c #0060c4",
"#6 c #0060c5",
"#8 c #0061c6",
"a. c #0062c6",
".d c #1f3b5f",
"aj c #1f5294",
".t c #1f5295",
".J c #1f5aa8",
"an c #1f5ba9",
"al c #1f66be",
"ao c #1f66bf",
"#4 c #78a2d8",
".# c #b7c6f0",
".c c #cfd3da",
"am c #cfdae8",
".u c #cfdae9",
"ap c #cfdef1",
".a c #f5f7fd",
".b c #ffffff",
"QtQtQtQtQtQtQtQtQtQtQtQtQtQtQtQtQtQtQtQtQt",
"QtQtQtQtQtQtQtQtQtQtQtQtQtQtQtQtQtQtQtQtQt",
"Qt.#.a.b.b.b.b.b.b.b.b.b.b.b.b.b.b.b.a.#Qt",
".#.c.d.e.f.g.h.i.j.k.l.m.n.o.p.q.r.s.t.u.#",
".a.d.v.w.x.n.p.y.z.A.B.C.D.E.F.G.H.I.H.J.a",
".b.K.L.s.M.N.O.P.Q.R.S.T.U.V.W.X.X.Y.X.Z.b",
".b.e.0.M.1.2.3.4.5.6.7.8.9#.#######a#a#a.b",
".b#b.o#c.2#d#e#f#g#h.U#i.9.Y#.#####a#a#a.b",
".b#j#k#l.3#e#f#m#n#o.8.9#p#########q#a#a.b",
".b#r#s#t#u#v#n#o#w#x#y#z#a#q#A#B#B#B#q#a.b",
".b#C#D#E#F#g#G#x#x#y#z#a#B#H#H#I#H#H#B#q.b",
".b#J.A#K.6#G#w#y#p#z#q#H#L#M#N#N#M#M#I#B.b",
".b.l#O#P.7#i#x.Y#z#q#H#L#Q#R#S#S#R#Q#M#H.b",
".b#T#U#V#i.8.9#.#a#H#L#Q#W#X#Y#Y#X#W#Q#I.b",
".b.0.D#i.9.9#p###B#L#Z#S#Y#0#1#2#0#Y#R#I.b",
".b.o#3.Z#.#4#4#4#4#4#4#4#0#2#5#6#2#0#W#L.b",
".b#7.F.X###4#4#4#4#4#4#4#1#5#6#8#5#1#9#M.b",
".b#k.I.X###4#4#4#4#4#4#4#1#5#8a.#6#2a#aa.b",
".babac.X####ad#q#H#M#R#Xae#2af#6ag#1#X#M.b",
".b.y.H.Y#a#a#q#q#H#M#Qah#Y#0#1#2#1ai#S#I.b",
".aajak.Y#a#a#a#a#B#I#M#Q#S#W#X#Y#X#S#Nal.a",
".#aman.Z#a#a#a#a#q#B#H#I#L#L#M#N#M#Laoap.#",
"Qt.#.a.b.b.b.b.b.b.b.b.b.b.b.b.b.b.b.a.#Qt"};
