/* XPM */
static char *dummy[]={
"21 23 366 2",
"Qt c None",
"c6 c #3e70e3",
"c7 c #3f66cf",
"cv c #3f66d0",
"dH c #3f69d1",
"dG c #3f6cd4",
"do c #3f6ddc",
"dn c #3f72e3",
"cP c #3f72e5",
"c5 c #3f77eb",
"ch c #4066d0",
"dF c #406cd2",
"cu c #4072e5",
"dm c #4176e6",
"cO c #4178ec",
"b5 c #4266cf",
"dE c #426dd2",
"ct c #4279eb",
"c4 c #427aec",
"bQ c #4366cf",
"dD c #436fd4",
"cg c #4372e4",
"dl c #4378e6",
"#f c #4461c7",
"dC c #4470d3",
"cf c #4479eb",
"cN c #447ded",
"bw c #4566ce",
"dB c #4570d2",
"b4 c #4573e4",
"cs c #457ded",
"#x c #4663c8",
"bc c #4666cc",
"du c #466fce",
"cS c #4676ea",
"dk c #4679e5",
"b3 c #4679ea",
"ce c #467dec",
"dA c #4770d2",
"bP c #4773e3",
"cM c #4780ee",
"aV c #4866cc",
"dy c #4871cf",
"dw c #4871d0",
"dv c #4872d1",
"bO c #4879e9",
"dj c #487be6",
"bN c #487beb",
"b2 c #487deb",
"c3 c #4880ed",
"cr c #4881ed",
"#P c #4965c9",
"#7 c #4966ca",
"ao c #4966cb",
"dx c #4971cf",
"dz c #4971d1",
"d# c #4977e2",
"cy c #4978ec",
"b1 c #497fec",
"cd c #4980ed",
".z c #4a71e3",
"bv c #4a73e2",
"bu c #4a77e9",
"bt c #4a79ea",
"ck c #4a79ec",
"bs c #4a7aea",
"di c #4a7ce5",
"bM c #4a7ceb",
".V c #4b6edc",
"aS c #4b76e9",
"b# c #4b77e9",
"b. c #4b78ea",
"c2 c #4b82ed",
"cL c #4b83ee",
"bb c #4c73e1",
"aB c #4c75e8",
"aT c #4c76e8",
"ba c #4c77e8",
"dh c #4c7ce5",
"br c #4c7cea",
"cc c #4c82ed",
"cq c #4c84ed",
"aA c #4d75e8",
"aR c #4d77e9",
"a9 c #4d79e9",
"b8 c #4d79eb",
"da c #4d7ae2",
"cT c #4d7cea",
"bL c #4d7eeb",
"b0 c #4d80eb",
"#e c #4e6fdc",
"dp c #4e71ce",
"aU c #4e72e0",
"dI c #4e73cf",
"aC c #4e75e8",
".y c #4e76e6",
"dg c #4e7ce3",
"c1 c #4e83ec",
"cK c #4e85ee",
"#w c #4f70dd",
"ak c #4f75e8",
"az c #4f76e8",
"aQ c #4f78e9",
"a8 c #4f7bea",
"df c #4f7ce3",
"bq c #4f7deb",
"bK c #4f80eb",
"#O c #5071de",
"an c #5072df",
"aE c #5073df",
"aD c #5076e6",
"al c #5076e8",
"bT c #507beb",
"db c #507ce4",
"bZ c #5081ec",
"cb c #5084ed",
"cp c #5086ed",
"#6 c #5172df",
"am c #5176e6",
"#3 c #5176e7",
"#4 c #5176e8",
"aP c #517ae9",
"dd c #517ce3",
"de c #517de3",
"cz c #517eed",
"c0 c #5184ec",
"cJ c #5186ee",
".W c #526dcd",
"#N c #5275e5",
"#5 c #5275e6",
"ay c #5278e8",
"bz c #527ceb",
"dc c #527de3",
"a7 c #527dea",
".U c #5376e4",
"#M c #5377e7",
"aj c #5378e8",
".x c #537ae7",
"dt c #537bd5",
"d. c #537ee3",
"bp c #537fea",
"cU c #5380eb",
"bJ c #5381eb",
"bY c #5383eb",
"co c #5387ed",
".A c #5475dc",
"#v c #5476e5",
"#L c #5477e7",
".w c #547be7",
"cZ c #5484ec",
"ca c #5485ec",
"cI c #5487ee",
"#K c #5578e7",
"#2 c #5579e7",
"ax c #557ae8",
".v c #557ce7",
"aO c #557ce9",
"bf c #557dea",
"cl c #5580ec",
"cY c #5584ec",
"#d c #5677e4",
"ai c #567ae8",
"a6 c #567ee9",
"bo c #5680ea",
"cV c #5682eb",
"#J c #5779e7",
"#u c #577ae6",
"aX c #577de9",
"bI c #5783ea",
"cA c #5783ec",
"cH c #5787ed",
"#I c #587ae7",
"#1 c #587ae8",
"aw c #587be8",
"aN c #587de9",
"cW c #5883eb",
".u c #597fe8",
"a5 c #5980e9",
"b9 c #5982ec",
"cX c #5983eb",
"#t c #5a7be7",
".T c #5a7ce6",
"ah c #5a7ce8",
"aF c #5a7fe9",
".t c #5a80e8",
"bn c #5a82ea",
"cG c #5a87ed",
"#H c #5b7ce8",
"bH c #5b84ea",
"cm c #5b84ec",
"cB c #5b85ec",
"cF c #5b87ed",
"#c c #5c7de6",
"av c #5c7de9",
"aM c #5c7fe9",
"a4 c #5c81e9",
"bU c #5c83eb",
"cE c #5c87ed",
"#s c #5d7de7",
"ag c #5d7ee8",
".r c #5d82e8",
".s c #5d83e8",
"bm c #5d83ea",
"cD c #5d86ed",
"cC c #5d87ed",
"#G c #5e7fe8",
"bG c #5e85ea",
"#0 c #5f7fe9",
"au c #5f80e9",
".S c #5f81e6",
"a3 c #5f82e9",
"a. c #5f83e9",
"bA c #5f84eb",
"c. c #5f85ec",
"cn c #5f87ec",
"#r c #6080e7",
"af c #6080e9",
"bl c #6084ea",
".q c #6085e8",
"bF c #6086ea",
"#b c #6180e7",
"bV c #6186eb",
"#F c #6281e9",
"#Z c #6282e9",
"aL c #6283e9",
"a2 c #6284e9",
"#S c #6285ea",
"bk c #6286ea",
".p c #6287e9",
"c# c #6287ec",
"#q c #6382e8",
"ae c #6383e9",
".R c #6384e7",
"bE c #6387eb",
"#a c #6483e7",
"#A c #6487e9",
"aY c #6487ea",
"bB c #6487eb",
"bW c #6488ec",
"#p c #6584e8",
"#Y c #6584e9",
"#E c #6585e8",
"aK c #6585e9",
"a1 c #6586e9",
"bj c #6587ea",
"bD c #6588eb",
".Q c #6686e8",
"at c #6686ea",
"bi c #6687ea",
"bg c #6688ea",
"bC c #6688eb",
".o c #668be9",
"## c #6786e8",
"ad c #6786ea",
".P c #6788e8",
"a0 c #6788ea",
"bh c #6788eb",
"#h c #6789e9",
"aZ c #6789ea",
"#o c #6887e9",
"aJ c #6888ea",
"aG c #6889ea",
"#. c #6988e8",
"#X c #6988e9",
"as c #6988ea",
"ac c #6a89ea",
".O c #6a8ae8",
"#n c #6a8ae9",
"aI c #6a8aea",
".N c #6a8be8",
"aH c #6a8bea",
".9 c #6b8ae8",
"#D c #6b8be9",
".8 c #6c8be8",
"#W c #6c8bea",
".M c #6c8ce8",
"aq c #6c8cea",
".n c #6c8fea",
".7 c #6d8ce8",
"#m c #6d8ce9",
"ar c #6d8deb",
".L c #6e8de8",
"ab c #6e8dea",
".Z c #6e8fe9",
".6 c #6f8ee9",
".K c #6f8fe9",
"#l c #708fe9",
"#V c #708fea",
"a# c #708feb",
"aa c #7190ea",
".5 c #7290e9",
".J c #7292e9",
"#T c #7392eb",
"#U c #7393ea",
"#k c #7492e9",
".4 c #7493e9",
".m c #7597eb",
".I c #7695e9",
".E c #7696ea",
"#B c #7896ea",
".3 c #7996e9",
"#C c #7a96ea",
"#j c #7b97e9",
".H c #7e9be9",
".2 c #809bea",
"#i c #829cea",
".F c #849fea",
".G c #86a1ea",
".0 c #87a1ea",
".1 c #88a2ea",
".C c #9ba7e2",
".j c #9eaee4",
".k c #9eb4e7",
".# c #a0b7e9",
"dK c #a2b2ec",
"dR c #a2b4ec",
"dL c #a3bbee",
".B c #a4b0e4",
"dr c #a4bcee",
"dJ c #a7b7e9",
"ds c #a8bdec",
".l c #aabded",
".X c #b5bbe9",
"#g c #b9bdea",
".a c #b9c9ef",
"#y c #babeea",
"#Q c #babeeb",
"#8 c #babfeb",
"ap c #bbc0ec",
"bd c #bbc0ed",
".Y c #bbc7ed",
"#z c #bbc7ee",
".D c #bbc8ee",
"dQ c #bbc8f1",
"bx c #bcc1ee",
"bR c #bcc3ee",
"b6 c #bcc4ef",
"#9 c #bcc6ee",
".i c #bcc7ed",
"#R c #bcc7ee",
"aW c #bcc7ef",
".h c #bcc8ed",
".g c #bcc8ee",
".f c #bcc9ee",
"c9 c #bccdf2",
"ci c #bdc6f0",
"be c #bdc8ef",
"by c #bdc9f0",
".e c #bdcaee",
".d c #bdcaef",
".c c #bdcbef",
".b c #bdccf0",
"cw c #bec6f0",
"cQ c #bec7f1",
"c8 c #bec9f2",
"bS c #becaf1",
"dq c #becaf2",
"b7 c #becbf1",
"cj c #beccf2",
"dP c #bfccf2",
"dO c #bfcdf2",
"dN c #bfcdf3",
"cx c #bfcef2",
"dM c #bfcef3",
"cR c #bfcff3",
"bX c #ffffff",
"QtQtQtQtQtQtQtQtQtQtQtQtQtQtQtQtQtQtQtQtQt",
"QtQtQtQtQtQtQtQtQtQtQtQtQtQtQtQtQtQtQtQtQt",
"Qt.#.a.b.b.b.c.c.c.c.c.d.e.e.f.g.h.i.i.jQt",
".k.l.m.n.o.p.q.r.s.t.t.u.u.v.w.x.y.z.A.B.C",
".D.E.F.G.H.I.J.K.L.M.N.O.P.Q.R.S.T.U.V.W.X",
".Y.Z.0.1.2.3.4.5.6.7.8.9#.###a#b#c#d#e#f#g",
".Y#h.2#i#j#k#l#m#n#o#p#q#r#r#s#t#u#v#w#x#y",
"#z#A#B#C#k.6#D#o#E#F#G#H#I#J#K#L#M#N#O#P#Q",
"#R#S#T#U#V#W#X#Y#Z#0#H#1#2#M#3#4#4#5#6#7#8",
"#9a.a#aaabacadaeafagahaiaj#4akakalamanaoap",
"#9a.aqar#Wasat#ZauavawaxayazaAaBaCaDaEaoap",
"#RaFaGaHaIaJaKaLauaMaNaOaPaQaRaSaT.yaUaVap",
"aWaXaYaZaGa0a1a2a3a4a5a6a7a8a9b.b#babbbcbd",
"bebf#Sbgbhbibjbkblbmbnbobpbqbrbsbtbubvbwbx",
"bybzbAbBbCbCbDbEbFbGbHbIbJbKbLbMbNbObPbQbR",
"bSbTbUbVbWbXbXbXbXbXbXbXbYbZb0b1b2b3b4b5b6",
"b7b8b9c.c#bXbXbXbXbXbXbXcacbcccdcecfcgchci",
"cjckclcmcnbXbXbXbXbXbXbXcocpcqcrcsctcucvcw",
"cxcyczcAcBcCcDcEcFcGcHcIcJcKcLcMcNcOcPcvcQ",
"cRcScTcUcVcWcXcAcAcYcZc0c1c2c3csc4c5c6c7c8",
"c9d.d#dadbdcdcdddedfdgdhdidjdkdldmdndodpdq",
"drdsdtdudvdwdxdydzdzdAdBdCdDdEdFdGdHdIdJdK",
"QtdLcRcRcRcRcRcRdMdMdNdOdOdOdPdPdPdPdQdRQt"};
