/* XPM */
static char *dummy[]={
"5 31 5 1",
". c #5b68cd",
"# c #7480dc",
"a c #7589de",
"c c #758cdc",
"b c #758cdd",
".#abc",
".#abc",
".#abc",
".#abc",
".#abc",
".#abc",
".#abc",
".#abc",
".#abc",
".#abc",
".#abc",
".#abc",
".#abc",
".#abc",
".#abc",
".#abc",
".#abc",
".#abc",
".#abc",
".#abc",
".#abc",
".#abc",
".#abc",
".#abc",
".#abc",
".#abc",
".#abc",
".#abc",
".#abc",
".#abc",
".#abc"};
