/* XPM */
static char *dummy[]={
"4 31 10 1",
". c #0019cf",
"e c #0731d8",
"h c #0731d9",
"g c #0732d9",
"# c #0734da",
"f c #0831d8",
"d c #0831d9",
"b c #0855dd",
"c c #0934da",
"a c #166aee",
".#ab",
".cab",
".dab",
".eab",
".eab",
".fab",
".eab",
".fab",
".dab",
".gab",
".fab",
".gab",
".fab",
".dab",
".dab",
".dab",
".dab",
".dab",
".dab",
".dab",
".hab",
".hab",
".hab",
".hab",
".hab",
".dab",
".eab",
".dab",
".gab",
".dab",
".dab"};
