/* XPM */
static char *dummy[]={
"4 31 16 1",
". c #00138c",
"c c #001da0",
"i c #001da1",
"g c #001ea0",
"l c #001ea1",
"# c #0021a9",
"h c #002dbe",
"f c #002dbf",
"j c #002ebe",
"d c #002ebf",
"a c #002fc4",
"b c #003bda",
"e c #003ddc",
"m c #003ddd",
"k c #003edc",
"n c #003edd",
".#ab",
".cde",
".cfe",
".gde",
".ghe",
".ijk",
".lhm",
".cje",
".gfe",
".gdm",
".gfe",
".gje",
".lfk",
".lfk",
".lfk",
".lfk",
".lfk",
".lfk",
".ijn",
".lhe",
".lhe",
".cjm",
".gfm",
".gdk",
".ljn",
".cdn",
".lhe",
".ghe",
".idk",
".gde",
".che"};
