/* XPM */
static char *dummy[]={
"21 23 143 2",
"Qt c None",
".# c None",
".a c #b7c6f0",
".b c #f5f7fd",
".L c #002452",
".f c #002453",
"#c c #002555",
".g c #002557",
".h c #002658",
"#i c #00275a",
".i c #00285c",
"#n c #00295f",
".j c #002a61",
".w c #002a62",
"#z c #002b63",
".k c #002d67",
"#F c #002d68",
".l c #002f6b",
".m c #002f6c",
".x c #003070",
".M c #003170",
"#P c #003172",
".n c #003273",
".y c #003275",
".1 c #003377",
".o c #003478",
".p c #00357b",
"#5 c #00367e",
".q c #00377f",
".r c #003780",
"#j c #003781",
"a# c #003881",
".t c #003882",
".z c #003883",
".s c #003984",
"#o c #003985",
".A c #003a88",
"#A c #003b8a",
".N c #003b8b",
".O c #003c8f",
".B c #003d8f",
"#d c #003d90",
".2 c #003d92",
".C c #003e90",
".P c #003e94",
"#K c #003f93",
"#k c #003f95",
".3 c #003f97",
".D c #004094",
"#Q c #004095",
".Q c #004099",
"#e c #00409c",
"#p c #00419b",
".4 c #00419d",
".E c #004299",
".R c #00429d",
"#f c #0042a1",
".F c #00439b",
"#B c #00439f",
".5 c #0043a1",
"#q c #0043a2",
"#1 c #00449d",
".G c #00449e",
".S c #0044a2",
"#g c #0044a5",
"#r c #0044a6",
".H c #00459f",
".J c #0045a0",
".I c #0045a1",
"#G c #0045a3",
".6 c #0045a4",
"#C c #0045a5",
"#l c #0045a9",
"aa c #0046a1",
"ah c #0046a2",
".T c #0046a5",
"#s c #0046aa",
"#L c #0047a7",
".7 c #0047a8",
"#t c #0047ac",
".U c #0048a8",
"#R c #0048aa",
".8 c #0048ab",
"#u c #0048ad",
".V c #0049ab",
"#S c #0049ac",
".9 c #0049ad",
"#v c #0049ae",
".W c #004aac",
".X c #004aad",
"#. c #004aae",
"#w c #004aaf",
".0 c #004bad",
".Y c #004bae",
".Z c #004baf",
"#W c #004bb0",
"## c #004cb0",
"#x c #004cb1",
"#a c #004db1",
"#b c #004db2",
"#2 c #004eb2",
"#m c #004eb3",
"#y c #004fb4",
"#D c #0050b5",
"#E c #0051b6",
"#H c #0052b7",
"#I c #0053b8",
"a. c #0054b8",
"#J c #0054b9",
"#X c #0055b9",
"#M c #0055ba",
"#N c #0056bb",
"#O c #0057bc",
"ae c #0058bc",
"#T c #0058bd",
"#7 c #0059bd",
"#V c #0059be",
"#9 c #005abe",
"#U c #005abf",
"af c #005bc0",
"ab c #005cc0",
"#Y c #005cc1",
"#Z c #005dc2",
"#0 c #005ec3",
"ac c #005fc3",
"#3 c #005fc4",
"ad c #0060c4",
"#4 c #0060c5",
"#6 c #0061c6",
"#8 c #0062c6",
".e c #1f3b5f",
"ag c #1f5294",
".u c #1f5295",
".K c #1f5aa8",
"ak c #1f5ba9",
"ai c #1f66be",
"al c #1f66bf",
"#h c #78a2d8",
".d c #cfd3da",
"aj c #cfdae8",
".v c #cfdae9",
"am c #cfdef1",
".c c #ffffff",
"QtQtQtQtQtQtQtQtQtQtQtQtQtQtQtQtQtQtQtQtQt",
"QtQtQtQtQtQtQtQtQtQtQtQtQtQtQtQtQtQtQtQtQt",
".#.a.b.c.c.c.c.c.c.c.c.c.c.c.c.c.c.c.b.a.#",
".a.d.e.f.g.h.i.j.k.l.m.n.o.p.q.r.s.t.u.v.a",
".b.e.w.x.y.o.q.z.A.B.C.D.E.F.G.H.I.J.I.K.b",
".c.L.M.t.N.O.P.Q.R.S.T.U.V.W.X.Y.Y.Z.Y.0.c",
".c.f.1.N.2.3.4.5.6.7.8.9#.###a#a#a#b#b#b.c",
".c#c.p#d.3#e#f#g#h#h#h#h#h#h#h#a#a#b#b#b.c",
".c#i#j#k.4#f#g#l#h#h#h#h#h#h#h#a#a#m#b#b.c",
".c#n#o#p#q#r#s#t#u#v#w#x#b#m#h#y#y#y#m#b.c",
".c#z#A#B#C#h#h#h#h#h#h#h#y#D#h#E#D#D#y#m.c",
".c#F.B#G.7#h#h#h#h#h#h#h#H#I#h#J#I#I#E#y.c",
".c.m#K#L.8#h#v.Z#x#m#D#h#M#N#h#O#N#M#I#D.c",
".c#P#Q#R#S#h#.###b#D#H#h#T#h#h#U#V#T#M#E.c",
".c.1.E#S#.#h#W#a#y#H#X#h#U#Y#Z#0#Y#U#N#E.c",
".c.p#1.0###h#a#2#D#I#N#h#Y#0#3#4#0#Y#T#H.c",
".c#5.G.Y#a#h#h#h#h#h#h#h#Z#3#4#6#3#Z#7#I.c",
".c#j.J.Y#a#a#2#y#E#J#O#U#Z#3#6#8#4#0#9a..c",
".ca#aa.Y#a#a#2#m#D#I#N#Vab#0ac#4ad#Z#V#I.c",
".c.z.I.Z#b#b#m#m#D#I#Mae#U#Y#Z#0#Zaf#O#E.c",
".bagah.Z#b#b#b#b#y#E#I#M#O#T#V#U#V#O#Jai.b",
".aajak.0#b#b#b#b#m#y#D#E#H#H#I#J#I#Halam.a",
".#.a.b.c.c.c.c.c.c.c.c.c.c.c.c.c.c.c.b.a.#"};
