/* XPM */
static char *dummy[]={
"21 23 288 2",
"Qt c None",
".# c #6486de",
".a c #b7c6f0",
".b c #f5f7fd",
"b4 c #003ab9",
"cB c #003bbe",
"ck c #0045d3",
"b3 c #004de2",
"bM c #013dbe",
"cA c #013fc3",
"cj c #014ee2",
"bu c #023fbf",
"bL c #0253e6",
"b2 c #025af0",
"cz c #033fc0",
"ci c #0454e6",
"bt c #0556e7",
"bK c #0560f4",
"bb c #0641c0",
"b1 c #0760f3",
"cy c #0844c3",
"ch c #0958e6",
"bs c #0963f4",
"a3 c #0a44bf",
"cx c #0a45c1",
"ba c #0b59e7",
"bJ c #0b68f7",
"co c #0d3fb6",
"cw c #0d45c0",
"b# c #0d66f4",
"bN c #0e50ed",
"cg c #0e5be5",
"br c #0e6cf8",
"aM c #0f47c0",
"cv c #1045be",
"a2 c #105de8",
"cp c #1144bd",
"b. c #116df7",
"bI c #116ef8",
"cs c #1244b9",
"cq c #1245bb",
"ax c #1248bf",
"ct c #1345bc",
"cu c #1346bd",
"b6 c #134fdf",
"cf c #135de6",
"a1 c #1369f4",
"b0 c #136af4",
"cr c #1445b9",
"bv c #1456f3",
".3 c #1546b9",
"bq c #1573f8",
"aj c #1649be",
"ce c #165ee5",
"aL c #165fe7",
"a0 c #166ff7",
"a9 c #1773f8",
"#h c #1848bb",
"bc c #1859f3",
"aK c #186af4",
"aJ c #186ef7",
"#7 c #194bbe",
"bZ c #196df4",
"bH c #1972f7",
"aZ c #1973f7",
"#Y c #1b4bbd",
"b7 c #1b55df",
"cd c #1b5fe5",
"aI c #1b71f7",
"#Q c #1c4cbd",
"bO c #1c5bef",
"aw c #1c61e6",
"av c #1c6af4",
"au c #1c6df6",
"at c #1c6ff6",
"#s c #1d4cbc",
"bp c #1d77f8",
"a4 c #1e5df3",
"cc c #1e5ee2",
"af c #1e6bf6",
"a8 c #1e77f8",
"cl c #1f4eb8",
"cC c #1f4eb9",
".q c #1f5def",
"ag c #1f6af6",
"bY c #1f6ff3",
"bG c #1f76f7",
"#3 c #2069f6",
"aY c #2077f7",
"b8 c #215ae2",
"cb c #215ee2",
"ai c #2162e6",
"ah c #216af3",
"aH c #2174f7",
"#U c #2266f5",
"#4 c #2268f5",
".K c #235ce3",
"ca c #235ee2",
"c# c #245ce1",
"bo c #247af8",
"b9 c #255ce1",
"#6 c #2562e6",
"aN c #2562f3",
"bw c #2562f4",
"#V c #2567f5",
"#5 c #2569f2",
"bX c #2570f3",
"bF c #2577f7",
"a7 c #257af8",
"c. c #265de0",
"ae c #266ff6",
"aG c #2677f7",
"aX c #2679f8",
"#M c #2766f5",
"#2 c #276cf5",
"cn c #2856c3",
"b5 c #285edf",
".2 c #285fe3",
"bP c #2863f0",
".p c #2864f4",
"#T c #2869f5",
"#X c #2963e4",
"#W c #2968f2",
"#g c #2a61e3",
"#P c #2a62e4",
"#N c #2a68f5",
"bW c #2a70f2",
"bn c #2a7cf8",
"ay c #2b66f4",
"#L c #2b69f5",
"#r c #2c62e4",
"#A c #2c63e5",
"#O c #2c69f2",
"#x c #2c69f5",
"#1 c #2c6ff5",
"ad c #2c72f6",
"bE c #2c78f7",
"#y c #2d69f5",
"#S c #2d6bf5",
"as c #2d76f6",
"aF c #2d7af7",
"aW c #2d7cf7",
"a6 c #2d7df7",
"bd c #2e68f4",
"#z c #2e69f2",
"bV c #2e6ff2",
"bQ c #2f68f0",
"#K c #2f6bf5",
".L c #305cc5",
"#q c #3069f1",
".o c #306af4",
"#p c #316bf4",
"bT c #316cf2",
"bU c #316df2",
".J c #326bf2",
"ak c #326bf4",
"#o c #326cf4",
"bD c #3278f6",
"bm c #327df7",
"bR c #336bf1",
".n c #336cf4",
".r c #3467e0",
"bS c #346cf1",
"#f c #346cf2",
"#J c #366ef4",
".1 c #376ef2",
"#8 c #376ef4",
"bC c #3777f5",
"bl c #387df6",
"bx c #3971f4",
"bB c #3976f5",
"be c #3a71f4",
"#e c #3a72f4",
".m c #3b71f5",
"bA c #3b75f5",
"ac c #3b77f5",
"#Z c #3c72f4",
"ar c #3c7af6",
"aV c #3c7ff6",
"#I c #3d71f5",
"aO c #3d73f4",
"by c #3d74f5",
"bz c #3d74f6",
"bk c #3d7df6",
"aE c #3d7ef6",
".l c #3e73f5",
".I c #3f75f5",
"ab c #4179f6",
"bj c #417cf6",
".j c #4276f5",
"bf c #4277f5",
"aq c #427cf6",
"aU c #427ff6",
"#H c #4375f5",
".0 c #4377f5",
"bi c #437bf6",
"aD c #437ff6",
".k c #4478f5",
"bh c #457af6",
"#B c #4679f5",
"bg c #467af5",
"aa c #477bf6",
"aT c #477ff6",
".i c #487af5",
"aP c #487bf5",
"ap c #487df6",
"aC c #487ff6",
"a5 c #497bf5",
".H c #497cf5",
"#G c #4a79f6",
"#d c #4a7cf5",
"#c c #4b7cf5",
"al c #4b7df5",
"aS c #4b80f6",
".Z c #4c7ef6",
".h c #4d7ef6",
"ao c #4d80f6",
"aB c #4d81f7",
"az c #4e7ff6",
"aQ c #4e80f6",
"aR c #4e81f6",
"#F c #507ef6",
".G c #5082f6",
"#b c #5180f6",
"#9 c #5181f6",
"aA c #5182f6",
"a# c #5281f6",
"#i c #5282f6",
".Y c #5283f6",
"#w c #5480f7",
"#a c #5482f6",
"am c #5483f6",
".g c #5584f6",
"an c #5684f7",
".F c #5685f6",
"#E c #5783f7",
"a. c #5785f7",
".4 c #5886f6",
"#n c #5985f7",
"## c #5986f7",
".X c #5987f6",
".E c #5988f6",
"#v c #5b86f7",
"#0 c #5d89f7",
".W c #5d8af7",
"#D c #5e89f7",
"#. c #5e8af7",
".D c #5e8bf7",
".C c #5f8cf7",
"#m c #608bf7",
".f c #608cf7",
".V c #618df7",
"#u c #628cf8",
"#R c #628df8",
".B c #628ef7",
".9 c #648ef7",
".U c #658ff7",
"#C c #658ff8",
".M c #6590f7",
".A c #6690f7",
"#l c #6791f8",
".z c #6892f7",
".T c #6892f8",
".8 c #6a93f8",
".S c #6d95f8",
".y c #6e97f8",
"#t c #7099f8",
".7 c #7199f8",
".R c #729af8",
".e c #739af8",
".x c #759cf8",
".t c #769cf8",
"#j c #799ff8",
".Q c #7aa0f8",
"#k c #7ca1f8",
".6 c #7fa3f8",
".w c #85a7f8",
".P c #89aaf9",
".5 c #8dadf9",
".u c #90aff9",
".v c #94b2f9",
".N c #97b4f9",
".O c #9ab7fa",
"cD c #cfd8ed",
"cm c #d0daf1",
".s c #d2dbf2",
".d c #dce5fd",
".c c #ffffff",
"QtQtQtQtQtQtQtQtQtQtQtQtQtQtQtQtQtQtQtQtQt",
"QtQtQtQtQtQtQtQtQtQtQtQtQtQtQtQtQtQtQtQtQt",
".#.a.b.c.c.c.c.c.c.c.c.c.c.c.c.c.c.c.c.a.#",
".a.d.e.f.g.h.i.j.k.l.l.m.m.n.n.o.p.q.r.s.a",
".c.t.u.v.w.x.y.z.A.B.C.D.E.F.G.H.I.J.K.L.b",
".c.M.N.O.P.Q.R.S.T.U.B.V.W.X.Y.Z.0.1.2.3.c",
".c.4.P.5.6.7.8.9#.###a#b#c#d.k.I#e#f#g#h.c",
".c#i#j#k.7#l#m#n.c.c.c.c.c.c.c#o#p#q#r#s.c",
".c.h.y#t.8#u#v#w.c.c.c.c.c.c.c#x#y#z#A#s.c",
".c#B.T.8#C#D#E#F#G#H#I#J#K#L.c#M#N#O#P#Q.c",
".c#B.f#R#m.c.c.c.c.c.c.c#S#T.c#U#V#W#X#Y.c",
".c#Z.X.W#0.c.c.c.c.c.c.c#1#2.c#3#4#5#6#7.c",
".c#8#9a.##.ca#.haaabac.cadae.cafagahaiaj.c",
".cakalaman.c#iaoapaqar.cas.c.catauavawax.c",
".cay.kaz#i.caAaBaCaDaE.caFaGaHaIaJaKaLaM.c",
".caNaOaPaQ.caRaSaTaUaV.caWaXaYaZa0a1a2a3.c",
".ca4#J.ja5.c.c.c.c.c.c.ca6a7a8a9b.b#babb.c",
".cbcbdbebfbgbhbibjbkblbmbnbobpbqbrbsbtbu.c",
".cbvbw#pbxbybzbAbBbCbDbEbFbGbHbIbJbKbLbM.c",
".cbNbObPbQbRbSbTbUbVbWbXbYbZb0b#b1b2b3b4.c",
".bb5b6b7b8b9c.c#cacbcccdcecfcgchcicjckcl.c",
".acmcncocpcqcrcsctcucvcwcxcybbczcAcBcCcD.a",
".#.a.c.c.c.c.c.c.c.c.c.c.c.c.c.c.c.c.b.a.#"};
