/* XPM */
static char *dummy[]={
"21 23 339 2",
"Qt c None",
"cF c #3e70e3",
"cG c #3f66cf",
"b6 c #3f66d0",
"dg c #3f69d1",
"df c #3f6cd4",
"cZ c #3f6ddc",
"cY c #3f72e3",
"co c #3f72e5",
"cE c #3f77eb",
"bW c #4066d0",
"de c #406cd2",
"b5 c #4072e5",
"cX c #4176e6",
"cn c #4178ec",
"bD c #4266cf",
"dd c #426dd2",
"b4 c #4279eb",
"cD c #427aec",
"bk c #4366cf",
"dc c #436fd4",
"bV c #4372e4",
"cW c #4378e6",
"#f c #4461c7",
"db c #4470d3",
"bU c #4479eb",
"cm c #447ded",
"a3 c #4566ce",
"da c #4570d2",
"bC c #4573e4",
"b3 c #457ded",
"#x c #4663c8",
"aL c #4666cc",
"c5 c #466fce",
"cr c #4676ea",
"cV c #4679e5",
"bB c #4679ea",
"bT c #467dec",
"d# c #4770d2",
"bj c #4773e3",
"cl c #4780ee",
"au c #4866cc",
"c9 c #4871cf",
"c7 c #4871d0",
"c6 c #4872d1",
"bi c #4879e9",
"cU c #487be6",
"bh c #487beb",
"bA c #487deb",
"cC c #4880ed",
"#H c #4965c9",
"#R c #4966ca",
"#1 c #4966cb",
"c8 c #4971cf",
"d. c #4971d1",
"cK c #4977e2",
"b9 c #4978ec",
".z c #4a71e3",
"a2 c #4a73e2",
"a1 c #4a77e9",
"a0 c #4a79ea",
"bZ c #4a79ec",
"cT c #4a7ce5",
".V c #4b6edc",
"aI c #4b77e9",
"cB c #4b82ed",
"ck c #4b83ee",
"aK c #4c73e1",
"as c #4c76e8",
"aJ c #4c77e8",
"cS c #4c7ce5",
"aZ c #4c7cea",
"bS c #4c82ed",
"ac c #4d75e8",
"ar c #4d77e9",
"aH c #4d79e9",
"bG c #4d79eb",
"cL c #4d7ae2",
"cs c #4d7cea",
"bg c #4d7eeb",
"bz c #4d80eb",
"#e c #4e6fdc",
"c0 c #4e71ce",
"at c #4e72e0",
"dh c #4e73cf",
"ad c #4e75e8",
".y c #4e76e6",
"cR c #4e7ce3",
"cA c #4e83ec",
"cj c #4e85ee",
"#w c #4f70dd",
"ab c #4f76e8",
"aq c #4f78e9",
"aG c #4f7bea",
"cQ c #4f7ce3",
"aY c #4f7deb",
"bf c #4f80eb",
"#G c #5071de",
"#0 c #5072df",
"af c #5073df",
"ae c #5076e6",
"#Y c #5076e8",
"bn c #507beb",
"cM c #507ce4",
"by c #5081ec",
"bR c #5084ed",
"#Q c #5172df",
"#Z c #5176e6",
"#O c #5176e8",
"ap c #517ae9",
"cO c #517ce3",
"cP c #517de3",
"c. c #517eed",
"cz c #5184ec",
"ci c #5186ee",
".W c #526dcd",
"#F c #5275e5",
"#P c #5275e6",
"aa c #5278e8",
"a6 c #527ceb",
"cN c #527de3",
"aF c #527dea",
".U c #5376e4",
"#E c #5377e7",
".x c #537ae7",
"c4 c #537bd5",
"cJ c #537ee3",
"aX c #537fea",
"ct c #5380eb",
"be c #5381eb",
"bx c #5383eb",
".A c #5475dc",
"#v c #5476e5",
".w c #547be7",
"cy c #5484ec",
"bQ c #5485ec",
"ch c #5487ee",
"a# c #557ae8",
".v c #557ce7",
"ao c #557ce9",
"aO c #557dea",
"b0 c #5580ec",
"cx c #5584ec",
"#d c #5677e4",
"aE c #567ee9",
"aW c #5680ea",
"cu c #5682eb",
"#u c #577ae6",
"aw c #577de9",
"bd c #5783ea",
"c# c #5783ec",
"bw c #5785eb",
"cg c #5787ed",
"a. c #587be8",
"an c #587de9",
"cv c #5883eb",
"bP c #5887ec",
".u c #597fe8",
"aD c #5980e9",
"bH c #5982ec",
"cw c #5983eb",
"#t c #5a7be7",
".T c #5a7ce6",
"ag c #5a7fe9",
".t c #5a80e8",
"aV c #5a82ea",
"cf c #5a87ed",
"bc c #5b84ea",
"b1 c #5b84ec",
"ca c #5b85ec",
"bv c #5b86eb",
"bO c #5b87ec",
"ce c #5b87ed",
"#c c #5c7de6",
"#9 c #5c7de9",
"am c #5c7fe9",
"aC c #5c81e9",
"bo c #5c83eb",
"cd c #5c87ed",
"#s c #5d7de7",
".r c #5d82e8",
".s c #5d83e8",
"aU c #5d83ea",
"cc c #5d86ed",
"cb c #5d87ed",
"bb c #5e85ea",
"bu c #5e86eb",
"bN c #5e88ec",
"#8 c #5f80e9",
".S c #5f81e6",
"aB c #5f82e9",
"#U c #5f83e9",
"a7 c #5f84eb",
"bI c #5f85ec",
"b2 c #5f87ec",
"#r c #6080e7",
"aT c #6084ea",
".q c #6085e8",
"ba c #6086ea",
"bM c #6088ec",
"#b c #6180e7",
"bp c #6186eb",
"bt c #6187eb",
"#7 c #6282e9",
"al c #6283e9",
"aA c #6284e9",
"#K c #6285ea",
"aS c #6286ea",
".p c #6287e9",
"bJ c #6287ec",
"bL c #6288ec",
"#q c #6382e8",
".R c #6384e7",
"b# c #6387eb",
"bs c #6388eb",
"bK c #6389ed",
"#a c #6483e7",
"#A c #6487e9",
"ax c #6487ea",
"a8 c #6487eb",
"bq c #6488ec",
"br c #6489eb",
"#p c #6584e8",
"ak c #6585e9",
"az c #6586e9",
"aR c #6587ea",
"b. c #6588eb",
".Q c #6686e8",
"#6 c #6686ea",
"aP c #6688ea",
"a9 c #6688eb",
".o c #668be9",
"## c #6786e8",
".P c #6788e8",
"aQ c #6788eb",
"#h c #6789e9",
"ay c #6789ea",
"#o c #6887e9",
"ah c #6889ea",
"#. c #6988e8",
".O c #6a8ae8",
"#n c #6a8ae9",
"aj c #6a8aea",
".N c #6a8be8",
"ai c #6a8bea",
".9 c #6b8ae8",
".8 c #6c8be8",
"#5 c #6c8bea",
".M c #6c8ce8",
"#3 c #6c8cea",
".n c #6c8fea",
".7 c #6d8ce8",
"#m c #6d8ce9",
"#4 c #6d8deb",
".L c #6e8de8",
"#X c #6e8dea",
".Z c #6e8fe9",
".6 c #6f8ee9",
".K c #6f8fe9",
"#l c #708fe9",
"#N c #708fea",
"#V c #708feb",
"#W c #7190ea",
".5 c #7290e9",
".J c #7292e9",
"#L c #7392eb",
"#M c #7393ea",
"#k c #7492e9",
".4 c #7493e9",
".m c #7597eb",
".I c #7695e9",
".E c #7696ea",
"#B c #7896ea",
".3 c #7996e9",
"#C c #7a96ea",
"#j c #7b97e9",
".H c #7e9be9",
".2 c #809bea",
"#i c #829cea",
".F c #849fea",
".G c #86a1ea",
".0 c #87a1ea",
".1 c #88a2ea",
".C c #9ba7e2",
".j c #9eaee4",
".k c #9eb4e7",
".# c #a0b7e9",
"dj c #a2b2ec",
"dq c #a2b4ec",
"dk c #a3bbee",
".B c #a4b0e4",
"c2 c #a4bcee",
"di c #a7b7e9",
"c3 c #a8bdec",
".l c #aabded",
".X c #b5bbe9",
"#g c #b9bdea",
".a c #b9c9ef",
"#y c #babeea",
"#I c #babeeb",
"#S c #babfeb",
"#2 c #bbc0ec",
"aM c #bbc0ed",
".Y c #bbc7ed",
"#z c #bbc7ee",
".D c #bbc8ee",
"dp c #bbc8f1",
"a4 c #bcc1ee",
"bl c #bcc3ee",
"bE c #bcc4ef",
"#T c #bcc6ee",
".i c #bcc7ed",
"#J c #bcc7ee",
"av c #bcc7ef",
".h c #bcc8ed",
".g c #bcc8ee",
".f c #bcc9ee",
"cI c #bccdf2",
"bX c #bdc6f0",
"aN c #bdc8ef",
"a5 c #bdc9f0",
".e c #bdcaee",
".d c #bdcaef",
".c c #bdcbef",
".b c #bdccf0",
"b7 c #bec6f0",
"cp c #bec7f1",
"cH c #bec9f2",
"bm c #becaf1",
"c1 c #becaf2",
"bF c #becbf1",
"bY c #beccf2",
"do c #bfccf2",
"dn c #bfcdf2",
"dm c #bfcdf3",
"b8 c #bfcef2",
"dl c #bfcef3",
"cq c #bfcff3",
"#D c #ffffff",
"QtQtQtQtQtQtQtQtQtQtQtQtQtQtQtQtQtQtQtQtQt",
"QtQtQtQtQtQtQtQtQtQtQtQtQtQtQtQtQtQtQtQtQt",
"Qt.#.a.b.b.b.c.c.c.c.c.d.e.e.f.g.h.i.i.jQt",
".k.l.m.n.o.p.q.r.s.t.t.u.u.v.w.x.y.z.A.B.C",
".D.E.F.G.H.I.J.K.L.M.N.O.P.Q.R.S.T.U.V.W.X",
".Y.Z.0.1.2.3.4.5.6.7.8.9#.###a#b#c#d#e#f#g",
".Y#h.2#i#j#k#l#m#n#o#p#q#r#r#s#t#u#v#w#x#y",
"#z#A#B#C#k#D#D#D#D#D#D#D#D#D#D#D#E#F#G#H#I",
"#J#K#L#M#N#D#D#D#D#D#D#D#D#D#D#D#O#P#Q#R#S",
"#T#U#V#W#X#D#D#D#D#D#D#D#D#D#D#D#Y#Z#0#1#2",
"#T#U#3#4#5#D#6#7#8#9a.a#aaabac#Dadaeaf#1#2",
"#Jagahaiaj#Dakal#8amanaoapaqar#Das.yatau#2",
"avawaxayah#DazaAaBaCaDaEaFaGaH#DaIaJaKaLaM",
"aNaO#KaPaQ#DaRaSaTaUaVaWaXaYaZ#Da0a1a2a3a4",
"a5a6a7a8a9#Db.b#babbbcbdbebfbg#Dbhbibjbkbl",
"bmbnbobpbq#Dbrbsbtbubvbwbxbybz#DbAbBbCbDbE",
"bFbGbHbIbJ#DbKbLbMbNbObPbQbRbS#DbTbUbVbWbX",
"bYbZb0b1b2#D#D#D#D#D#D#D#D#D#D#Db3b4b5b6b7",
"b8b9c.c#cacbcccdcecfcgchcicjckclcmcncob6cp",
"cqcrcsctcucvcwc#c#cxcyczcAcBcCb3cDcEcFcGcH",
"cIcJcKcLcMcNcNcOcPcQcRcScTcUcVcWcXcYcZc0c1",
"c2c3c4c5c6c7c8c9d.d.d#dadbdcdddedfdgdhdidj",
"QtdkcqcqcqcqcqcqdldldmdndndndododododpdqQt"};
