/* XPM */
static char *dummy[]={
"21 23 278 2",
"Qt c None",
"bT c #0850c8",
"cr c #0951cb",
"c# c #0a5ddd",
"bA c #0b57ce",
"cq c #0b58d1",
"bi c #0c59cf",
"bS c #0c6ded",
"c. c #0c6eed",
"cp c #0d5ad2",
"co c #0f58cc",
"bb c #105ace",
"bz c #1078f1",
"b9 c #117af2",
"bR c #1184fa",
"cd c #134bbf",
"cn c #135cd0",
"bh c #137cf2",
"aX c #145bcd",
"cm c #145cd0",
"ce c #164fc2",
"cl c #165bcd",
"by c #1690fd",
"bB c #1761f9",
"bQ c #1790fc",
"ck c #1858c8",
"aJ c #185dcc",
"b8 c #1880f3",
"cf c #1950c1",
"ci c #1954c6",
"ba c #1980f3",
"ch c #1a52c3",
"bg c #1a95fd",
"cg c #1b52c1",
".1 c #1b52c2",
"cj c #1b58c9",
"av c #1b5dcb",
"bV c #1b5fe9",
"bj c #1c66ff",
"b7 c #1c80f1",
"bx c #1d9eff",
"ah c #1e5dc9",
"a9 c #1e77f8",
"aW c #1e80f2",
"bP c #1e97fd",
"#f c #1f55c3",
"b# c #1f97fd",
"aT c #2077f7",
"#4 c #215cc8",
"bW c #2163e8",
"bc c #216aff",
"ar c #2171f7",
"aF c #2174f7",
"b6 c #2182f1",
"bf c #21a3ff",
"ad c #226df6",
"#n c #2357c3",
"#s c #2358c5",
"#A c #2359c5",
"#P c #235ac6",
"#0 c #236af6",
"#L c #2467f5",
"bC c #246bfa",
"b5 c #2481f1",
"b. c #24a5ff",
"bw c #24a6ff",
"a8 c #257af8",
"aI c #2581f1",
"aV c #2599fd",
"bO c #259bfd",
"ca c #265dc1",
"cs c #265ec3",
"ac c #266ff6",
"aq c #2673f7",
"aE c #2677f7",
"aS c #2679f8",
"#Z c #276cf5",
".r c #276cf9",
"aY c #276eff",
"bX c #2868eb",
"#K c #2869f5",
"b4 c #287eef",
".K c #2969eb",
"aU c #29a4ff",
"b3 c #2a79ed",
"au c #2a80f0",
"aH c #2a96fd",
"bY c #2c6aea",
"#Y c #2c6ff5",
"b1 c #2c71ec",
"ab c #2c72f6",
"b2 c #2c76ec",
"bN c #2c9cfd",
"aG c #2ca0ff",
"#J c #2d6bf5",
"b0 c #2d6deb",
"aK c #2d72ff",
"ap c #2d76f6",
"aD c #2d7af7",
"aR c #2d7cf7",
"a7 c #2d7df7",
"bv c #2da9ff",
"cc c #2e61ca",
".0 c #2e6cea",
"bZ c #2e6dea",
".q c #2e73ff",
"ag c #2e7def",
"at c #2e91fc",
"as c #2e97ff",
"bU c #2f6ae4",
"bD c #2f72fb",
"#3 c #3079ed",
"ae c #3090ff",
"#e c #316fec",
"#1 c #3188ff",
"aw c #3275ff",
"#O c #3276ed",
"#M c #3280ff",
"af c #328cfc",
"bM c #3299fc",
"#m c #3370ec",
"#z c #3372ed",
"#x c #337aff",
"#2 c #3385fc",
"bu c #33aaff",
"#I c #346ef4",
"#X c #3472f5",
"aa c #3474f5",
"ao c #3478f6",
".L c #3566cb",
"bd c #3578ff",
"aC c #357cf6",
"a6 c #357ff7",
"#N c #3580fc",
"bE c #3676fb",
".p c #3678ff",
"#q c #3679ff",
"#y c #367bfc",
"aQ c #367ff7",
"bL c #3695fc",
".J c #3878fb",
"#r c #3879fc",
"bk c #3879ff",
"#l c #3979fc",
"#k c #397aff",
"bK c #3990fc",
"#H c #3a71f5",
".s c #3a73e7",
"#W c #3a74f5",
"bF c #3a7afb",
".o c #3a7bff",
"a# c #3b77f5",
"#d c #3b7afb",
"bG c #3b7bfc",
".n c #3b7cff",
"bH c #3b7efc",
"a5 c #3b7ff6",
"bJ c #3b8afc",
"bt c #3ba8ff",
"an c #3c7af6",
"aP c #3c7ff6",
"bI c #3c84fc",
".Z c #3d7cfc",
"aZ c #3d7dff",
"aB c #3d7ef6",
"bl c #3f7eff",
"#5 c #3f7fff",
"bs c #3fa3ff",
".m c #4080ff",
"#G c #4174f5",
"#V c #4178f5",
"a. c #4179f6",
"a4 c #4180f6",
"am c #427cf6",
"aO c #427ff6",
"#c c #4280ff",
"aA c #437ff6",
"br c #439cff",
".l c #4482ff",
"bm c #4483ff",
"a3 c #457ff6",
"bn c #4584ff",
"bo c #4587ff",
".k c #4684ff",
"bp c #468eff",
"bq c #4696ff",
"#F c #4778f6",
"#U c #477af5",
"#9 c #477bf6",
"aN c #477ff6",
"#b c #4785ff",
"al c #487df6",
"a2 c #487ef6",
"az c #487ff6",
"be c #4885ff",
"a0 c #4985ff",
".Y c #4986ff",
"a1 c #4a7ef7",
".i c #4a86ff",
"aM c #4b80f6",
".j c #4b87ff",
"#a c #4c88ff",
"#8 c #4d7ef6",
"ak c #4d80f6",
"ay c #4d81f7",
"#B c #4d88ff",
"#E c #4e7cf6",
"#T c #4e7ef6",
"aL c #4e81f6",
"#t c #4e89ff",
".I c #4f8aff",
"ax c #5182f6",
".h c #518bff",
"#7 c #5281f6",
"aj c #5282f6",
"## c #528cff",
"#S c #5381f6",
".X c #538cff",
"#D c #5482f7",
"#. c #548dff",
".g c #558eff",
".H c #568eff",
"#g c #5990ff",
".W c #5a91ff",
".9 c #5b92ff",
"ai c #5c92ff",
".G c #5d93ff",
".f c #5f94ff",
".8 c #5f95ff",
".F c #6095ff",
"#Q c #6196ff",
".2 c #6296ff",
"#6 c #6397ff",
".7 c #6598ff",
".E c #6599ff",
"#R c #689aff",
".D c #689bff",
".V c #699bff",
"#C c #699cff",
".e c #6a9cff",
".6 c #6b9dff",
".C c #6c9dff",
".U c #6d9eff",
".B c #6f9fff",
".T c #71a0ff",
"#u c #71a1ff",
".d c #72a1ff",
".u c #73a1ff",
"#w c #74a2ff",
".S c #74a3ff",
".A c #75a3ff",
"#v c #77a5ff",
".R c #79a6ff",
".5 c #7aa6ff",
"#p c #7aa7ff",
".z c #7ba7ff",
"#o c #81aaff",
".Q c #82abff",
".y c #82acff",
"#j c #84acff",
"#h c #85adff",
".P c #8ab0ff",
"#i c #8bb1ff",
".4 c #8fb4ff",
".x c #90b5ff",
".3 c #91b5ff",
".v c #97b9ff",
".O c #99baff",
".w c #9cbdff",
".M c #9ebeff",
".N c #a4c2ff",
".# c #b7c6f0",
"ct c #d0daee",
"cb c #d1ddf4",
".t c #d3ddf3",
".c c #dce7ff",
".a c #f5f7fd",
".b c #ffffff",
"QtQtQtQtQtQtQtQtQtQtQtQtQtQtQtQtQtQtQtQtQt",
"QtQtQtQtQtQtQtQtQtQtQtQtQtQtQtQtQtQtQtQtQt",
"Qt.#.a.b.b.b.b.b.b.b.b.b.b.b.b.b.b.b.a.#Qt",
".#.c.d.e.f.g.h.i.j.k.k.l.m.n.o.p.q.r.s.t.#",
".a.u.v.w.x.y.z.A.B.C.D.E.F.G.H.I.l.J.K.L.a",
".b.C.M.N.O.P.Q.R.S.T.U.V.E.F.W.X.Y.Z.0.1.b",
".b.2.3.O.4.y.5.d.6.7.8.9#.###a#b#c#d#e#f.b",
".b#g#h#i#j.b.b.b.b.b.b.b.b.b.b.b#k#l#m#n.b",
".b#..z#o#p.b.b.b.b.b.b.b.b.b.b.b#q#r#m#s.b",
".b#t#u#v#w.b.b.b.b.b.b.b.b.b.b.b#x#y#z#A.b",
".b#B#C.B.U.b#D#E#F#G#H#I#J#K#L.b#M#N#O#P.b",
".b.l#Q.D#R.b#S#T#U#V#W#X#Y#Z#0.b#1#2#3#4.b",
".b#5.W#Q#6.b#7#8#9a.a#aaabacad.baeafagah.b",
".b#k.Xai.f.bajakalamanaoapaqar.basatauav.b",
".baw.j.g.W.baxayazaAaBaCaDaEaF.baGaHaIaJ.b",
".baK.l.I#..baLaMaNaOaPaQaRaSaT.baUaVaWaX.b",
".baYaZa0.I.ba1a2a3a4a5a6a7a8a9.bb.b#babb.b",
".bbcbd.mbe.b.b.b.b.b.b.b.b.b.b.bbfbgbhbi.b",
".bbjaKbkblbmbnbobpbqbrbsbtbubvbwbxbybzbA.b",
".bbBbCbDbEbFbGbHbIbJbKbLbMbNbObPbQbRbSbT.b",
".abUbVbWbXbYbZb0b1b2b3b4b5b6b7b8b9c.c#ca.a",
".#cbcccdcecfcgchcicjckclcmcncocpcqcrcsct.#",
"Qt.#.a.b.b.b.b.b.b.b.b.b.b.b.b.b.b.b.a.#Qt"};
