/* XPM */
static char *dummy[]={
"16 16 17 1",
"a c #7683d9",
"# c #7686d9",
"c c #7784db",
"b c #7786dc",
". c #7789db",
"d c #788add",
"e c #7987de",
"f c #798dde",
"g c #7a8bde",
"h c #7b8ee1",
"i c #7c91e1",
"j c #7c94e2",
"l c #7d94e4",
"k c #7d97e4",
"m c #7e98e5",
"n c #7e9be5",
"o c #7f9de6",
".##aaaaaaaaaaaaa",
".###aa#aa#aa#aa#",
".b##cc#cc#cc#cc#",
"bbbccccccccccccc",
"bbbccccccccccccc",
"bbbbbcbbcbbcbbcb",
".deeebeebeebeebe",
"ddddeedeedeedeed",
"fggddddddddddddd",
"hhgggggggggggggg",
"iihhhhhhhhhhhhhh",
"jjjiiiiiiiiiiiii",
"kkklllllllllllll",
"mmmmmkmmkmmkmmkm",
"nnnnmmnmmnmmnmmn",
"onnnnnnnnnnnnnnn"};
