/* XPM */
static char *dummy[]={
"16 16 205 2",
".7 c #0042d9",
"#v c #0042db",
"#f c #0042dc",
".W c #0043d5",
".y c #0043d6",
"#J c #0044de",
"#e c #0045db",
".6 c #0045dc",
"#u c #0045de",
"#X c #0045e0",
"a# c #0045e3",
"#I c #0046e0",
"#W c #0046e3",
".L c #0047d6",
".n c #0047d7",
".V c #0047d8",
".x c #0048d7",
".5 c #0048dc",
".K c #0049d9",
".w c #0049da",
".U c #0049dc",
"#t c #0049de",
"a. c #0049e6",
".T c #004ade",
"#H c #004ae0",
"#V c #004ae4",
"ao c #004aea",
"an c #004aeb",
".m c #004bd9",
".4 c #004be0",
"#s c #004be2",
"aD c #004bee",
".v c #004cdd",
"#d c #004ce2",
"#G c #004ce4",
"#9 c #004ce9",
".J c #004ddd",
".3 c #004de2",
"aC c #004def",
"#c c #004ee3",
"am c #004eec",
".k c #004fdf",
".S c #004fe1",
".I c #0050e1",
".R c #0050e2",
".2 c #0050e3",
"#b c #0050e5",
"#8 c #0050eb",
"aS c #0050ef",
".H c #0051e0",
".u c #0051e1",
"#l c #0051e5",
"#U c #0051ea",
"#T c #0051eb",
"al c #0051ee",
"aB c #0051f0",
".t c #0052e0",
".s c #0053e2",
".j c #0053e3",
"#a c #0053e4",
"aA c #0053f0",
".h c #0054e3",
".i c #0054e4",
".1 c #0054e5",
"#F c #0054e9",
"#S c #0054ea",
"#7 c #0054f0",
"a6 c #0054f1",
"aQ c #0054f4",
".G c #0055e4",
".0 c #0055e5",
"#E c #0055ea",
"aR c #0055f2",
"a5 c #0055f4",
".Q c #0056e5",
"#6 c #0056ef",
"az c #0056f1",
"a4 c #0056f6",
".g c #0057e5",
"#R c #0057ea",
"#4 c #0057ed",
"ak c #0057f2",
"aj c #0057f3",
".F c #0058e6",
"#k c #0058e7",
"#D c #0058e8",
"#5 c #0058ed",
"aP c #0058f3",
"bk c #0058f4",
"a3 c #0058f7",
"bi c #0058f8",
".f c #0059e6",
".E c #0059e7",
"#C c #0059e9",
"#3 c #0059f0",
"ai c #0059f2",
"ay c #0059f4",
"ax c #0059f5",
"bj c #0059f6",
".P c #005ae7",
"#j c #005ae8",
"#Q c #005aeb",
"ah c #005af2",
"ag c #005bf4",
"aw c #005bf5",
"aO c #005bf7",
"bh c #005bf8",
".r c #005ce7",
".e c #005ce8",
"a2 c #005cf8",
"aN c #005cf9",
".D c #005de8",
".O c #005de9",
".q c #005fe9",
"aM c #005ff9",
"bg c #005ffb",
".d c #0060e9",
"av c #0060f4",
"aL c #0060f9",
".C c #0061e9",
".p c #0062e9",
"a1 c #0062f9",
"bf c #0063fc",
".A c #0064ec",
"a0 c #0064fa",
"be c #0064fc",
".c c #0065eb",
".a c #0066ec",
".b c #0067ed",
"aZ c #0067fb",
".l c #014cdb",
"## c #015ce8",
".Z c #015de9",
".N c #0160e9",
".B c #0162ea",
".M c #0162ed",
"aK c #0163f8",
".o c #0165eb",
".# c #0166ed",
"bd c #0168fd",
"aY c #016afc",
"bb c #016bfd",
"#r c #025ceb",
"#B c #025cec",
"#i c #025de8",
"#. c #025ee9",
"#2 c #025ef1",
"#O c #025ff0",
".Y c #0260ea",
"#1 c #0260f0",
"af c #0260f5",
".8 c #0262ed",
"au c #0262f6",
"aJ c #0265f9",
"at c #0266f9",
"bc c #026afe",
"ba c #026dfe",
".X c #035bdb",
"#m c #035cdf",
"#A c #035ceb",
"#q c #035cec",
".z c #035ddb",
"#P c #035dec",
"Qt c #035edb",
"#p c #035feb",
"#z c #0360ec",
".9 c #0361eb",
"ae c #0361f5",
"#h c #0362ed",
"#N c #0362ef",
"#n c #0364ef",
"ab c #0369fc",
"aF c #036cff",
"aa c #045fea",
"#o c #0462ed",
"#L c #0467f4",
"#Z c #0469f6",
"aI c #046afb",
"aq c #046afc",
"aX c #046efd",
"#w c #055ce1",
"#g c #055ddc",
"#K c #055fe1",
"#Y c #055fe4",
"ap c #0561ea",
"#y c #0563ee",
"aE c #0564ec",
"#x c #0564f0",
"aT c #0566ec",
"#M c #0566f3",
"ad c #0567f5",
"as c #056af9",
"b# c #0570fe",
"#0 c #0667f4",
"ar c #066af8",
"ac c #066af9",
"aG c #066cfb",
"aH c #066cfc",
"aU c #066dff",
"aV c #066efc",
"a8 c #0671ff",
"b. c #0672fd",
"a9 c #0673fd",
"a7 c #0767ec",
"aW c #076ffc",
"Qt.#.a.b.c.d.e.f.g.h.i.j.k.l.m.n",
"Qt.#.o.p.q.r.f.g.s.t.s.u.v.w.x.y",
".z.A.B.C.D.E.F.G.s.H.u.I.J.K.L.y",
".z.M.N.q.O.P.F.Q.s.I.R.S.T.U.V.W",
".X.M.Y.Z.e.P.F.0.1.2.S.3.4.5.6.7",
".X.8.9#.##.P.F.0#a#b#c#d.4.5#e#f",
"#g#h.9#.#i#j#k.Q.i#l#c#d.4.5#e#f",
"#m#n#o#p#q#r.E.g.G.1#c#s.4#t#u#v",
"#w#x#y#z#A#B#C#D#E#F#b#G#s#H#I#J",
"#K#L#M#N#O#P#Q#R#E#S#T#U#c#V#W#X",
"#Y#Z#0#M#1#2#3#4#5#6#7#T#8#9a.a#",
"aaabacadaeafagahaiajak#7alamanao",
"apaqarasatauafavawaxayazaAaBaCaD",
"aEaFaGaHaIaJaKaLaMaNaOaPaQaR#7aS",
"aTaUaVaWaXaYaZa0a1aMaMa2a3a4a5a6",
"a7a8a9b.b#babbbcbdbebfbgbhbibjbk"};
