/* XPM */
static char *dummy[]={
"16 31 22 1",
"t c None",
"g c #0036d2",
"f c #0037cb",
"h c #0038d8",
"i c #003ad9",
"k c #003be0",
"e c #003dcc",
"j c #003ddc",
"l c #0040e1",
"m c #0041e8",
"s c #0043cf",
"d c #0043d3",
"n c #0046ea",
"o c #0047ef",
"c c #004adc",
". c #004be7",
"p c #004cf3",
"q c #0051f4",
"b c #0055ea",
"r c #0055f4",
"a c #137aff",
"# c #2385ff",
"................",
"################",
"aaaaaaaaaaaaaaaa",
"bbbbbbbbbbbbbbbb",
"cccccccccccccccc",
"dddddddddddddddd",
"eeeeeeeeeeeeeeee",
"ffffffffffffffff",
"gggggggggggggggg",
"gggggggggggggggg",
"hhhhhhhhhhhhhhhh",
"hhhhhhhhhhhhhhhh",
"hhhhhhhhhhhhhhhh",
"iiiiiiiiiiiiiiii",
"iiiiiiiiiiiiiiii",
"jjjjjjjjjjjjjjjj",
"kkkkkkkkkkkkkkkk",
"llllllllllllllll",
"mmmmmmmmmmmmmmmm",
"nnnnnnnnnnnnnnnn",
"oooooooooooooooo",
"pppppppppppppppp",
"qqqqqqqqqqqqqqqq",
"rrrrrrrrrrrrrrrr",
"rrrrrrrrrrrrrrrr",
"rrrrrrrrrrrrrrrr",
"qqqqqqqqqqqqqqqq",
"oooooooooooooooo",
"hhhhhhhhhhhhhhhh",
"ssssssssssssssss",
"tttttttttttttttt"};
