/* XPM */
static char *dummy[]={
"16 16 20 1",
"d c #003ad9",
"# c #003bd2",
"h c #003be0",
"a c #003dcc",
"e c #003ddc",
"c c #003eda",
". c #003fd2",
"b c #003fd7",
"f c #0040dc",
"g c #0040e1",
"j c #0041e8",
"i c #0046e4",
"k c #0046ea",
"m c #0047ef",
"l c #004cef",
"n c #004cf3",
"o c #0051f0",
"p c #0051f4",
"q c #0055f4",
"r c #0057f6",
"....##a##a##a##a",
".b..############",
".bb.############",
"bcbbdddddddddddd",
"dccddddddddddddd",
"dccddddddddddddd",
"cceccccccccccccc",
"effeeeeeeeeeeeee",
"gggggghgghgghggh",
"gggggggggggggggg",
"giiggjjgjjgjjgjj",
"kkkkkkkkkkkkkkkk",
"lllllmmlmmlmmlmm",
"nonnnnnnnnnnnnnn",
"pqpppppppppppppp",
"rrrrrqqrqqrqqrqq"};
