/* XPM */
static char *dummy[]={
"16 29 227 2",
"Qt c #5f84dc",
".# c #6588de",
".g c #6689df",
".f c #668adf",
".d c #678ce0",
".a c #688ddf",
".e c #688de0",
".c c #688ee0",
".b c #6a91e0",
"#X c #7689da",
"#o c #768ada",
"#F c #768bda",
"#w c #768cda",
"#n c #768ddb",
"#m c #768edb",
"a# c #7788db",
"#M c #7789db",
"#x c #778adb",
"#W c #778bdb",
"ag c #778bdc",
"#Q c #778cdc",
"#a c #778ddb",
"#E c #778edb",
"#v c #778fdb",
"## c #7790db",
"#l c #7790dc",
"a. c #788adc",
"#2 c #788add",
"af c #788cdd",
"#V c #788ddd",
"#P c #788edd",
"#D c #7890dc",
"#O c #7890dd",
"#u c #7891dd",
"#L c #7892dd",
"#. c #7893dd",
"#C c #7894dd",
"#t c #7895dd",
".9 c #7896dd",
"ao c #798dde",
"az c #798ede",
"bG c #798fde",
"#9 c #7990de",
"ae c #7991de",
"#K c #7992de",
"#k c #7993de",
"bE c #7993df",
"#J c #7994de",
"#1 c #7994df",
"#i c #7995de",
"#7 c #7995df",
"#0 c #7996df",
"#h c #7997de",
"#s c #7998de",
"#p c #7999de",
".8 c #7999df",
"#y c #799ade",
"#N c #799adf",
".0 c #799bde",
"#b c #799cdf",
"aO c #7a8fe0",
"an c #7a90de",
"ay c #7a90df",
"bF c #7a92de",
"#8 c #7a92df",
"ax c #7a92e0",
"ad c #7a93e0",
"#U c #7a94de",
"#j c #7a96df",
"#6 c #7a96e0",
"#T c #7a97df",
".Y c #7a97e0",
"#I c #7a98df",
"#S c #7a98e0",
".X c #7a99e0",
"#Z c #7a99e1",
".7 c #7a9ae0",
"#Y c #7a9ae1",
"#g c #7a9be0",
"#B c #7a9ce0",
"#f c #7a9de0",
"#z c #7a9edf",
"aN c #7b91e0",
"aM c #7b93e1",
"aX c #7b94e1",
"aw c #7b95e1",
".Z c #7b96df",
"am c #7b96e0",
"ac c #7b97e0",
"bD c #7b98e0",
"ab c #7b98e1",
"ak c #7b99e1",
"#5 c #7b9ae1",
"#4 c #7b9be0",
".6 c #7b9ce1",
"#3 c #7b9de0",
".W c #7b9de1",
"#H c #7b9ee1",
"#q c #7b9fe0",
"#A c #7b9fe1",
".L c #7ba0e0",
"#c c #7ba0e1",
".1 c #7ba1e1",
"aY c #7c92e1",
"bC c #7c93e3",
"aL c #7c94e2",
"aW c #7c95e3",
"aK c #7c97e3",
"al c #7c98e2",
"aI c #7c9ae2",
"aj c #7c9be2",
"aa c #7c9de2",
"#G c #7c9ee1",
".5 c #7c9ee2",
"ai c #7c9ee3",
"as c #7c9ee4",
"#R c #7c9fe1",
"#r c #7ca0e1",
"#d c #7ca3e2",
"bB c #7d94e4",
"bA c #7d96e4",
"aV c #7d97e3",
"av c #7d98e3",
"au c #7d99e2",
"a8 c #7d99e3",
"at c #7d9ae3",
"bz c #7d9be3",
"aJ c #7d9be4",
"aH c #7d9ce4",
"ah c #7da0e2",
"ap c #7da0e4",
".4 c #7da1e1",
".V c #7da1e2",
".T c #7da1e3",
"#e c #7da2e2",
".U c #7da2e3",
".3 c #7da3e2",
"aq c #7da3e3",
".2 c #7da4e3",
"bi c #7e9ae5",
"a7 c #7e9be5",
"bc c #7e9ce5",
"aG c #7e9de5",
"a6 c #7e9fe6",
"ar c #7ea0e4",
"aE c #7ea0e6",
"bq c #7ea0e7",
"aT c #7ea1e5",
"bb c #7ea1e6",
".S c #7ea2e4",
"a4 c #7ea2e5",
"by c #7ea2e6",
"aA c #7ea3e4",
".M c #7ea5e4",
"bv c #7f9ce5",
"bo c #7f9ce6",
"bw c #7f9de6",
"bn c #7f9ee5",
"aF c #7f9ee6",
"br c #7f9fe5",
"aU c #7f9fe6",
"bh c #7fa0e6",
"a3 c #7fa1e5",
"a5 c #7fa1e6",
"aD c #7fa3e5",
"aS c #7fa3e6",
"bx c #7fa4e5",
"a2 c #7fa4e6",
".Q c #7fa5e4",
".R c #7fa5e5",
"aB c #7fa5e6",
"b# c #7fa5e7",
"ba c #80a3e6",
"bg c #80a4e6",
"aC c #80a5e6",
"aR c #80a5e7",
"aQ c #80a6e7",
".P c #80a7e5",
"aP c #80a7e8",
"aZ c #81a7e8",
".C c #81a8e6",
"a0 c #81a8e8",
"bf c #81a8e9",
".N c #82a9e6",
"a1 c #82a9e9",
".O c #82aae7",
"b. c #82aae9",
"bu c #83aae8",
"bm c #83abe8",
"a9 c #83abe9",
"bs c #84abe8",
"bd c #84ace9",
"bt c #85ace8",
"bl c #85ace9",
"be c #85ade9",
".J c #86a5e4",
"bp c #86ade9",
".K c #87a6e5",
"bk c #87aee9",
"bj c #87aeea",
".I c #88a8e5",
".h c #88a9e6",
".G c #89abe6",
".D c #89ade8",
".H c #8aace7",
".F c #8aade7",
".E c #8bb0e9",
".s c #8db0e8",
".i c #91aee7",
".r c #93aee7",
".q c #93afe7",
".p c #94b1e8",
".j c #96b1e8",
".n c #97b1e7",
".o c #97b1e8",
".A c #98b1e7",
".B c #98b2e7",
".m c #98b2e8",
".k c #99b3e8",
".z c #99b4e8",
".t c #99b4e9",
".l c #9ab4e9",
".x c #9ab7e9",
".y c #9bb6e9",
".w c #9bb7ea",
".u c #9cb8ea",
".v c #9db9eb",
"Qt.#.a.b.b.b.b.c.d.e.e.e.e.f.#.g",
".h.i.j.k.l.l.l.m.n.m.m.m.o.p.q.r",
".s.t.u.v.v.v.v.u.u.w.x.y.z.A.B.j",
".C.D.E.E.E.E.E.F.G.H.H.H.I.J.K.K",
".L.M.N.O.P.Q.R.S.T.U.S.V.W.X.Y.Z",
".0.1.2.2.3.4.5.6.7.X.7.8.9#.###a",
"#b#c#d#e#c#f#g.X#h#i#j#k#l#m#n#o",
"#p#q.V#r#f.7.X#s#t#t#i#u#v#w#x#o",
"#y#z#A#A#B.X.8#h#t#C#.#D#E#F#x#x",
"#y#f#G#H#g.X#I#h#J#K#L#D#E#F#x#M",
"#N#H#G.W#B.X#I#h#J#K#K#O#P#Q#o#M",
".7.W#R.6.7.X#S#T#U#K#K#O#V#Q#W#X",
"#g#H#R.6#Y#Z#S#j#0#1#K#O#V#Q#2#M",
"#3#R#r#4#Z#5.X#T#6#7#8#9#V#Qa.a#",
"aa.V#r.W.6#5.Xabac#6adae#Pafag#o",
"ah.T.Sai.6aaaj.Xakalam#8anao#Vag",
"apaq.Sarasaiajatatauavawaxayazaf",
"aAaBaCaDaEaFaGaHaIaJataKaLaMaNaO",
"aCaPaQaRaSaTaUaFaGaGaJalaVaWaXaY",
"aZa0a1a0aPa2a3a4a5a6aGa7a8alaVaW",
"a1a9a9b.a0aPb#b#baa3bbaFbcaJaIav",
"bdbebebdb.bfaPaQaZaRbgbha6aGaHbi",
"bebjbkblbmb.a1bfa1aZaQbabha6bnbo",
"bpbjbjbpbdbma1bfa1a0aQbgbhbqaUbn",
"bebjbjbpbebma1aZaQaPaQbabha6braF",
".Obsbtbub.a1aZaQb#bga5aEaFbvbwa7",
".SbxaCaCa2byaEaGaGbzaIauaVbAbBbC",
"#jacbDakbDac#jbEbF#kaebGbGaoafao",
"#jacbDakbDac#jbEbF#kaebGbGaoafao"};
