/* XPM */
static char *dummy[]={
"3 29 23 1",
". c #6585dc",
"i c #7584d8",
"j c #7683d9",
"h c #7686d9",
"g c #7689d9",
"k c #7784db",
"l c #7786dc",
"f c #778bdb",
"e c #778edb",
"n c #788add",
"m c #7987de",
"d c #7993de",
"c c #7996de",
"o c #7a8bde",
"p c #7b8ee1",
"q c #7c91e1",
"r c #7d94e4",
"t c #7d97e4",
"s c #7e98e5",
"u c #7e9be5",
"b c #81a2e6",
"# c #92ace7",
"a c #94b1e8",
"...",
"###",
"aaa",
"bbb",
"cdd",
"eef",
"ggh",
"hhi",
"jjj",
"hjj",
"hkk",
"kkk",
"kkk",
"llk",
"mml",
"nmm",
"nnn",
"ooo",
"ppp",
"qqq",
"rrr",
"sst",
"uss",
"uuu",
"uus",
"sst",
"qqq",
"oon",
"oon"};
