/* XPM */
static char *dummy[]={
"3 29 30 1",
"n c #003ad9",
"o c #003ddc",
"m c #003eda",
"k c #003fd2",
"l c #003fd7",
"p c #0040dc",
"q c #0040e1",
"B c #0043cf",
"j c #0043d3",
"i c #0043d6",
"a c #0046e4",
"r c #0046ea",
"h c #004ad8",
"# c #004be3",
". c #004be7",
"s c #004cef",
"u c #004cf3",
"t c #0051f0",
"w c #0051f4",
"g c #0053e1",
"f c #0054e3",
"v c #0055f4",
"x c #0057f6",
"y c #0058f7",
"A c #0059f8",
"z c #005af5",
"e c #0060ee",
"d c #1a82ff",
"c c #2189ff",
"b c #318cff",
".#a",
"bbb",
"cdd",
"eee",
"fgg",
"hhh",
"ijj",
"kkk",
"lkk",
"llk",
"mll",
"mmn",
"mmn",
"mom",
"ppo",
"qqq",
"qqq",
"aaq",
"rrr",
"sss",
"tuu",
"vww",
"xxx",
"yzz",
"Ayy",
"vvv",
"stv",
"pmp",
"BBB"};
