/* XPM */
static char *dummy[]={
"6 30 56 1",
". c None",
"a c #485eca",
"# c #4d6bd1",
"d c #5063cc",
"m c #5b68cd",
"j c #5b6fcf",
"b c #5e7dd8",
"e c #6585dc",
"n c #6b78d0",
"k c #7084d7",
"s c #7276d1",
"q c #727ad2",
"t c #747cd5",
"r c #7584d8",
"w c #767fd8",
"z c #7683d9",
"u c #7686d9",
"o c #7689d9",
"p c #768ed8",
"v c #768edb",
"B c #7783da",
"F c #7784db",
"I c #7786dc",
"A c #7789db",
"C c #778bdb",
"x c #778edb",
"c c #7793db",
"L c #788add",
"G c #788ddd",
"y c #7891dd",
"l c #7895dd",
"T c #7987de",
"R c #798dde",
"D c #7990de",
"E c #7993de",
"f c #7999de",
"O c #7a8bde",
"M c #7a90df",
"J c #7a93df",
"H c #7a96df",
"K c #7a96e0",
"h c #7a9ddf",
"P c #7b97e0",
"N c #7b99e1",
"Q c #7b9ae1",
"i c #7ba0e1",
"Y c #7c91e1",
"S c #7c9de2",
"W c #7d99e3",
"U c #7d9be3",
"V c #7d9fe4",
"g c #7da4e3",
"Z c #7f9fe6",
"X c #7fa2e5",
"0 c #80a5e6",
"1 c #81a6e6",
".....#",
"...abc",
"..defg",
".aechi",
".jkcll",
"mnoppc",
"mqropp",
"mqkopp",
"mstupp",
"mstupv",
"mstuvc",
"mstuvc",
"mqwuxy",
"mtzAxy",
"mtBCDE",
"mwFGEH",
"mwIDJK",
"mBLMKN",
"mFOJPQ",
"mFRKQS",
"mTRPUV",
"mTMWVX",
"mTYUZ0",
"mTYUX0",
"mTYUX1",
"mTYUX0",
"mTYUVX",
"mTMPNN",
"mwLvvx",
"mwLvvx"};
