/* XPM */
static char *dummy[]={
"6 30 38 1",
"# c None",
"l c #4756c8",
"c c #485eca",
". c #4d6bd1",
"J c #4f53bc",
"g c #5063cc",
"u c #5b5ec5",
"p c #5b68cd",
"b c #5e7dd8",
"k c #6b78d0",
"x c #6e6dc5",
"t c #6f71cd",
"o c #707ad2",
"f c #7084d7",
"w c #7276d1",
"s c #727ad2",
"v c #747cd5",
"q c #7584d8",
"r c #767fd8",
"y c #7683d9",
"n c #7689d9",
"j c #768edb",
"z c #7783da",
"A c #7784db",
"C c #7786dc",
"I c #7789db",
"m c #788edb",
"B c #7987de",
"a c #7993de",
"D c #7a8bde",
"E c #7b8ee1",
"e c #7b97e0",
"i c #7b99e1",
"F c #7c91e1",
"h c #7c9de1",
"G c #7d94e4",
"H c #7d97e4",
"d c #81a2e6",
".#####",
"abc###",
"defg##",
"hijkl#",
"mmnop#",
"qqrstu",
"vvswtu",
"vvstxu",
"vvwtxu",
"rvstxu",
"rrvwxu",
"rrvwxu",
"yrvwxu",
"zzvwxu",
"zzrwxu",
"Azrwxu",
"AArvtu",
"BCzvtu",
"DBCrtu",
"EEBrwu",
"EEDzwu",
"FEEAwu",
"GGECwu",
"GGFBsu",
"HGFBwu",
"HGFIwu",
"GGFIwu",
"EEEIwu",
"ICCqtu",
"ICCqtJ"};
