/* XPM */
static char *dummy[]={
"6 30 44 1",
"# c None",
"u c #000e7d",
"C c #00138b",
"J c #001592",
"p c #0015a0",
"m c #0018ab",
"w c #0020c8",
"s c #0022b9",
"F c #0023d6",
"t c #0024a6",
"r c #0026ac",
"z c #0029d0",
"q c #002ab7",
"v c #002cc8",
"I c #002edc",
"b c #0031c6",
"o c #0032c1",
"A c #0035d8",
"x c #0036d2",
"l c #0037cb",
"y c #0038d8",
"M c #0038ea",
"B c #003ad9",
"e c #003bd2",
"E c #003be0",
"D c #003be2",
"n c #003dcc",
"i c #003ddc",
". c #003fd2",
"H c #0040e1",
"G c #0041e8",
"P c #0043cf",
"h c #0043d3",
"L c #0046ea",
"j c #0047d7",
"K c #0047ef",
"k c #004ad8",
"N c #004cf3",
"O c #0051f4",
"g c #0054e3",
"d c #0058f3",
"f c #005cec",
"a c #066cfc",
"c c #076ffd",
".#####",
"a.b###",
"ccde##",
"ffghi#",
"jkhlm#",
"nnloop",
"lboqrp",
"bbostu",
"lbvstu",
"llvwtu",
"xxvwru",
"xxvwru",
"xxvwtu",
"yxzwru",
"yAzwru",
"yAxzqu",
"iBAzrC",
"DEAFqC",
"GHEIqJ",
"GGDIqJ",
"KLGDoJ",
"KKGMvJ",
"NKLMbJ",
"NNKMoJ",
"ONKMoC",
"ONKMoC",
"NKLMoC",
"KKKMoC",
"yAEMoC",
"PPEIoJ"};
