/* XPM */
static char *dummy[]={
"9 29 71 2",
"Qt c None",
".c c #485eca",
".# c #4d6bd1",
".h c #5063cc",
".s c #5b68cd",
".p c #5b6fcf",
".a c #5e7dd8",
".b c #6085dd",
".i c #6585dc",
".t c #6b78d0",
".q c #7084d7",
".y c #7276d1",
".w c #727ad2",
".z c #747cd5",
".x c #7584d8",
".E c #767fd8",
".H c #7683d9",
".A c #7686d9",
".u c #7689d9",
".v c #768ed8",
".B c #768edb",
".L c #7783da",
".Q c #7784db",
".T c #7786dc",
".I c #7789db",
".M c #778bdb",
".F c #778edb",
".d c #7793db",
".Y c #788add",
".R c #788ddd",
".G c #7891dd",
".r c #7895dd",
".5 c #7987de",
".3 c #798dde",
".N c #7990de",
".D c #7993de",
".C c #7996de",
".j c #7999de",
".1 c #7a8bde",
".Z c #7a90df",
".U c #7a93df",
".J c #7a96df",
".V c #7a96e0",
".K c #7a99e0",
".n c #7a9ddf",
".O c #7b97e0",
".W c #7b98e0",
".S c #7b99e1",
".P c #7b9ae1",
".e c #7ba0e1",
"## c #7c91e1",
".X c #7c9de2",
".8 c #7d99e3",
".6 c #7d9be3",
".0 c #7d9fe4",
".o c #7da1e2",
".k c #7da4e3",
".2 c #7ea2e4",
"#a c #7f9fe6",
".4 c #7fa2e5",
".7 c #80a5e6",
".f c #80a6e5",
".9 c #81a6e6",
"#. c #81a7e8",
"#b c #82aae7",
"#d c #83a7e7",
"#c c #83abe9",
".l c #85abe8",
"#e c #85ade9",
".g c #87a6e5",
".m c #8aace7",
"QtQtQtQtQt.#.a.b.b",
"QtQtQt.c.a.d.e.f.g",
"QtQt.h.i.j.k.f.l.m",
"Qt.c.i.d.n.e.o.k.f",
"Qt.p.q.d.r.r.r.j.n",
".s.t.u.v.v.d.d.d.r",
".s.w.x.u.v.v.d.d.r",
".s.w.q.u.v.v.d.d.r",
".s.y.z.A.v.v.d.d.r",
".s.y.z.A.v.B.d.r.C",
".s.y.z.A.B.d.D.r.C",
".s.w.E.A.F.G.r.C.j",
".s.z.H.I.F.G.C.J.K",
".s.z.L.M.N.D.J.O.P",
".s.E.Q.R.D.J.O.S.P",
".s.E.T.N.U.V.W.P.X",
".s.L.Y.Z.V.S.P.X.0",
".s.Q.1.U.O.P.X.0.2",
".s.Q.3.V.P.X.0.2.4",
".s.5.3.O.6.0.4.7.7",
".s.5.Z.8.0.4.7.9#.",
".s.5##.6#a.7.9#.#b",
".s.5##.6.4.7#.#c#c",
".s.5##.6.4.9#d#c#e",
".s.5##.6.4.7#.#b#c",
".s.5##.6.0.4.4.9.9",
".s.5.Z.O.S.S.6.X.o",
".s.E.Y.B.B.F.G.D.U",
".s.E.Y.B.B.F.G.D.U"};
