/* XPM */
static char *dummy[]={
"9 29 76 2",
"Qt c None",
".v c #0018ab",
".G c #001abc",
"#d c #001acf",
".0 c #001fd2",
".S c #0020c8",
".6 c #0023d6",
".t c #0024a6",
".z c #0031c6",
".r c #0032c1",
".L c #0036d2",
".H c #0037cb",
".T c #0038d8",
".I c #003bd2",
".3 c #003be0",
"## c #003be2",
".w c #003dcc",
".1 c #003ddc",
".A c #003fd2",
".M c #0040dc",
".j c #0041ca",
"#h c #0043cf",
".U c #0046e4",
".7 c #0046ea",
".b c #0047d7",
".B c #004ad8",
".s c #004adc",
".# c #004bcd",
"#g c #004be0",
".9 c #004be7",
"#a c #004beb",
"#f c #004de3",
".C c #0050e0",
".k c #0050e2",
".O c #0051e5",
".8 c #0051eb",
".l c #0053da",
".J c #0053e1",
".D c #0054e3",
".K c #0055e5",
".V c #0055ea",
".R c #0058e6",
".W c #0058eb",
"#b c #0058ee",
".N c #0059e8",
".o c #005adf",
".u c #005ae4",
".E c #005ae7",
"#e c #005bf2",
".F c #005ce9",
".P c #005cec",
".p c #005ee7",
".y c #005ee9",
".Y c #005ff2",
".Q c #0060ee",
".q c #0062e9",
".n c #0067ed",
"#j c #0143cf",
"#i c #0144d0",
".a c #014cd0",
".Z c #0160f5",
".4 c #0164f9",
".m c #0165eb",
".x c #0245d0",
".g c #025de9",
".5 c #0265f9",
".h c #026cf1",
".X c #0360f1",
".2 c #0361f6",
"#. c #0368fa",
"#c c #036bfb",
".c c #0667f4",
".d c #0772fd",
".i c #0774fe",
".e c #137aff",
".f c #1a82ff",
"QtQtQtQtQt.#.a.a.b",
"QtQtQt.a.a.c.d.e.f",
"QtQt.a.g.c.h.i.e.e",
"Qt.j.k.l.m.m.n.n.n",
"Qt.j.#.o.o.o.o.p.q",
".r.s.#.l.l.l.o.o.p",
".r.r.j.a.l.l.o.o.p",
".t.r.j.a.l.l.o.u.p",
".v.r.w.x.l.l.o.u.p",
".v.r.w.b.l.o.u.p.y",
".v.z.A.B.C.D.E.F.y",
".G.H.I.s.J.K.E.F.g",
".G.L.M.s.D.K.N.F.y",
".G.L.M.s.O.K.N.P.Q",
".G.L.M.k.R.N.F.P.Q",
".S.T.U.O.V.W.P.Q.X",
".S.T.U.O.W.P.Q.Y.Z",
".0.1.U.K.W.P.Y.Z.2",
".0.3.U.V.P.Y.Y.4.5",
".6.3.7.8.Y.Y.Z.4.5",
".6.3.9.W.Y.Z.2.5#.",
".0###a#b.Y.Z.5#.#c",
"#d###a#b.Z.2.5#.#c",
"#d###a#b.Z.Z.2#.#.",
"#d###a#b#e.Z.2.5.5",
"#d.3#a#b#e#b#e.X.X",
"#d.3#a#f.D.R.R.W.P",
"#d.3.3#g.w#h#i.x.x",
"#d.3.3#g#h#h#j#i#i"};
