/* XPM */
static char *dummy[]={
"22 22 24 1",
"r c #226150",
"n c #236351",
"s c #256754",
"# c #268765",
"j c #288463",
"o c #296f5a",
"e c #298766",
"q c #2a7559",
"u c #2b8b69",
"l c #318265",
"m c #327d62",
"k c #328467",
"a c #348c6d",
"v c #358467",
"h c #36866a",
"p c #3a8f71",
"i c #3b896d",
"g c #408a6f",
". c #42846c",
"f c #458d73",
"b c #459075",
"c c #4c9078",
"t c #4c947a",
"d c #53937c",
"......#abcddcbae......",
".....adcfghhgfcdi.....",
"...jbdikkkkkkkkidce...",
"..edbhkkkkkkkkkkkfde..",
"..cbkkkkkkkkkkkkkkfc..",
".idhkkkkkkkkkkkkkkkci.",
"#dikkkklkkkkklkkkkkide",
"ickkkkmnokkkmnokkkkkcp",
"bfkkkkqrrokmnrskkkkkfb",
"cgkkkkkqrronrslkkkkkit",
"dhkkkkkkqrrrslkkkkkkhd",
"dhkkkkkkmnrrokkkkkkkhd",
"cgkkkkkmnrnrrokkkkkkgd",
"bfkkkkmnrslqrrokkkkkft",
"pckkkkqrslkkqrskkkkkcb",
"edikkkkqlkkkkqlkkkkidu",
".idkkkkkkkkkkkkkkkkdg.",
"..cfkkkkkkkkkkkkkkft..",
"..edfkkkkkkkkkkkkfde..",
"...eccikkkkkkkkicdu...",
".....idcfivhifcdf.....",
"......epbtddtbpe......"};
