/* XPM */
static char *dummy[]={
"22 22 39 1",
"v c #214603",
"z c #2f5c04",
"C c #3a6d05",
"w c #44750d",
"y c #558814",
"u c #689f1c",
"r c #6fa41e",
"D c #76b221",
"A c #79b622",
"o c #7fbc23",
"k c #8bc12d",
"j c #8cc631",
"p c #93cb39",
"f c #96c932",
"# c #98cc36",
"l c #98cf3e",
". c #99cc33",
"s c #9acd36",
"G c #9bcd39",
"J c #9dce3c",
"g c #9dd243",
"H c #9fd03b",
"a c #a3d445",
"q c #a6d549",
"x c #a7d84e",
"B c #a9dc51",
"K c #aad84f",
"I c #abd951",
"b c #abdd55",
"i c #aedf57",
"F c #b1dd5a",
"n c #b3e25d",
"e c #bae566",
"c c #bbe868",
"h c #bfea6c",
"t c #c3eb73",
"d c #caf27a",
"m c #cef481",
"E c #d1f687",
"......#abcddeba#......",
"....fgdhigjklbhmaf....",
"...fndloooooooopde#...",
"..fdnooooooooooooim#..",
".fnnooooooooooooooief.",
".adoooooooooooooooodq.",
"#dloooorooooorooooopms",
"atoooouvwooouvwooooocx",
"biooooyvvwouvvzAAoooBn",
"cgoooooyvvCvvzDooooolt",
"djooooooyvvvzDooooookE",
"mjoooooouvvvwooooooojE",
"hgooooouvvvvvwoooooogd",
"FioooouvvzDyvvwoooooic",
"qhooooyvzDooyvzAAoootF",
"GmpooooyDooooyDoooopEH",
".qdooooooooooooooootI.",
".fenoooooooooooooobhf.",
"..#miooooooooooooBEG..",
"...#edpoooooooojttJ...",
"....fqmcBlkkpxeEbf....",
"......GKnhmEtnxJ......"};
