/* XPM */
static char *dummy[]={
"22 22 42 1",
"z c #3a6d05",
"w c #44750d",
"A c #558814",
"F c #64951b",
"H c #689f1c",
"x c #6fa41e",
"E c #7bac25",
"y c #83b429",
"v c #99c633",
". c #99cc33",
"e c #9cce36",
"# c #9fd03b",
"u c #a2cd39",
"r c #a3d23d",
"N c #a3d241",
"L c #a3d445",
"B c #a9d53e",
"p c #aed93f",
"M c #b0d943",
"s c #b1db48",
"a c #b1dd5a",
"f c #b5de5a",
"m c #b5df5e",
"j c #b6de53",
"G c #b8de55",
"t c #b9e161",
"K c #bbe05b",
"q c #bde161",
"o c #bfe366",
"D c #c1e671",
"i c #c1e76c",
"b c #c3eb73",
"J c #c6ea7a",
"C c #caeb7e",
"k c #cced83",
"h c #d0ef89",
"c c #d3f090",
"I c #d5f494",
"l c #d9f49a",
"g c #dbf89d",
"d c #def7a5",
"n c #e2faad",
"......#abcddcba#......",
"....efdghijjikldme....",
"...#knoppppppppqdhr...",
"..rdcsppppppppppshdr..",
".ekcpppppppppppppphhe.",
".fnsppppppppppppppsdt.",
"#doppppupppppupppppqn#",
"fdppppvwxpppvwxppppplt",
"bhppppyzzxpvwzABBpppkC",
"cDpppppEzzFwzArpppppol",
"nGppppppEzzzArppppppjn",
"njppppppvwzzHpppppppjn",
"IDpppppvwzwzzxppppppDd",
"JhppppvwzArEzzxppppphh",
"mgppppyzArppEzABBpppdD",
"rnqppppyrppppyrppppKnL",
".tdsppppppppppppppMdo.",
".ehhppppppppppppppkce.",
"..NdhMppppppppppMknN..",
"...NhdqppppppppKdIL...",
"....etnlCossoCInie....",
"......rtCInnlCtN......"};
