/* XPM */
static char *dummy[]={
"12 1 3 1",
". c None",
"a c #99cc33",
"# c #dbf79d",
"......#aaaaa"};
