/* XPM */
static char *dummy[]={
"22 22 39 1",
"v c #2f5d03",
". c #99cc33",
"r c #9acd36",
"# c #9cce38",
"f c #9dcf39",
"s c #9dcf3a",
"o c #9ecf3b",
"q c #9fd03c",
"A c #a1d13e",
"k c #a2d241",
"j c #a3d344",
"E c #a6d54a",
"I c #a9d74d",
"e c #aad84f",
"a c #abd951",
"u c #add952",
"m c #afdb55",
"i c #b1dd5a",
"z c #b3de5d",
"G c #b6df60",
"K c #b7e162",
"b c #bae566",
"J c #bbe369",
"H c #bde46b",
"y c #bee56e",
"h c #c1e772",
"t c #c3eb73",
"n c #c6ea7a",
"c c #caeb7e",
"x c #cced83",
"g c #d0ef89",
"F c #d3f48f",
"p c #d4f191",
"d c #d5f593",
"l c #d7f695",
"w c #d8f797",
"C c #d9f49a",
"B c #dbf89d",
"D c #def7a5",
"......#abcddcbef......",
".....edghijkihglm.....",
"...#hlm........edno...",
"..fpnq..........rhds..",
"..tn..............hn..",
".uls..............#dm.",
"#lm.....vvvvvvvvv..ews",
"ug......vvvvvvvvv...xi",
"bh......v.......v...yh",
"cz......v.......v...mg",
"lj...vvvvvvvvv..v...AB",
"Cj...vvvvvvvvv..v...jD",
"xi...v.......vvvv...zd",
"yh...v.......v......hn",
"mg...v.......v......gb",
"owa..v.......v.....EBk",
".id#.vvvvvvvvv....rFG.",
"..nt..............yx..",
"..qlhf...........HwA..",
"...qndI........EFxk...",
".....mwxHuqouJxBK.....",
"......qihxCBgyiA......"};
