/* XPM */
static char *dummy[]={
"6 24 12 1",
"c c None",
"i c #97ca34",
"j c #98cb32",
". c #99cc33",
"d c #a0d13f",
"h c #adda54",
"e c #b4de5f",
"g c #bfe570",
"f c #d8f498",
"b c #daecae",
"a c #dbf79f",
"# c #dffba1",
".#abcc",
"..defc",
"....g#",
"....h#",
".....#",
".....#",
".....#",
".....#",
".....#",
".....#",
".....#",
".....#",
".....#",
".....#",
".....#",
".....#",
".....#",
".....#",
".....#",
".....#",
".....#",
".....#",
".ij..#",
".ij..#"};
