/* XPM */
static char *dummy[]={
"12 24 39 1",
". c None",
"c c #42846c",
"v c #42856e",
"o c #438670",
"B c #468774",
"x c #478874",
"u c #488976",
"K c #498977",
"s c #4a8a7a",
"j c #4c8b7b",
"m c #4c8b7d",
"b c #4d8c7e",
"J c #4e8c7f",
"z c #4f8c7f",
"E c #4f8c80",
"e c #4f8d82",
"g c #518e84",
"H c #538f89",
"q c #539088",
"k c #5a9495",
"h c #5b9596",
"G c #5c929d",
"C c #5c92a0",
"D c #5c939d",
"A c #5c9597",
"F c #5d9699",
"y c #5e939f",
"r c #5e959e",
"w c #5e969b",
"t c #5e969c",
"I c #5e979c",
"i c #5f969e",
"l c #5f969f",
"n c #5f979b",
"# c #5f979c",
"d c #5f979e",
"p c #6094a9",
"f c #60969f",
"a c #60999c",
"......#aaaaa",
".....#bccccc",
"....decccccc",
"...fgccccccc",
"...hcccccccc",
"..ijcccccccc",
"..kccccccccc",
".lmccccccccc",
".noccccccccc",
"pqcccccccccc",
"rscccccccccc",
"tucccccccccc",
"nvcccccccccc",
"wxcccccccccc",
"yzcccccccccc",
".Acccccccccc",
".nBccccccccc",
".Ceccccccccc",
"..Accccccccc",
"..DEcccccccc",
"...Fvccccccc",
"...GHccccccc",
"....IJcccccc",
".....nKccccc"};
