/* XPM */
static char *dummy[]={
"13 14 95 2",
"Qt c None",
"#t c #5f5f66",
"#y c #606065",
"#s c #616268",
"#x c #666773",
"#l c #68676a",
"#q c #68686e",
"#d c #686a74",
"#i c #696970",
"#n c #696c77",
"#g c #6e707d",
".8 c #71737f",
".3 c #737683",
".Z c #77777f",
"## c #777b8b",
"#u c #7d8296",
".q c #7e8297",
".b c #7e8398",
".V c #7f818c",
".A c #808699",
".a c #80869a",
"#z c #858897",
".L c #87888f",
".# c #888ea1",
".Q c #8a898c",
"#r c #8b8f9f",
".C c #8f9096",
".J c #908f94",
".G c #909198",
"#w c #9299b1",
".4 c #939294",
".z c #94949d",
".s c #9697a1",
".9 c #969cb5",
".v c #97989d",
".w c #97989e",
".o c #9a9aa2",
".j c #9a9aa4",
"#m c #9ba2bc",
".R c #9ca0aa",
".k c #9d9da3",
".n c #a0a2a9",
"#e c #a3a2a4",
".7 c #aaaaab",
".c c #acb4ca",
".H c #afafb1",
".0 c #afb4c8",
".2 c #afb7d5",
"#a c #b1b2b2",
".h c #b2b7ce",
"#v c #b2bad8",
"#o c #bababb",
".K c #bbc0cd",
".W c #bcbcbd",
".M c #bdbcbe",
".p c #c0c2d1",
"#c c #c2c2c3",
"#A c #c2c7de",
".N c #c4c4c5",
".l c #c5c7d2",
"#f c #c6c6c7",
".U c #c6cbe2",
".F c #c8c7c9",
"#h c #cbd0e3",
"#B c #cbd0e5",
".d c #ccd1e3",
"#k c #cdcccd",
"#j c #cdcdcd",
"#C c #ced3e6",
".i c #d3d6e7",
"#p c #d4d4d4",
".e c #d4d8e9",
".P c #d5d4d5",
".5 c #d5d5d5",
".x c #d7d7d8",
"#. c #d8ddeb",
".Y c #dddcdd",
".t c #dddcde",
".D c #dedddf",
".m c #e0e3ef",
".u c #e5e5e6",
".1 c #e5e7f2",
".y c #e7e7e8",
".f c #e7eaf3",
".r c #eaeaf2",
".T c #eeeff6",
".g c #eeeff7",
".B c #f2f3f8",
"#b c #f4f4f3",
".I c #f4f4f4",
".S c #f4f6fa",
".6 c #f5f5f5",
".X c #fbfbfb",
".O c #fefefe",
".E c #ffffff",
"QtQtQtQtQtQtQtQtQtQtQtQtQt",
"QtQt.#.#.a.b.b.b.a.#.#QtQt",
"Qt.#.c.d.e.f.g.g.e.d.c.#Qt",
".#.h.i.j.k.l.m.m.n.o.p.h.#",
".q.r.s.t.u.v.m.w.x.y.z.r.A",
".b.B.C.D.E.F.G.H.E.I.J.B.b",
".b.B.K.L.M.E.N.O.P.Q.R.S.b",
".b.T.U.U.V.W.X.Y.Z.0.U.T.b",
".b.1.2.3.4.I.5.6.7.8.9.m.b",
".a#.###a#b#c#d#e#b#f#g#..a",
".##h#i#j#k#l#m#n#o#p#q#h.#",
".#.h#r#s#t#u#v#w#x#y#z.h.#",
"Qt.#.c#A#B#C#C#C#B#A.c.#Qt",
"QtQt.#.#.a.b.b.b.a.#.#QtQt"};
