/* XPM */
static char *dummy[]={
"13 14 48 1",
". c None",
"J c #717482",
"K c #737275",
"C c #757887",
"j c #7e8297",
"a c #7e8398",
"m c #808699",
"F c #80869a",
"x c #838591",
"D c #868588",
"L c #878ca1",
"# c #888ea1",
"y c #9b9a9d",
"p c #9d9ea4",
"b c #acb4ca",
"B c #acb4d5",
"t c #aeadb0",
"f c #b2b7ce",
"O c #b2bad8",
"I c #b2bbd8",
"H c #b5bcd9",
"Q c #b6bfdc",
"N c #b8bfdc",
"q c #bbbabd",
"w c #bcc2dc",
"P c #c1c7e0",
"S c #c2c7de",
"R c #c2c7e0",
"M c #cbd0e3",
"c c #ccd1e3",
"T c #ced3e6",
"E c #d6d6d6",
"G c #d8ddeb",
"s c #dadfec",
"g c #dbdeee",
"o c #dfe3ef",
"i c #e0e3ef",
"d c #e1e3f0",
"l c #e3e6f2",
"h c #e4e7f3",
"A c #e5e7f2",
"k c #eaeaf2",
"z c #eeeeee",
"v c #eeeff6",
"e c #eeeff7",
"n c #f2f3f8",
"r c #f4f6fa",
"u c #ffffff",
".............",
"..##aaaaa##..",
".#bcdeeedcb#.",
"#fghiiiiihgf#",
"jkliiiiiiilkm",
"anopqqqqqpona",
"arstuuuuutsra",
"avwxyzzzyxwva",
"aABBCDEDCBBAa",
"FGHIIJKJIIHGF",
"LMNOOOOOOONML",
"#fPQOOOOOQRf#",
".#bSTTTTTSb#.",
"..##aaaaa##.."};
