/* XPM */
static char *dummy[]={
"13 14 54 1",
". c None",
"o c #1f4c89",
"b c #204d8a",
"c c #214e8b",
"a c #214e8c",
"S c #235491",
"# c #285b96",
"M c #425774",
"A c #4374b4",
"V c #4374b5",
"R c #445773",
"W c #4474b5",
"U c #4676b5",
"Y c #4777b7",
"d c #4a78b1",
"B c #4f6481",
"E c #516581",
"j c #5380b7",
"w c #608ac1",
"x c #64758d",
"Z c #6890c2",
"X c #6a92c5",
"O c #6d6e73",
"t c #6f7e93",
"N c #707074",
"s c #7096c7",
"P c #727175",
"Q c #737275",
"f c #7d9fcc",
"i c #7fa0ce",
"T c #80a1cc",
"F c #828286",
"h c #82a3cf",
"g c #83a3cf",
"m c #83a4d0",
"l c #83a5d1",
"K c #868588",
"q c #8cabd3",
"C c #9b9a9d",
"e c #9cb6d8",
"L c #a0bada",
"y c #aeadb0",
"v c #bacee6",
"u c #bbbabd",
"k c #bdd0e6",
"n c #c1d1e7",
"r c #c7d8eb",
"H c #d3d3d3",
"G c #d4d4d4",
"I c #d5d5d5",
"J c #d6d6d6",
"p c #dde6f3",
"D c #eeeeee",
"z c #ffffff",
".............",
"..##abbbc##..",
".#defghhied#.",
"#jklmmmmmlnj#",
"opqqqqqqqqqpo",
"orssstutsssro",
"ovwwxyzyxwwvo",
"ovABCDDDCEAvo",
"ovAFGHHIJKAvo",
"oLAMNOOPQRALo",
"STUVWWWWWVUTS",
"#jXYWWWWWYXj#",
".#dZfghgfZd#.",
"..##abbba##.."};
