/* XPM */
static char *dummy[]={
"13 14 57 1",
". c None",
"X c #6c6b6e",
"Y c #6f727f",
"S c #757477",
"W c #757782",
"P c #777986",
"l c #7e8297",
"a c #7e8398",
"N c #7f7e81",
"r c #808699",
"L c #80869a",
"Q c #878ca1",
"# c #888ea1",
"E c #89888b",
"G c #89888c",
"K c #8b8a8d",
"I c #919093",
"B c #969598",
"t c #97999e",
"k c #9b9ca3",
"i c #9d9ea4",
"z c #a1a0a3",
"x c #a2a1a4",
"H c #a5adc9",
"u c #acabae",
"b c #acb4ca",
"f c #b2b7ce",
"U c #b2bad8",
"p c #b5b4b7",
"Z c #b6bfdc",
"V c #b8bfdc",
"j c #bbbabd",
"1 c #c2c7de",
"0 c #c2c7e0",
"T c #cbcbcb",
"R c #cbd0e3",
"c c #ccd1e3",
"2 c #ced3e6",
"O c #d3d3d3",
"M c #d8ddeb",
"F c #dbdbdb",
"g c #dbdeee",
"J c #dddddd",
"o c #e0e3ef",
"d c #e1e3f0",
"n c #e3e6f2",
"h c #e4e7f3",
"D c #e5e7f2",
"C c #e7e7e7",
"m c #eaeaf2",
"A c #eeeff6",
"e c #eeeff7",
"y c #f1f1f1",
"s c #f2f3f8",
"w c #f4f6fa",
"v c #f9f9f9",
"q c #ffffff",
".............",
"..##aaaaa##..",
".#bcdeeedcb#.",
"#fghijjjjjkf#",
"lmnopqqqqqpmr",
"astuuvuuuvusa",
"awxyyyyyxyzwa",
"aABCBBBCBCBAa",
"aDEFGHIJJJKDa",
"LMNONNNONNPML",
"QRSTTTTTSUVRQ",
"#fWXXXXXYZ0f#",
".#b1222221b#.",
"..##aaaaa##.."};
