/* XPM */
static char *dummy[]={
"13 14 37 1",
". c None",
"C c #737275",
"B c #757476",
"a c #838383",
"y c #868588",
"j c #868686",
"t c #8a8a8a",
"D c #8c8c8c",
"# c #8e8e8e",
"p c #979798",
"u c #9b9a9d",
"m c #9d9c9e",
"q c #aeadb0",
"b c #b4b4b4",
"f c #b8b8b8",
"n c #bbbabd",
"x c #bbbbbb",
"F c #c2c2c2",
"H c #c9c9c9",
"G c #cacaca",
"s c #cccccc",
"E c #d0d0d0",
"c c #d1d1d1",
"I c #d3d3d3",
"z c #d6d6d6",
"h c #dadada",
"o c #dcdcdc",
"A c #dddddd",
"g c #dedede",
"l c #e0e0e0",
"d c #e3e3e3",
"w c #e7e7e7",
"i c #ebebeb",
"v c #eeeeee",
"e c #efefef",
"k c #f3f3f3",
"r c #ffffff",
".............",
"..##aaaaa##..",
".#bcdeeedcb#.",
"#fghdddddhgf#",
"aihdddddddhij",
"aklllmnmlllka",
"akoopqrqpooka",
"aestuvvvutsea",
"awxyzzzzzyxda",
"jAxBCCCCCBxAj",
"DEFxxxxxxxFED",
"#fGFxxxxxFGf#",
".#bHcIIIcHb#.",
"..##jaaaj##.."};
