/* XPM */
static char *dummy[]={
"1 23 8 1",
". c #707070",
"a c #cfd6e8",
"c c #d1d7e5",
"b c #d1d7e7",
"d c #d2d7e5",
"f c #d3d7e2",
"e c #d3d8e4",
"# c #e1e6f1",
".",
"#",
"a",
"a",
"a",
"a",
"a",
"a",
"b",
"c",
"d",
"e",
"f",
"e",
"e",
"e",
"f",
"e",
"d",
"c",
"b",
"a",
"a"};
