/* XPM */
static char *dummy[]={
"1 23 3 1",
". c #707070",
"a c #a4acc0",
"# c #eeeff3",
".",
"#",
"a",
"a",
"a",
"a",
"a",
"a",
"a",
"a",
"a",
"a",
"a",
"a",
"a",
"a",
"a",
"a",
"a",
"a",
"a",
"a",
"a"};
