/* XPM */
static char *dummy[]={
"13 23 17 1",
"g c None",
"# c None",
"f c #c9c9c9",
"i c #c8c8c8",
"j c #cecece",
"o c #c4c4c4",
"n c #c5c5c5",
"m c #c6c6c6",
"l c #c7c7c7",
"k c #c8c8c8",
"h c #cccccc",
"e c #cecece",
". c #d6d6d6",
"d c #d7d7d7",
"c c #d9d9d9",
"b c #dadada",
"a c #dbdbdb",
"........#####",
"aabbbcddd.###",
"eeeeeeeeef.gg",
"hhhhhhhhhhi.g",
"hhhhhhhhhhhdg",
"hhhhhhhhhhhj.",
"hhhhhhhhhhhk.",
"hhhhhhhhhhhl.",
"hhhhhhhhhhhl.",
"hhhhhhhhhhhm.",
"hhhhhhhhhhhm.",
"hhhhhhhhhhhm.",
"hhhhhhhhhhhn.",
"hhhhhhhhhhhn.",
"hhhhhhhhhhho.",
"hhhhhhhhhhho.",
"hhhhhhhhhhho.",
"hhhhhhhhhhho.",
"hhhhhhhhhhho.",
"hhhhhhhhhhho.",
"hhhhhhhhhhho.",
"hhhhhhhhhhho.",
"hhhhhhhhhhho."};
