/* XPM */
static char *dummy[]={
"13 23 17 1",
"e c None",
". c None",
"f c #c9c9c9",
"h c #c8c8c8",
"j c #cecece",
"o c #c4c4c4",
"n c #c5c5c5",
"m c #c6c6c6",
"l c #c7c7c7",
"k c #c8c8c8",
"i c #cccccc",
"g c #cecece",
"# c #d6d6d6",
"a c #d7d7d7",
"b c #d9d9d9",
"c c #dadada",
"d c #dbdbdb",
".....########",
"...#aaabcccdd",
"ee#fggggggggg",
"e#hiiiiiiiiii",
"eaiiiiiiiiiii",
"#jiiiiiiiiiii",
"#kiiiiiiiiiii",
"#liiiiiiiiiii",
"#liiiiiiiiiii",
"#miiiiiiiiiii",
"#miiiiiiiiiii",
"#miiiiiiiiiii",
"#niiiiiiiiiii",
"#niiiiiiiiiii",
"#oiiiiiiiiiii",
"#oiiiiiiiiiii",
"#oiiiiiiiiiii",
"#oiiiiiiiiiii",
"#oiiiiiiiiiii",
"#oiiiiiiiiiii",
"#oiiiiiiiiiii",
"#oiiiiiiiiiii",
"#oiiiiiiiiiii"};
