/* XPM */
static char *dummy[]={
"4 4 4 1",
". c #161d2d",
"b c #283243",
"a c #434c5a",
"# c #798188",
".#ab",
".#aa",
".###",
"...."};
