/* XPM */
static char *dummy[]={
"21 23 258 2",
"Qt c None",
"a8 c #1a2430",
"aR c #1a2532",
"ay c #1b2533",
"ap c #1e2835",
"af c #212b38",
"bY c #232b3d",
"bG c #242b3e",
"#7 c #242d3a",
"ae c #252e3c",
"#X c #2a333f",
"#N c #2e3743",
"#W c #2f3844",
"bZ c #2f3947",
"b0 c #333c49",
"c# c #333c4a",
"bH c #363f4a",
"b1 c #39414d",
"c. c #39414e",
".b c #3a4252",
".d c #3e4656",
"b2 c #404652",
"b9 c #404752",
".r c #474b57",
"b3 c #474c58",
".c c #485260",
".a c #4c5664",
"b4 c #4e525d",
"b5 c #545761",
"b6 c #595b65",
"b7 c #5c5d67",
"b8 c #5c5e67",
".# c #65727a",
"bn c #958ca3",
"bI c #9796af",
"bF c #998ba3",
".s c #af8696",
".e c #b08795",
".q c #b78391",
".J c #bb818d",
".u c #c27c6a",
".v c #cb7a66",
".t c #ce8877",
".O c #d07662",
".w c #d27761",
".P c #d57762",
".4 c #d6765f",
".x c #d67761",
".Q c #d77762",
".5 c #d9765f",
"#k c #d97e69",
"#l c #da816c",
"#m c #da846e",
".y c #db7660",
".R c #db7862",
"#n c #db846f",
".z c #dc7761",
".S c #dc7762",
".6 c #dd7761",
"#S c #de583a",
".A c #df755f",
"#B c #df7862",
".T c #df7961",
"#t c #df8570",
".B c #e0765f",
".U c #e07860",
"#u c #e08773",
"#v c #e08874",
"#T c #e16242",
".V c #e1745f",
".7 c #e17861",
"#J c #e17b63",
"#2 c #e25d39",
".W c #e3725b",
".D c #e3735a",
".C c #e3745b",
"#K c #e3836c",
"aa c #e4623d",
"#U c #e46b4a",
"#h c #e46c51",
".K c #e4907d",
"#3 c #e56741",
".X c #e57157",
".8 c #e57962",
"#C c #e58e79",
"#D c #e58f7b",
"ak c #e66638",
"#s c #e76c50",
".Y c #e76c53",
"ab c #e76d46",
"#4 c #e77049",
".E c #e77157",
"#. c #e7775f",
".9 c #e77761",
".f c #e7927f",
"#e c #e88a74",
".0 c #e88c77",
".F c #e96d53",
"al c #e97140",
".g c #e9917e",
"#L c #e99580",
"#R c #ea4a16",
"au c #ea714d",
"#a c #ea7358",
"ac c #ea764e",
"## c #ea765d",
"#5 c #ea784f",
"#A c #eb6c51",
".N c #ec6a4e",
"#I c #ec6e50",
"#O c #ec6e53",
"#p c #ec8973",
"#1 c #ed4d15",
"#b c #ed6f54",
"#F c #ed8670",
"#x c #ed8671",
".h c #ed927d",
"#y c #ee5f3f",
"#c c #ee6a4e",
".G c #ee6b4f",
"#o c #ee8871",
".i c #ee917d",
".j c #ee917e",
"#G c #ef5c3d",
"#q c #ef5f41",
"#f c #ef6243",
"#V c #ef6e51",
"#Y c #ef7055",
"#M c #ef846d",
"am c #ef8750",
"#E c #ef876e",
"#i c #efc9bf",
"#P c #f03506",
".1 c #f06346",
"#w c #f0876f",
"#d c #f08972",
".l c #f0917b",
".k c #f0927b",
"a# c #f15210",
".2 c #f16445",
".L c #f16548",
".M c #f16649",
".3 c #f16849",
"#6 c #f17051",
"#8 c #f17157",
".I c #f17a5f",
".Z c #f18a73",
".m c #f28f79",
"av c #f2916a",
"aw c #f2926b",
"#Z c #f33802",
"aj c #f35509",
"ad c #f37152",
"aD c #f3997b",
".H c #f4684a",
".n c #f48e78",
"aE c #f49d7f",
"aF c #f49e80",
"#g c #f56343",
"ag c #f57255",
".o c #f58d76",
"aW c #f59b83",
"bJ c #f5bdb1",
"ai c #f64c00",
"at c #f66124",
"#r c #f66342",
"ao c #f67250",
"aq c #f6775b",
".p c #f68c74",
"aM c #f6a085",
"aX c #f6a58e",
"bK c #f6c3b7",
"bM c #f6cfc5",
"#9 c #f73b00",
"a. c #f74800",
"#z c #f76040",
"bo c #f79b86",
"aN c #f7a68c",
"aO c #f7aa90",
"aP c #f7ab91",
"bL c #f7c8be",
"ah c #f83d00",
"#0 c #f84100",
"#H c #f8633e",
"az c #f87f64",
"bp c #f89e88",
"bb c #f8a490",
"bq c #f8a792",
"aY c #f8ad95",
"bN c #f8d2c9",
"bc c #f9af9a",
"br c #f9af9c",
"bO c #f9d6ce",
"bP c #f9d8d0",
"#Q c #fa3d00",
"aC c #fa6e40",
"ax c #fa7856",
"aH c #fa866d",
"bE c #fa9b82",
"bm c #fa9d85",
"a9 c #fa9d88",
"aZ c #fab39c",
"a0 c #fab79f",
"bs c #fab8a7",
"bX c #fabdac",
"bt c #fabfae",
"bU c #facdc0",
"aL c #fad1c6",
"bQ c #fad9d0",
"aG c #fb7f5f",
"aS c #fb937b",
"bd c #fbb6a2",
"a1 c #fbb99d",
"be c #fbbca8",
"bf c #fbc0ab",
"bu c #fbc3b3",
"bv c #fbc6b7",
"bw c #fbc7b8",
"bV c #fbc8ba",
"bT c #fbd2c6",
"bS c #fbd6cb",
"bR c #fbd9ce",
"aQ c #fc886b",
"a7 c #fc9377",
"a2 c #fcb798",
"bg c #fcc0ab",
"bW c #fcc2b2",
"by c #fcc3af",
"aK c #fd7d57",
"bA c #fdb7a0",
"bz c #fdbea9",
"bh c #fdbfa9",
"bx c #fdc6b5",
"a3 c #feb292",
"bi c #febca3",
"an c #fef7f3",
"ar c #ff480b",
"as c #ff550a",
"aA c #ff5724",
"aB c #ff6229",
"aI c #ff673d",
"aJ c #ff7447",
"aT c #ff7956",
"aU c #ff845f",
"b. c #ff896a",
"aV c #ff9069",
"b# c #ff9373",
"a6 c #ff9b74",
"ba c #ff9c7c",
"bD c #ff9f83",
"a5 c #ffa57f",
"bl c #ffa588",
"bC c #ffa78b",
"a4 c #ffad88",
"bk c #ffaf91",
"bB c #ffaf96",
"bj c #ffb69b",
"#j c #ffffff",
"QtQtQtQtQtQtQtQtQtQtQtQtQtQtQtQtQtQtQtQtQt",
"QtQtQtQtQtQtQtQtQtQtQtQtQtQtQtQtQtQtQtQtQt",
".#.a.b.b.b.b.b.b.b.b.b.b.b.b.b.b.b.b.b.c.#",
".a.d.e.f.g.h.h.i.j.k.k.k.l.m.m.n.o.p.q.r.c",
".b.s.t.u.v.w.x.y.z.A.B.B.C.D.E.F.G.H.I.J.b",
".b.K.L.M.N.O.P.Q.R.S.T.U.V.W.X.Y.N.M.L.Z.b",
".b.0.1.2.3.4.5.6.7.8.9#.###a#b#c.3.2.1#d.b",
".b#e#f#g#h#i#j#k#l#m#n#m#l#k#j#i#h#g#f#o.b",
".b#p#q#r#s#j#j#j#t#u#v#u#t#j#j#j#s#r#q#w.b",
".b#x#y#z#A#B#j#j#j#C#D#C#j#j#j#B#A#z#y#E.b",
".b#F#G#H#I#J#K#j#j#j#L#j#j#j#K#J#I#H#G#M.b",
"#N#O#P#Q#R#S#T#U#j#j#j#j#j#U#T#S#R#Q#P#V#W",
"#X#Y#Z#0#1#2#3#4#5#j#j#j#5#4#3#2#1#0#Z#6#X",
"#7#8#9a.a#aaabac#j#j#j#j#jacabaaa#a.#9adae",
"afagahaiajakal#j#j#jam#j#janalakajaiahaoaf",
"apaqarasatau#j#j#javawav#j#j#jauatasaraxap",
"ayazaAaBaC#j#j#jaDaEaFaEaD#j#j#jaCaBaAaGay",
"ayaHaIaJaKaL#jaMaNaOaPaOaNaM#jaLaKaJaIaQay",
"aRaSaTaUaVaWaXaYaZa0a1a2a3a4a5a6aVaUaTa7aR",
"a8a9b.b#babbbcbdbebfbgbhbibjbkblbab#b.bma8",
"a8bnbobpbqbrbsbtbubvbwbxbybzbAbBbCbDbEbFa8",
"bGbHbIbJbKbLbMbNbObPbQbRbSbTbUbVbWbXbIbHbG",
"bYbGbZb0b1b2b3b4b5b6b7b8b6b5b4b3b9c.c#bGbY"};
