/* XPM */
static char *dummy[]={
"21 23 84 2",
"Qt c None",
".c c #000001",
".d c #000005",
".u c #00030f",
".r c #060c17",
"#a c #08101c",
".k c #0b0f19",
".b c #0b101b",
"#q c #0c1523",
".e c #0f121e",
"#p c #0f1925",
".g c #121721",
".m c #121925",
".q c #121a25",
"#r c #16202b",
"#o c #1e2835",
"## c #1f2837",
"#m c #1f2937",
".a c #212935",
"#n c #232b3d",
".f c #2e3743",
".l c #2f3844",
".# c #65727a",
".8 c #981212",
".N c #991212",
".Y c #9b1414",
".S c #9c1515",
"#. c #a11818",
".9 c #b12323",
".h c #b52525",
".7 c #b82727",
".P c #bb2929",
".5 c #bb4e3f",
".R c #bc2a2a",
".i c #bd2a2a",
".H c #c33030",
".6 c #c35443",
".z c #c7574b",
".j c #c83030",
".D c #c93333",
".y c #ce3737",
".C c #cf5c4d",
".w c #d23a3a",
".n c #d43c3c",
".A c #d59485",
".E c #d79585",
".x c #d83e3e",
".F c #d89585",
".v c #d94040",
".I c #d99585",
".J c #da9686",
".K c #db9686",
".M c #dc9786",
".B c #dc9887",
".s c #dd3f3f",
".G c #dd9887",
".Z c #dd9987",
".X c #de917c",
".L c #de9987",
".t c #df4444",
".Q c #df9a87",
".O c #df9a88",
".T c #e09b88",
".V c #e19d89",
"#b c #e24747",
".U c #e29d89",
".W c #e39e89",
".0 c #e39f8a",
"#l c #e44848",
".1 c #e59f8b",
".2 c #e5a08b",
".3 c #e6a08b",
".4 c #e6a18b",
".o c #e74c4b",
".p c #e94e4e",
"#c c #f55555",
"#d c #f55656",
"#k c #f75757",
"#e c #f95959",
"#f c #fa5a5a",
"#g c #fc5b5b",
"#h c #fe5c5c",
"#i c #ff5d5d",
"#j c #ff5f5f",
"QtQtQtQtQtQtQtQtQtQtQtQtQtQtQtQtQtQtQtQtQt",
"QtQtQtQtQtQtQtQtQtQtQtQtQtQtQtQtQtQtQtQtQt",
".#.a.b.c.c.d.d.d.d.d.d.d.d.d.d.d.c.c.e.f.#",
".a.g.h.i.i.i.i.i.i.i.i.i.i.i.i.i.i.i.j.k.l",
".m.n.o.p.p.p.p.p.p.p.p.p.p.p.p.p.p.p.o.n.q",
".r.s.t.t.t.t.t.t.t.t.t.t.t.t.t.t.t.t.t.n.u",
".r.v.w.w.w.w.w.w.w.w.w.w.w.w.w.w.w.w.w.v.u",
".r.x.y.y.y.z.A.y.y.y.y.y.y.y.B.C.y.y.y.x.u",
".r.n.D.D.D.A.E.F.D.D.D.D.D.G.G.G.D.D.D.n.u",
".r.w.H.H.H.H.I.J.K.H.H.H.G.L.L.H.H.H.H.w.u",
".r.D.h.h.h.h.h.K.M.M.h.G.L.L.h.h.h.h.h.D.u",
".r.i.N.N.N.N.N.N.M.G.L.L.O.N.N.N.N.N.N.i.u",
".r.P.N.N.N.N.N.N.N.L.Q.O.N.N.N.N.N.N.N.P.u",
".r.R.S.S.S.S.S.S.G.Q.O.T.U.S.S.S.S.S.S.R.u",
".r.R.S.S.S.S.S.G.L.O.S.V.W.X.S.S.S.S.S.R.u",
".r.P.Y.Y.Y.Y.G.Z.Q.Y.Y.Y.0.1.2.Y.Y.Y.Y.P.u",
".r.P.Y.Y.Y.G.G.L.Y.Y.Y.Y.Y.2.3.4.Y.Y.Y.P.u",
".r.P.Y.Y.Y.5.Z.Y.Y.Y.Y.Y.Y.Y.4.6.Y.Y.Y.P.u",
".r.7.N.N.N.N.N.N.N.N.N.N.N.N.N.N.N.N.N.7.u",
".r.7.8.8.8.8.8.8.8.8.8.8.8.8.8.8.8.8.8.7.u",
".r.i.9#.#.#.#.#.#.#.#.#.#.#.#.#.#.#..9.i.u",
"###a#b#c#d#e#f#g#h#i#j#i#i#h#g#e#k#d#l#a#m",
"#n#o#p#p#p#p#p#p#p#p#p#p#p#p#p#p#p#p#q#r#n"};
