/* XPM */
static char *dummy[]={
"21 23 63 1",
". c None",
"b c #2d3641",
"k c #2d3642",
"s c #2e3744",
"v c #2f3844",
"w c #313a46",
"z c #333c48",
"D c #343d49",
"E c #38404b",
"G c #38414c",
"a c #3a4351",
"d c #3b434d",
"H c #3b444f",
"c c #3b4452",
"L c #3d4550",
"y c #3d4958",
"# c #3e4856",
"B c #3e4a59",
"u c #3f4b58",
"A c #3f4b59",
"M c #414857",
"r c #424d59",
"q c #424d5a",
"F c #444f5d",
"6 c #454c5a",
"o c #464f5c",
"J c #485462",
"K c #485463",
"m c #4a525f",
"j c #4f5661",
"5 c #545f6a",
"O c #56616d",
"C c #58616c",
"x c #58626c",
"I c #58626d",
"Q c #58626e",
"S c #58626f",
"t c #5b646e",
"U c #5b6671",
"W c #5d6872",
"p c #5f6871",
"Y c #616a74",
"g c #626971",
"0 c #636d76",
"i c #646a72",
"n c #646b74",
"N c #646c76",
"P c #656d76",
"T c #666e78",
"3 c #666f78",
"V c #676f78",
"X c #686f78",
"Z c #697079",
"l c #697178",
"8 c #6a767e",
"4 c #6b7179",
"1 c #6b717a",
"e c #6b7278",
"2 c #6c747c",
"h c #6f767c",
"7 c #727980",
"f c #797f84",
"R c #ffffff",
".....................",
".....................",
"#abbbbbbbbbbbbbbbbba#",
"cdefffffffffffffffedc",
"bghiiiiiiiiiiiiiiihgb",
"bhjjjjjjjjjjjjjjjjjhb",
"klmmmmmmmmmmmmmmmmmlk",
"knooooooooooooooooonk",
"kpqrrrrrrqqqqqqqqqqpk",
"stuuuuuuuuuuuuuuuuutv",
"wxyyyyyyyyyyyyyyyyyxw",
"zxABAABBBBBABAABBAACD",
"ECFFFFFFFFFFFFFFFFFCG",
"HIJKKKKKJKKKKKKKKKKIL",
"MNOOOOOOOOOOOOOOOOONM",
"MPQQQRRRRRRRQQQQSQQPM",
"MTUUURRRRRRRUUUUUUUTM",
"MVWWWRRRRRRRWWWWWWWVM",
"MXYYYYYYYYYYYYYYYYYXM",
"MZ00000000000000000ZM",
"M1233333333333333324M",
"5677777777777777777M5",
"85MMMMMMMMMMMMMMMMM58"};
