/* XPM */
static char *dummy[]={
"21 23 58 1",
". c None",
"c c #000002",
"d c #000006",
"r c #000510",
"I c #050c1b",
"H c #050d1b",
"B c #060d1b",
"E c #060f1c",
"p c #070d19",
"D c #070f1c",
"C c #08101e",
"N c #0a111e",
"L c #0b1220",
"j c #0c101a",
"b c #0c111c",
"2 c #0d1624",
"e c #10141f",
"1 c #101a26",
"g c #141923",
"l c #141a26",
"o c #141b26",
"K c #141b29",
"z c #141c2a",
"G c #161f2d",
"x c #16202e",
"3 c #17212d",
"A c #19202e",
"J c #1a212f",
"v c #1b2533",
"h c #1c212b",
"i c #1e242e",
"y c #1f2835",
"t c #1f2937",
"M c #202938",
"Z c #202a38",
"a c #232a37",
"0 c #232b3d",
"w c #242d3a",
"u c #252e3c",
"m c #262d38",
"s c #29323e",
"q c #2d3541",
"O c #2d3542",
"Y c #2e3743",
"f c #2f3844",
"k c #303946",
"n c #353d47",
"P c #373f4c",
"Q c #38414d",
"X c #39414e",
"R c #39424e",
"W c #394250",
"S c #3a4351",
"T c #3c4452",
"U c #3d4654",
"V c #3d4655",
"# c #65727a",
"F c #babbbc",
".....................",
".....................",
"#abccdddddddddddccef#",
"aghhhhhhhhhhhhhhhhijk",
"lmnnnnnnnnnnnnnnnnnmo",
"pqqqqqqqqqqqqqqqqqqqr",
"psssssssssssssssssssr",
"ptttttttttttttttttttr",
"puvvvvvvvvvvvvvvvvvur",
"pwxxxxxxxxxxxxxxxxxwr",
"pyzzzzzzzzzzzzzzzzzyr",
"pABBBBBBBBBBBBBBBBBAr",
"pACCCCCCCCCCCCCCCCDAr",
"pACCCCCCCCCCCCCCCCCAr",
"pACCCCCCCCCCCCCCCCCAr",
"pAEEEFFFFFFFEEEEEEEAr",
"pAEEEFFFFFFFEEEEEEEAr",
"pAEEEFFFFFFFEEEEEEEAr",
"pGHHHHHHHHHHHHHHHHHGr",
"pGIIIIIIIIIIIIIIIIIGr",
"pJKLLLLLLLLLLLLLLLKJr",
"MNOPQRSTUVVVVUSWXPYNZ",
"0t1111111111111111230"};
