/* XPM */
static char *dummy[]={
"21 23 199 2",
"Qt c None",
"aw c #1f2936",
"am c #1f2b38",
"#3 c #202a38",
"ab c #202b39",
"a3 c #232b3d",
"#R c #232d3b",
"a5 c #25303b",
"#G c #27313d",
"#u c #28313f",
"#F c #293240",
"aS c #293243",
"a4 c #2a3244",
"be c #2b3444",
"a6 c #2c3742",
"#j c #2e3744",
"## c #313a46",
"#i c #323b48",
"aT c #333c47",
"a7 c #343f4b",
".b c #3c4354",
".c c #3d4455",
"a8 c #3d4955",
".4 c #3e4556",
".e c #3f4757",
"#w c #404e5c",
"#I c #414e5e",
"#T c #434f5e",
".d c #444d5c",
"#l c #465261",
"a9 c #46535f",
"#x c #475564",
"#5 c #485361",
"#b c #495566",
"#J c #495665",
"#h c #495666",
"#U c #4b5766",
"ad c #4d5664",
".a c #4d5765",
"#m c #4d5867",
"b. c #4e5c68",
"#c c #4f5c6b",
"#y c #505e6c",
".i c #515764",
"ao c #515a68",
"#6 c #515b69",
"#K c #525f6e",
"#V c #54616f",
"ae c #555f6c",
"#n c #55606e",
"b# c #556370",
"#a c #56626d",
"#d c #566372",
"ay c #575f6a",
".U c #57636e",
"bd c #576471",
"#k c #58616d",
".5 c #586270",
"#v c #59626e",
"#H c #59636f",
".N c #596471",
"ap c #5a6370",
".V c #5a6672",
"#E c #5a6775",
"ba c #5a6874",
"#7 c #5b6573",
".F c #5b6671",
"bb c #5b6a76",
".z c #5c6671",
".6 c #5c6674",
".O c #5c6774",
"bc c #5c6975",
"#S c #5d6770",
".G c #5d6873",
"#Q c #5d6978",
"#2 c #5e6771",
".A c #5e6772",
"#t c #5e6977",
"#g c #5e6a79",
"az c #5f6772",
".B c #5f6974",
"af c #5f6976",
".W c #5f6a76",
".3 c #5f6a77",
"#1 c #5f6c7a",
".t c #606a75",
".P c #606a77",
"#4 c #616973",
".u c #616b76",
"aa c #626b75",
".l c #626c76",
".7 c #626c79",
".T c #636c76",
".m c #636d77",
".L c #636d78",
"aH c #646c72",
".C c #646d78",
".H c #646d79",
".n c #646e78",
".v c #646e79",
".Q c #646f7b",
"#z c #64717f",
".M c #656c76",
".o c #656f78",
".X c #65707b",
".# c #65727a",
".s c #666e78",
".p c #666f79",
".q c #66707a",
"a# c #66707d",
".I c #66717b",
".y c #676f79",
"ac c #677078",
".w c #67717c",
"#L c #677482",
".r c #68727c",
"#o c #687280",
".j c #696f79",
"aA c #69717b",
".k c #69727a",
".x c #69727d",
".R c #69737f",
"#. c #697380",
".D c #6a737e",
".E c #6a747e",
"ag c #6a7480",
".J c #6a757f",
"#W c #6a7684",
".Y c #6b7681",
"aU c #6c727a",
"an c #6c737c",
"#A c #6d7a88",
".S c #6e7883",
"aq c #6f7784",
"#f c #6f7b89",
".f c #70787f",
"a. c #707a87",
"#p c #707b88",
".g c #717980",
".Z c #717c87",
"#M c #717d8c",
".h c #727a81",
"ax c #737980",
"aB c #737b85",
"#X c #737f8d",
"aJ c #757a82",
"ah c #757e8a",
"#B c #75828f",
".0 c #76818b",
"#e c #76818f",
".9 c #77818d",
"aR c #787e85",
"#q c #78828f",
"#N c #788493",
"ar c #79818d",
"#9 c #798490",
"#C c #798794",
".1 c #7a848e",
"#Y c #7a8794",
".2 c #7b8590",
"#D c #7b8896",
"#r c #7c8794",
".8 c #7d8793",
"#O c #7d8998",
"aK c #7e838b",
"aI c #7e8489",
"aC c #7e858f",
"ai c #7e8793",
"#s c #7e8995",
"#P c #7f8b99",
"#Z c #808c99",
"#8 c #818b97",
"#0 c #818d9b",
"as c #828b96",
"aj c #868f9a",
"aD c #878e98",
"aL c #888d94",
"aV c #898f93",
"at c #8a929d",
"ak c #8a939f",
"al c #8c95a0",
"aE c #8e959f",
"au c #8e96a2",
"av c #9098a3",
"aW c #91969a",
"aM c #91969d",
"aF c #939aa4",
"aG c #959ca5",
"aX c #9a9ea2",
"aN c #9a9ea5",
"aO c #a1a5ac",
"aY c #a2a7aa",
"aP c #a5aab0",
"aQ c #a7abb1",
"aZ c #aaaeb2",
"a0 c #b0b4b7",
"a1 c #b4b8bb",
"a2 c #b6b9bc",
".K c #ffffff",
"QtQtQtQtQtQtQtQtQtQtQtQtQtQtQtQtQtQtQtQtQt",
"QtQtQtQtQtQtQtQtQtQtQtQtQtQtQtQtQtQtQtQtQt",
".#.a.b.b.b.b.c.c.c.c.c.c.c.c.c.b.b.b.b.d.#",
".a.e.f.f.g.g.g.h.h.h.h.h.h.h.g.g.g.f.f.i.d",
".b.j.k.l.l.m.n.o.p.q.r.r.p.o.n.m.n.n.k.j.b",
".b.s.t.t.u.m.v.q.w.r.x.r.w.q.v.m.u.t.t.s.b",
".b.y.z.A.B.u.C.q.r.D.E.D.r.q.C.u.B.A.z.y.b",
".b.s.F.G.t.H.I.J.K.K.K.K.K.K.K.L.t.G.F.s.b",
".c.M.N.O.P.Q.R.S.K.K.K.K.K.K.K.Q.P.O.N.M.c",
".c.T.U.V.W.X.Y.Z.0.1.2.1.0.Z.K.X.3.V.U.T.c",
".4.T.5.6.7.K.K.K.K.K.K.K.8.9.K#..7.6.5.T.4",
"###a#b#c#d.K.K.K.K.K.K.K#e#f.K#g#d#c#h#a#i",
"#j#k#l#m#n.K#o#p#q#r#s.K#q#p.K#t#n#m#l#k#j",
"#u#v#w#x#y.K#z#A#B#C#D.K#B.K.K#E#y#x#w#v#F",
"#G#H#I#J#K.K#L#M#N#O#P.K#N#M#L#Q#K#J#I#H#G",
"#R#S#T#U#V.K#W#X#Y#Z#0.K#Y#X#W#1#V#U#T#2#R",
"#3#4#5#6#7.K.K.K.K.K.K.K#8#9a.a##7#6#5aa#3",
"abacadaeafagahaiajakalakajaiahagafaeadacab",
"amanaoap.Haqarasatauavauatasaraq.Hapaoanam",
"awaxayazaAaBaCaDaEaFaGaFaEaDaCaBaAazayaxaw",
"awaHaIaJaKaLaMaNaOaPaQaPaOaNaMaLaKaJaRaHaw",
"aSaTaUaVaWaXaYaZa0a1a2a1a0aZaYaXaWaVaUaTaS",
"a3a4a5a6a7a8a9b.b#babbbcbdb.a9a8a7a6a5bea3"};
