/* XPM */
static char *dummy[]={
"1 30 25 1",
"a c #414855",
". c #414857",
"b c #424955",
"c c #444b58",
"d c #464d59",
"e c #474f5b",
"f c #48515c",
"g c #4a525e",
"h c #4a535f",
"i c #4c5661",
"j c #4d5762",
"k c #4f5964",
"l c #59636d",
"m c #5b656f",
"w c #5f6772",
"n c #5f6872",
"o c #616b74",
"p c #626b74",
"q c #646d76",
"# c #666f78",
"r c #667078",
"s c #69737b",
"t c #6b747b",
"u c #6d767d",
"v c #6e787e",
".",
"#",
"a",
"b",
"c",
"d",
"d",
"e",
"f",
"g",
"h",
"h",
"i",
"j",
"k",
"k",
"l",
"m",
"n",
"o",
"p",
"q",
"r",
"r",
"s",
"t",
"u",
"v",
"v",
"w"};
