/* XPM */
static char *dummy[]={
"9 30 50 1",
". c None",
"d c #414855",
"# c #414857",
"e c #424955",
"i c #424958",
"k c #424a58",
"m c #424a59",
"f c #444b58",
"o c #444b5a",
"q c #444c5b",
"s c #444d5b",
"g c #464d59",
"u c #464e5d",
"j c #474f5b",
"w c #47505e",
"l c #48515c",
"x c #48515f",
"z c #485260",
"a c #494f5a",
"n c #4a525e",
"p c #4a535f",
"B c #4a5361",
"D c #4a5462",
"F c #4b5664",
"r c #4c5661",
"I c #4c5865",
"t c #4d5762",
"K c #4d5966",
"L c #4e5967",
"v c #4f5964",
"N c #4f5b68",
"P c #4f5c69",
"R c #505d69",
"T c #515e6b",
"U c #515f6b",
"y c #59636d",
"A c #5b656f",
"V c #5f6772",
"C c #5f6872",
"E c #616b74",
"G c #626b74",
"H c #646d76",
"b c #666f78",
"J c #667078",
"c c #677078",
"M c #69737b",
"O c #6b747b",
"Q c #6d767d",
"S c #6e787e",
"h c #747c85",
".....####",
"...##abbb",
"..#abcddd",
".#abeeeee",
".#bffffff",
"##bgggggg",
"#hggggggg",
"ihjjjjjjj",
"khlllllll",
"mhnnnnnnn",
"ohppppppp",
"ohppppppp",
"qhrrrrrrr",
"shttttttt",
"uhvvvvvvv",
"whvvvvvvv",
"xhyyyyyyy",
"zhAAAAAAA",
"BhCCCCCCC",
"DhEEEEEEE",
"FhGGGGGGG",
"FhHHHHHHH",
"IhJJJJJJJ",
"KhJJJJJJJ",
"LhMMMMMMM",
"NhOOOOOOO",
"PhQQQQQQQ",
"RhSSSSSSS",
"ThSSSSSSS",
"UhQVVVVVV"};
