/* XPM */
static char *dummy[]={
"3 3 3 1",
". c #7d7d7d",
"a c #aeadae",
"# c #efefef",
".#a",
".##",
"..."};
