/* XPM */
static char *dummy[]={
"17 15 80 2",
"Qt c None",
"#l c #616062",
"#h c #616063",
"#g c #626164",
"## c #68676a",
"#e c #69686b",
".8 c #69696b",
"#k c #6b696b",
".2 c #6c6b6e",
"#b c #6e6e6f",
".5 c #747375",
".U c #767577",
".O c #79797a",
".K c #7b7a7b",
".Y c #7e7e7e",
"#m c #848484",
".G c #858586",
".z c #868687",
"#i c #878787",
"#f c #888889",
".E c #8a898c",
".r c #8d8c8e",
".u c #8d8d8e",
".x c #8f8e91",
".P c #939294",
".# c #95989f",
".l c #969697",
".m c #979697",
".p c #979798",
".i c #9a9a9b",
".F c #9c9c9c",
"#j c #9e9e9e",
".e c #a0a0a1",
".d c #a1a1a2",
".V c #a3a2a2",
".3 c #a3a2a4",
".g c #a4a3a4",
"#a c #a9a8a9",
".T c #aaaaab",
".v c #afb0b2",
".Z c #b1b2b2",
"#c c #bababb",
".y c #bbbabb",
".H c #bcbcbd",
".A c #bdbcbe",
".L c #bdbdbd",
".N c #bebebe",
".6 c #bfbfbf",
".7 c #c0c0c0",
".X c #c1c0c0",
".M c #c1c1c1",
".W c #c2c1c1",
".1 c #c2c2c3",
".B c #c4c4c5",
".4 c #c6c6c7",
".t c #c8c7c9",
".f c #c8c8c8",
"#n c #cccccc",
"#. c #cdcccd",
".9 c #cdcdcd",
"#d c #d4d4d4",
".D c #d5d4d5",
".R c #d5d5d5",
".q c #d6d6d6",
".n c #d9d9d9",
".J c #dddcdd",
".h c #dddddd",
".s c #dedddf",
".j c #dfdee0",
".b c #dfdfdf",
".c c #e4e4e4",
".k c #e6e6e7",
".o c #e8e8e9",
".0 c #f4f4f3",
".Q c #f4f4f4",
".w c #f4f4f5",
".S c #f5f5f5",
".I c #fbfbfb",
".C c #fefefe",
".a c #ffffff",
"QtQtQtQtQtQtQtQtQtQtQtQtQtQtQtQtQt",
"Qt.#.#.#.#.#.#.#.#.#.#.#.#.#.#.#Qt",
".#.a.a.a.a.a.a.a.a.a.a.a.a.a.a.a.#",
".#.b.c.c.b.d.e.f.c.c.g.e.f.c.c.b.#",
".#.b.h.h.i.j.k.l.h.m.n.o.p.h.h.b.#",
".#.b.q.q.r.s.a.t.u.v.a.w.x.q.q.b.#",
".#.b.q.q.y.z.A.a.B.C.D.E.F.q.q.b.#",
".#.b.q.q.q.q.G.H.I.J.K.L.q.q.q.b.#",
".#.b.M.M.N.O.P.Q.R.S.T.U.V.W.W.b.#",
".#.b.X.X.Y.Z.0.1.2.3.0.4.5.W.W.b.#",
".#.b.6.7.8.9#.###a#b#c#d#e.W.W.b.#",
".#.b.6.7#f#g#h#i.W#j#k#l#m.W.W.b.#",
".#.b.7.X.7.X.W.W.W.W.W.W.W.W.W.b.#",
".#.9.9.9.9.9#n#n#n#n#n.9.9.9.9.9.#",
"Qt.#.#.#.#.#.#.#.#.#.#.#.#.#.#.#Qt"};
