/* XPM */
static char *dummy[]={
"17 15 114 2",
"Qt c None",
"#b c #707a82",
"#d c #717b82",
"#c c #7b7a7d",
".M c #878b8f",
".4 c #939295",
".e c #95989f",
".d c #9599a1",
".# c #959aa1",
".a c #959aa2",
"#Q c #95bbec",
"#N c #95bbef",
"#O c #95bcef",
".b c #969ba3",
".c c #969ba4",
"#P c #96bae9",
"#R c #97b8e4",
"#M c #97b8e8",
"#S c #98b5da",
"#L c #99b5da",
"#T c #9ab1cf",
"#K c #9ab3d3",
"#J c #9cb0cb",
"#I c #9daec5",
"#U c #9dafc8",
"#V c #9eadc2",
"#. c #a9b7c0",
"## c #a9bbc7",
".S c #aab2b6",
".T c #aab3b9",
".1 c #aab4b9",
".U c #aab4ba",
".2 c #aab6bd",
".3 c #aab8c0",
"#j c #aabac6",
"#a c #aabecc",
"#k c #aabece",
"#l c #aac1d3",
"#m c #aac4d9",
".V c #abaaad",
".J c #abb2b6",
".K c #abb4b9",
".L c #abb4ba",
".O c #abb5ba",
".X c #abb5bb",
".6 c #abb9c1",
"#e c #abc0cd",
".Q c #acb2b5",
".Z c #acb3b6",
".P c #acb3b7",
".Y c #acb4b8",
".8 c #acb5ba",
".7 c #acb6bc",
"#g c #acbac4",
"#f c #acbcc7",
"#t c #acbcc9",
"#s c #acbecd",
"#r c #acc3d4",
"#q c #acc6da",
"#o c #acc7dc",
"#n c #acc7dd",
"#p c #acc8de",
"#z c #b6d5ed",
"#A c #b6d5ee",
"#C c #b7d5ee",
"#D c #b8d5ec",
"#B c #b8d5ee",
"#y c #b9d4eb",
".N c #bbbabd",
"#E c #bbd4e9",
"#x c #bcd3e6",
"#w c #bdd2e3",
"#F c #bed2e4",
"#v c #bfd2e0",
"#G c #c0d2e1",
".C c #c2cdd2",
".H c #c2cdd3",
"#H c #c2d1de",
"#u c #c2d2dd",
".B c #c3ccd1",
".E c #c3ccd2",
".D c #c3cdd2",
".x c #c4ccd0",
".I c #c4cdd1",
".G c #c4cdd2",
".A c #c5cdd1",
".v c #c6cccf",
".w c #c6ccd0",
".5 c #c6f0f3",
".y c #c7cbce",
".u c #c7ccce",
".r c #d0d6d9",
"#i c #d0dee8",
".q c #d1d6d8",
".t c #d2d5d7",
".p c #d2d6d7",
".s c #d2d6d8",
".9 c #d2dee7",
"#h c #d5dfe5",
".0 c #d6dfe4",
".R c #d7dfe3",
".F c #d9dfe2",
".z c #dadfe2",
".o c #dbdfe1",
".m c #dcdfe0",
".n c #dcdfe1",
".l c #dddfe0",
".i c #f9fdff",
".h c #fafdff",
".j c #fbfdff",
".g c #fbfeff",
".f c #fcfeff",
".k c #fdfeff",
".W c #ffffff",
"QtQtQtQtQtQtQtQtQtQtQtQtQtQtQtQtQt",
"Qt.#.a.a.b.b.c.c.c.c.c.b.a.a.#.dQt",
".e.f.f.g.h.h.i.i.h.i.h.h.j.f.f.k.e",
".e.l.m.n.o.o.o.o.o.o.o.o.n.m.l.l.e",
".e.n.p.q.q.r.r.r.r.r.r.r.q.s.t.l.e",
".e.o.u.v.w.x.x.x.x.x.x.x.v.u.y.m.e",
".e.z.v.A.A.B.C.D.E.C.E.B.A.v.u.n.e",
".e.F.w.A.G.C.H.H.H.H.H.D.I.w.v.o.e",
".e.F.J.K.L.M.N.N.N.N.N.M.O.P.Q.z.e",
".e.R.S.T.U.V.W.W.W.W.W.V.X.Y.Z.z.e",
".e.0.1.2.3.4.5.5.5.5.5.4.6.7.8.F.e",
".e.9#.###a#b#c#c#c#c#c#d#e#f#g#h.e",
".e#i#j#k#l#m#n#n#o#p#o#q#r#s#t#i.e",
".e#u#v#w#x#y#z#A#B#A#C#D#E#F#G#H.e",
"Qt#I#J#K#L#M#N#O#P#O#Q#R#S#T#U#VQt"};
