/* XPM */
static char *dummy[]={
"17 15 23 1",
". c None",
"q c #79797b",
"s c #7a7a7b",
"r c #7b7a7d",
"h c #909091",
"j c #919091",
"p c #939295",
"# c #95989f",
"m c #abaaad",
"i c #bbbabd",
"n c #bfbfbf",
"o c #c0c0c0",
"l c #c1c0c0",
"g c #c1c1c1",
"k c #c2c1c1",
"u c #cccccc",
"t c #cdcdcd",
"f c #d5d5d5",
"e c #d6d6d6",
"d c #dddddd",
"b c #dfdfdf",
"c c #e4e4e4",
"a c #ffffff",
".................",
".###############.",
"#aaaaaaaaaaaaaaa#",
"#bcccccccccccccb#",
"#bdddddddddddddb#",
"#beeeefffffeeeeb#",
"#beeeefffffeeeeb#",
"#beeeefffffeeeeb#",
"#bggghiiiiijkkkb#",
"#blllmaaaaamkkkb#",
"#bnonpcccccpkkkb#",
"#bnonqrrrrrskkkb#",
"#bololkkkkkkkkkb#",
"#tttttuuuuuttttt#",
".###############."};
