/* XPM */
static char *dummy[]={
"16 16 11 1",
"i c #e0dfdf",
"h c #e7e7e7",
"g c #e8e7e7",
"f c #e9e8e8",
"e c #ebe9e9",
"d c #ebebeb",
"c c #ececec",
"b c #edecec",
"a c #efeded",
"# c #f0efef",
". c #f4f3f3",
"................",
"################",
"################",
"aaaaaaaaaaaaaaaa",
"bbbbbbbbbbbbbbbb",
"cccccccccccccccc",
"dddddddddddddddd",
"eeeeeeeeeeeeeeee",
"eeeeeeeeeeeeeeee",
"ffffffffffffffff",
"gggggggggggggggg",
"hhhhhhhhhhhhhhhh",
"hhhhhhhhhhhhhhhh",
"iiiiiiiiiiiiiiii",
"iiiiiiiiiiiiiiii",
"iiiiiiiiiiiiiiii"};
