/* XPM */
static char *dummy[]={
"16 16 12 1",
"j c #c5c5c5",
"i c #cfcfcf",
"h c #d0d0d0",
"g c #d2d2d2",
"f c #d3d3d3",
"e c #d5d5d5",
"d c #d7d7d7",
"c c #d8d8d8",
"b c #dadada",
"a c #dbdbdb",
"# c #dddddd",
". c #dfdfdf",
"................",
"################",
"aaaaaaaaaaaaaaaa",
"bbbbbbbbbbbbbbbb",
"cccccccccccccccc",
"dddddddddddddddd",
"eeeeeeeeeeeeeeee",
"ffffffffffffffff",
"ffffffffffffffff",
"ffffffffffffffff",
"gggggggggggggggg",
"hhhhhhhhhhhhhhhh",
"iiiiiiiiiiiiiiii",
"jjjjjjjjjjjjjjjj",
"jjjjjjjjjjjjjjjj",
"jjjjjjjjjjjjjjjj"};
