/* XPM */
static char *dummy[]={
"3 1 3 1",
"a c #7d7d7d",
". c #aeadae",
"# c #efefef",
".#a"};
