/* XPM */
static char *dummy[]={
"1 23 16 1",
". c #6d6d6d",
"n c #c5c5c5",
"m c #cfcfcf",
"l c #d0d0d0",
"k c #d2d2d2",
"j c #d3d3d3",
"i c #d5d5d5",
"h c #d7d7d7",
"g c #d8d8d8",
"f c #dadada",
"e c #dbdbdb",
"d c #dddddd",
"c c #dfdfdf",
"b c #e0e0e0",
"a c #e3e3e3",
"# c #fcfcfc",
".",
"#",
"a",
"b",
"c",
"d",
"e",
"f",
"g",
"h",
"i",
"j",
"j",
"j",
"k",
"l",
"m",
"n",
"n",
"n",
"n",
"n",
"n"};
