/* XPM */
static char *dummy[]={
"6 23 17 1",
"# c None",
". c #909090",
"o c #e0dfdf",
"n c #e7e7e7",
"m c #e8e7e7",
"l c #e9e8e8",
"k c #ebe9e9",
"j c #ebebeb",
"i c #ececec",
"h c #edecec",
"g c #efeded",
"f c #f0efef",
"e c #f1f0f0",
"c c #f3f3f3",
"d c #f4f3f3",
"b c #f8f8f8",
"a c #ffffff",
".#####",
"a..###",
"bcc.##",
"dddc.#",
"eddc.#",
"ffffc.",
"ffffc.",
"ggggc.",
"hhhhc.",
"iiiic.",
"jjjjc.",
"kkkkc.",
"kkkkc.",
"llllc.",
"mmmmc.",
"nnnnc.",
"nnnnc.",
"ooooc.",
"ooooc.",
"ooooc.",
"ooooc.",
"ooooc.",
"ooooc."};
