/* XPM */
static char *dummy[]={
"21 23 37 1",
". c None",
"I c #00477f",
"b c #012f54",
"a c #013158",
"# c #01345d",
"d c #014174",
"f c #014276",
"h c #014378",
"l c #01447a",
"c c #034a82",
"e c #044b83",
"g c #054c84",
"k c #064d85",
"o c #0a5189",
"q c #0c538b",
"m c #0d548c",
"s c #0f568e",
"u c #115890",
"n c #125991",
"w c #135a92",
"p c #145b93",
"z c #165d95",
"B c #175e96",
"r c #185f97",
"F c #196098",
"t c #1a6199",
"v c #1c639b",
"y c #1f669e",
"A c #20679f",
"C c #2168a0",
"E c #2269a1",
"G c #236aa2",
"H c #246ba3",
"i c #99b4c9",
"D c #a3bfd5",
"x c #f0f5f8",
"j c #ffffff",
".....................",
".....................",
"#abbbbbbbbbbbbbbbbba#",
"abcccccccccccccccccba",
"bcdddddddddddddddddcb",
"befffffffffffffffffeb",
"bghhhhhhhhhhhhhhhhhgb",
"bghhhijhhhhhhhjihhhgb",
"bkllljjjllllljjjlllkb",
"bmeeeejjjeeejjjeeeemb",
"bnooooojjjojjjooooonb",
"bpqqqqqqjjjjjqqqqqqpb",
"brsssssssjjjsssssssrb",
"btuuuuuujjjjjuuuuuutb",
"bvwwwwwjjjwjjxwwwwwvb",
"byzzzzjjjzzzjjjzzzzyb",
"bABBBjjjBBBBBjjjBBBAb",
"bCrrrDjrrrrrrrjDrrrCb",
"bEFFFFFFFFFFFFFFFFFEb",
"bGtttttttttttttttttGb",
"bHAAAAAAAAAAAAAAAAAHb",
"IbHHHHHHHHHHHHHHHHHbI",
"pIbbbbbbbbbbbbbbbbbIp"};
