/* XPM */
static char *dummy[]={
"21 23 34 1",
". c None",
"F c #00477f",
"b c #012f54",
"a c #013158",
"# c #01345d",
"d c #014174",
"f c #014276",
"h c #014378",
"j c #01447a",
"c c #034a82",
"e c #044b83",
"g c #054c84",
"i c #064d85",
"m c #0a5189",
"o c #0c538b",
"k c #0d548c",
"q c #0f568e",
"s c #115890",
"l c #125991",
"u c #135a92",
"n c #145b93",
"w c #165d95",
"z c #175e96",
"p c #185f97",
"C c #196098",
"r c #1a6199",
"t c #1c639b",
"v c #1f669e",
"y c #20679f",
"A c #2168a0",
"B c #2269a1",
"D c #236aa2",
"E c #246ba3",
"x c #ffffff",
".....................",
".....................",
"#abbbbbbbbbbbbbbbbba#",
"abcccccccccccccccccba",
"bcdddddddddddddddddcb",
"befffffffffffffffffeb",
"bghhhhhhhhhhhhhhhhhgb",
"bghhhhhhhhhhhhhhhhhgb",
"bijjjjjjjjjjjjjjjjjib",
"bkeeeeeeeeeeeeeeeeekb",
"blmmmmmmmmmmmmmmmmmlb",
"bnooooooooooooooooonb",
"bpqqqqqqqqqqqqqqqqqpb",
"brsssssssssssssssssrb",
"btuuuuuuuuuuuuuuuuutb",
"bvwwwxxxxxxxwwwwwwwvb",
"byzzzxxxxxxxzzzzzzzyb",
"bApppxxxxxxxpppppppAb",
"bBCCCCCCCCCCCCCCCCCBb",
"bDrrrrrrrrrrrrrrrrrDb",
"bEyyyyyyyyyyyyyyyyyEb",
"FbEEEEEEEEEEEEEEEEEbF",
"nFbbbbbbbbbbbbbbbbbFn"};
