/* XPM */
static char *dummy[]={
"21 23 84 2",
"Qt c None",
".c c #000000",
".G c #00477f",
".d c #010102",
".x c #01080e",
".t c #01101d",
".j c #011424",
".b c #011627",
".e c #01192d",
"#r c #011b30",
".1 c #011c32",
".4 c #011d34",
"#q c #011e36",
".g c #012039",
".k c #01213b",
".U c #01223d",
".X c #012440",
".Y c #012542",
"#. c #012746",
".V c #012949",
".2 c #012a4b",
".5 c #012b4d",
".Z c #012c4f",
".7 c #012e52",
".O c #012f54",
".K c #013056",
".z c #01335b",
".A c #01345d",
".B c #01355f",
".v c #013762",
".n c #013864",
".o c #013966",
".p c #013a68",
".q c #013c6b",
".r c #013d6d",
".s c #013e6f",
".w c #013f71",
".C c #014174",
".E c #014276",
".P c #014378",
".I c #01447a",
".F c #01467d",
".H c #014880",
".W c #024981",
".L c #034a82",
".6 c #044b83",
".9 c #054c84",
".M c #064d85",
".N c #074e86",
"#e c #084f87",
".h c #095088",
".m c #0a5189",
".Q c #0b528a",
".i c #0c538b",
".a c #0d548c",
".S c #0e558d",
".3 c #0f568e",
".0 c #10578f",
".R c #115890",
".D c #125991",
".T c #135a92",
"#f c #155c94",
".f c #165d95",
".l c #175e96",
".J c #185f97",
"## c #1b629a",
".y c #1d649c",
"#b c #1e659d",
".u c #20679f",
"#a c #2269a1",
"#p c #236aa2",
"#c c #256ca4",
"#d c #276ea6",
"#g c #2a71a9",
"#k c #2c73ab",
"#l c #2e75ad",
"#m c #2f76ae",
"#n c #3077af",
"#o c #3178b0",
".# c #3279b1",
"#h c #337ab2",
"#i c #3980b8",
"#j c #3a81b9",
".8 c #babbbc",
"QtQtQtQtQtQtQtQtQtQtQtQtQtQtQtQtQtQtQtQtQt",
"QtQtQtQtQtQtQtQtQtQtQtQtQtQtQtQtQtQtQtQtQt",
".#.a.b.c.c.d.d.d.d.d.d.d.d.d.d.d.c.c.e.f.#",
".a.g.h.h.h.h.h.h.h.h.h.h.h.h.h.h.h.h.i.j.f",
".k.l.m.n.n.o.p.q.q.r.s.s.q.q.p.o.p.p.m.l.k",
".t.u.v.v.n.o.p.r.s.s.w.s.s.r.p.o.n.v.v.u.x",
".t.y.z.A.B.n.p.r.s.C.C.C.s.r.p.n.B.A.z.y.x",
".t.D.z.A.v.p.s.E.F.G.H.G.I.E.s.o.v.A.z.D.x",
".t.J.K.A.v.q.w.F.L.M.N.M.L.F.w.q.v.A.K.J.x",
".t.l.O.z.v.r.P.L.N.Q.i.Q.N.L.P.r.v.z.O.l.x",
".t.R.O.A.n.w.H.N.S.D.T.D.S.N.H.w.n.A.O.R.x",
".t.N.U.V.O.v.w.W.N.a.S.a.N.W.w.v.O.V.X.N.x",
".t.N.g.Y.Z.B.w.W.h.S.0.S.h.W.w.B.Z.Y.g.N.x",
".t.N.1.U.2.A.s.H.h.a.3.a.h.H.s.A.2.U.1.N.x",
".t.N.4.X.5.B.C.6.Q.0.D.0.Q.6.C.B.5.X.4.N.x",
".t.N.4.Y.7.8.8.8.8.8.8.8.S.M.P.n.7.Y.4.N.x",
".t.N.k.V.z.8.8.8.8.8.8.8.D.Q.H.r.z.V.k.N.x",
".t.N.Y.5.B.8.8.8.8.8.8.8.l.3.M.C.B.5.Y.N.x",
".t.9#..K.p.F.h.T##.u#a.u##.T.h.F.p.K#..9.x",
".t.9.Z.A.s.L.a.f#b#c#d#c#b.f.a.L.s.A.Z.9.x",
".t#e.F.W.Q#f.u#g#h#i#j#i#h#g.u#f.Q.W.F#e.x",
".z.j.u#k#l#m#n#o#h#h#h#h#h#h#n#m#l#k#p.j.A",
".o.z#q#q#q#q#q#q#q#q#q#q#q#q#q#q#q#q#r#..p"};
