/* XPM */
static char *dummy[]={
"21 23 49 1",
". c None",
"x c #00477f",
"T c #012b4d",
"N c #012c4f",
"L c #012e52",
"G c #012f54",
"D c #01335b",
"C c #013762",
"U c #013864",
"z c #013966",
"B c #013a68",
"y c #014174",
"u c #01467d",
"A c #074e86",
"I c #0a5189",
"b c #0b528a",
"d c #0e558d",
"M c #125991",
"v c #135a92",
"w c #145b93",
"P c #175e96",
"c c #1c639b",
"f c #1f669e",
"t c #2269a1",
"a c #236aa2",
"s c #246ba3",
"E c #256ca4",
"F c #266da5",
"q c #276ea6",
"H c #286fa7",
"J c #2970a8",
"o c #2a71a9",
"m c #2b72aa",
"R c #2d74ac",
"K c #2e75ad",
"l c #2f76ae",
"r c #3077af",
"i c #3178b0",
"# c #3279b1",
"j c #337ab2",
"n c #347bb3",
"k c #357cb4",
"g c #367db5",
"h c #387fb7",
"O c #3980b8",
"e c #3e85bd",
"Q c #3f86be",
"S c #458cc4",
"p c #ffffff",
".....................",
".....................",
"#abbbbbbbbbbbbbbbbbc#",
"adeeeeeeeeeeeeeeeeefc",
"bghiiiiiiijjiiiijjhgb",
"bklllllllllllllllllkb",
"bkmmmmmmmmmmmmmmmmmkb",
"bnooopppppppppppooonb",
"b#qqqpppppppppppqqq#b",
"brssspppppppppppsssrb",
"bltttptttttttttptttlb",
"usvwwpwwvwwwwwwpwwwsx",
"ytdddpdddddddddpdddty",
"ztAAApAAAAAAAAApAAAtB",
"CtAAApAAAAAAAAApAAAtC",
"DEAAApAAAAAAAAApAAAFD",
"GHIIIpIIIIIIIIIpIIIJG",
"GKdddpppppppppppdddKG",
"L#MMMMMMMMMMMMMMMMM#L",
"NOPPPPPPPPPPPPPPPPPON",
"NoQRRRRRRRRRRRRRRROoN",
"zyRSSSSSSSSSSSSSSSRyz",
"zCTTTTTTTTTNNTTTTTTUB"};
