/* XPM */
static char *dummy[]={
"21 23 84 2",
"Qt c None",
".c c #000000",
".d c #010102",
".x c #01080e",
".t c #01101d",
".j c #011424",
".b c #011627",
".e c #01192d",
"#r c #011b30",
".X c #011c32",
".1 c #011d34",
"#q c #011e36",
".g c #012039",
".k c #01213b",
".Q c #01223d",
".T c #012440",
".U c #012542",
"## c #012746",
".R c #012949",
".Y c #012a4b",
".2 c #012b4d",
".V c #012c4f",
".4 c #012e52",
".J c #012f54",
".H c #013056",
".z c #01335b",
".A c #01345d",
".B c #01355f",
".v c #013762",
".n c #013864",
".o c #013966",
".p c #013a68",
".q c #013c6b",
".r c #013d6d",
".s c #013e6f",
".w c #013f71",
".C c #014174",
".E c #014276",
".K c #014378",
".I c #01467d",
".Z c #014880",
".S c #024981",
".L c #034a82",
".3 c #044b83",
"#. c #054c84",
".5 c #064d85",
".M c #074e86",
"#e c #084f87",
".h c #095088",
".m c #0a5189",
".N c #0b528a",
".i c #0c538b",
".a c #0d548c",
".P c #0e558d",
".0 c #0f568e",
".W c #10578f",
".O c #115890",
".D c #125991",
".6 c #135a92",
".7 c #145b93",
"#f c #155c94",
".f c #165d95",
".l c #175e96",
".G c #185f97",
"#a c #1b629a",
".8 c #1c639b",
".y c #1d649c",
".9 c #1e659d",
".u c #20679f",
"#b c #2269a1",
"#p c #236aa2",
"#c c #256ca4",
"#d c #276ea6",
"#g c #2a71a9",
"#k c #2c73ab",
"#l c #2e75ad",
"#m c #2f76ae",
"#n c #3077af",
"#o c #3178b0",
".# c #3279b1",
"#h c #337ab2",
"#i c #3980b8",
"#j c #3a81b9",
".F c #babbbc",
"QtQtQtQtQtQtQtQtQtQtQtQtQtQtQtQtQtQtQtQtQt",
"QtQtQtQtQtQtQtQtQtQtQtQtQtQtQtQtQtQtQtQtQt",
".#.a.b.c.c.d.d.d.d.d.d.d.d.d.d.d.c.c.e.f.#",
".a.g.h.h.h.h.h.h.h.h.h.h.h.h.h.h.h.h.i.j.f",
".k.l.m.n.n.o.p.q.q.r.s.s.q.q.p.o.p.p.m.l.k",
".t.u.v.v.n.o.p.r.s.s.w.s.s.r.p.o.n.v.v.u.x",
".t.y.z.A.B.n.p.r.s.C.C.C.s.r.p.n.B.A.z.y.x",
".t.D.z.A.v.p.s.E.F.F.F.F.F.F.F.o.v.A.z.D.x",
".t.G.H.A.v.q.w.I.F.F.F.F.F.F.F.q.v.A.H.G.x",
".t.l.J.z.v.r.K.L.M.N.i.N.M.L.F.r.v.z.J.l.x",
".t.O.J.A.n.F.F.F.F.F.F.F.P.M.F.w.n.A.J.O.x",
".t.M.Q.R.J.F.F.F.F.F.F.F.M.S.F.v.J.R.T.M.x",
".t.M.g.U.V.F.w.S.h.P.W.F.h.S.F.B.V.U.g.M.x",
".t.M.X.Q.Y.F.s.Z.h.a.0.F.h.F.F.A.Y.Q.X.M.x",
".t.M.1.T.2.F.C.3.N.W.D.F.N.3.C.B.2.T.1.M.x",
".t.M.1.U.4.F.K.5.P.6.7.F.P.5.K.n.4.U.1.M.x",
".t.M.k.R.z.F.F.F.F.F.F.F.D.N.Z.r.z.R.k.M.x",
".t.M.U.2.B.C.5.0.l.8.9.8.l.0.5.C.B.2.U.M.x",
".t#.##.H.p.I.h.6#a.u#b.u#a.6.h.I.p.H###..x",
".t#..V.A.s.L.a.f.9#c#d#c.9.f.a.L.s.A.V#..x",
".t#e.I.S.N#f.u#g#h#i#j#i#h#g.u#f.N.S.I#e.x",
".z.j.u#k#l#m#n#o#h#h#h#h#h#h#n#m#l#k#p.j.A",
".o.z#q#q#q#q#q#q#q#q#q#q#q#q#q#q#q#q#r##.p"};
