/* XPM */
static char *dummy[]={
"1 30 24 1",
"m c #00477f",
"v c #01223d",
". c #012f54",
"u c #01345d",
"t c #013762",
"s c #013966",
"r c #013a68",
"q c #013d6d",
"p c #013f71",
"o c #014276",
"n c #01447a",
"l c #034a82",
"k c #054c84",
"j c #1c639b",
"i c #1e659d",
"h c #236aa2",
"g c #266da5",
"f c #286fa7",
"e c #2b72aa",
"d c #2d74ac",
"c c #3279b1",
"b c #347bb3",
"a c #377eb6",
"# c #4d94cc",
".",
"#",
"a",
"b",
"c",
"c",
"d",
"d",
"e",
"f",
"g",
"g",
"h",
"i",
"j",
"k",
"k",
"l",
"m",
"n",
"n",
"o",
"p",
"q",
"r",
"s",
"t",
"u",
"u",
"v"};
