/* XPM */
static char *dummy[]={
"9 30 31 1",
"# c None",
"C c #01223d",
". c #012f54",
"e c #013158",
"f c #01335b",
"i c #01345d",
"m c #01355f",
"n c #013762",
"o c #013864",
"p c #013966",
"g c #013a68",
"l c #013d6d",
"d c #014276",
"h c #014880",
"k c #024981",
"q c #034a82",
"j c #044b83",
"r c #064d85",
"s c #084f87",
"t c #0a5189",
"u c #0d548c",
"v c #0e558d",
"w c #0f568e",
"x c #10578f",
"y c #115890",
"z c #125991",
"A c #135a92",
"B c #145b93",
"c c #165d95",
"b c #1c639b",
"a c #1d649c",
"....#####",
"aabcd.###",
"efghaci##",
"eeeefjc.#",
"fffffiad#",
"iiiiiikc.",
"iiiiiilb.",
"mmmmmmna.",
"nnnnnnna.",
"oooooooa.",
"pppppppa.",
"pppppppa.",
"ggggggga.",
"ddddddda.",
"hhhhhhha.",
"qqqqqqqa.",
"rrrrrrra.",
"sssssssa.",
"ttttttta.",
"uuuuuuua.",
"vvvvvvva.",
"wwwwwwwa.",
"xxxxxxxa.",
"yyyyyyya.",
"zzzzzzza.",
"AAAAAAAa.",
"BBBBBBBa.",
"BBBBBBBa.",
"BBBBBBBa.",
"hhhhhhBaC"};
