/* XPM */
static char *dummy[]={
"15 16 46 1",
". c None",
"n c #591b30",
"# c #be3f3b",
"O c #c23f4b",
"P c #db5d53",
"R c #df6157",
"Q c #e16154",
"K c #e7685c",
"N c #e86659",
"L c #ea6a5d",
"M c #ef6f5f",
"H c #f07060",
"F c #f27562",
"I c #f37563",
"J c #f47664",
"y c #f67a67",
"G c #f77b68",
"d c #f9e9b6",
"c c #fae9b6",
"v c #fb7f6b",
"E c #fb806b",
"B c #fb826c",
"j c #fcc69d",
"A c #fe836e",
"x c #fe8671",
"t c #fe8a71",
"i c #fec59c",
"z c #ff816a",
"C c #ff8269",
"D c #ff826a",
"r c #ff8470",
"w c #ff8870",
"s c #ff8975",
"k c #ff947c",
"l c #ff9e87",
"e c #ffa186",
"m c #ffa790",
"f c #ffab96",
"p c #ffad8f",
"o c #ffae91",
"q c #ffb08f",
"g c #ffbaa0",
"h c #ffc7a2",
"a c #ffd5b7",
"b c #ffe3b9",
"u c #ffffff",
"...............",
"..###########..",
".#abcdcddddba#.",
"#efghihijijgfe#",
"#klmnnopqnnmlk#",
"#rstuuntnuutsr#",
"#vwxuuunuuuxwv#",
"#yzABuuuuuBBzy#",
"#yCDEnuuunEECy#",
"#FGGnuuuuunGGF#",
"#HIJuuuJuuuJIH#",
"#KLMuuMMMuuMLK#",
"#KNLLLLLLLLLNK#",
"#OPQRRRRRRRRPO#",
".#OOOOOOOOOOO#.",
"..###########.."};
