/* XPM */
static char *dummy[]={
"15 16 48 1",
". c None",
"k c #591b30",
"# c #be3f3b",
"a c #c23f4b",
"d c #e06357",
"h c #e7685c",
"e c #e86658",
"g c #eb695c",
"i c #eb6b5d",
"f c #ec6a5d",
"j c #ee6d5e",
"m c #f06e61",
"l c #f07060",
"n c #f17061",
"p c #f27063",
"q c #f27562",
"s c #f67868",
"r c #f67968",
"w c #f67a67",
"v c #f77b68",
"u c #f87b68",
"t c #f97c68",
"T c #f9e9b6",
"c c #fae9b6",
"A c #fb7f6b",
"z c #fb7f6c",
"y c #fc806c",
"x c #fd806b",
"C c #fe846f",
"B c #fe866f",
"G c #fe8a71",
"F c #fe8b72",
"O c #fec7a1",
"D c #ff8470",
"E c #ff8973",
"H c #ff947c",
"L c #ffa186",
"I c #ffa38a",
"J c #ffaa90",
"K c #ffae91",
"b c #ffaf97",
"M c #ffb098",
"N c #ffbea1",
"P c #ffc7a1",
"Q c #ffc7a2",
"R c #ffd5b7",
"S c #ffe3b9",
"o c #ffffff",
"...............",
"..###########..",
".#aaaaaaaaaaa#.",
"#abcccccccccba#",
"#bdefgggggfedb#",
"#hijkklllkkjih#",
"#hmnookpkoonmh#",
"#qrsoookooosrq#",
"#qtuvooooovutq#",
"#wxyzkoookzyxw#",
"#ABCkoooookCBA#",
"#DEFoooGoooFED#",
"#HIJooKKKooJIH#",
"#LMNOPQQQPONML#",
".#RSTTTTTTTSR#.",
"..###########.."};
