/* XPM */
static char *dummy[]={
"15 16 45 1",
". c None",
"n c #461e1a",
"# c #a63944",
"Q c #a73a44",
"N c #aa3c55",
"O c #c6545a",
"P c #c6555c",
"K c #cd565b",
"H c #cd595e",
"L c #ce595f",
"M c #d05a5f",
"I c #d05b60",
"J c #d45c5f",
"E c #d55d60",
"C c #d75f5f",
"F c #d86061",
"G c #d96162",
"z c #db6464",
"D c #dc6565",
"v c #e06968",
"B c #e06a68",
"A c #e06c69",
"r c #e46e6d",
"y c #e4706e",
"w c #e4716d",
"x c #e4716f",
"t c #e4746f",
"s c #e7716f",
"k c #ea7973",
"q c #ea9b8c",
"p c #eb988b",
"j c #ecb59c",
"o c #ed978a",
"i c #edb49b",
"l c #ef817a",
"e c #f18075",
"h c #f1b29b",
"m c #f28981",
"f c #f58c84",
"g c #f79d8e",
"d c #f9e9b6",
"b c #fadcb7",
"c c #fae9b6",
"a c #febfa4",
"u c #ffffff",
"...............",
"..###########..",
".#abcdcddddba#.",
"#efghihijijgfe#",
"#klmnnopqnnmlk#",
"#rstuuntnuutsr#",
"#vwxuuunuuuywv#",
"#zAAAuuuuuAAAz#",
"#zBBBnuuunBBBz#",
"#CDDnuuuuunDDC#",
"#EFGuuuGuuuGFE#",
"#HIJuuJJJuuJIH#",
"#HKLMMMMMMMLKH#",
"#NOPPPPPPPPPON#",
".#NNNNNNNNNNN#.",
"..####Q#QQ###.."};
