/* XPM */
static char *dummy[]={
"15 16 25 1",
". c None",
"# c None",
"b c #474e50",
"a c #5c6365",
"v c #5f6668",
"n c #626469",
"w c #737a7c",
"u c #7e8587",
"s c #858c8e",
"t c #899092",
"p c #8d9496",
"r c #909799",
"o c #959c9e",
"m c #969d9f",
"c c #9ca3a5",
"l c #a1a8aa",
"e c #a2a9ab",
"g c #a5acae",
"k c #a7aeb0",
"j c #a8afb1",
"h c #a9b0b2",
"i c #aab1b3",
"f c #aeb5b7",
"d c #b1b8ba",
"q c #ffffff",
"...............",
"#abbbbbbbbbbba.",
"abcdddddddddcba",
"bedddddddddddeb",
"bdfffffffffffdb",
"bghihhhhhhhhhgb",
"bjgggggggggggjb",
"bklllllllllllkb",
"beccccccccccceb",
"bcmmnnnnnmmmmcb",
"boppqqqqqppppob",
"brssqqqqqssssrb",
"btuuuuuuuuuuutb",
"bvwwwwwwwwwwwvb",
".bvvvvvvvvvvvb.",
"..bbbbbbbbbbb.."};
