/* XPM */
static char *dummy[]={
"15 16 27 1",
". c None",
"# c None",
"i c #626469",
"b c #777e80",
"a c #808789",
"y c #848b8d",
"x c #899092",
"w c #8e9597",
"v c #909799",
"u c #91989a",
"t c #939a9c",
"s c #959c9e",
"r c #969d9f",
"q c #989fa1",
"p c #99a0a2",
"o c #9ba2a4",
"n c #9ca3a5",
"c c #9da4a6",
"m c #9ea5a7",
"j c #9fa6a8",
"l c #a0a7a9",
"h c #a3aaac",
"f c #a8afb1",
"g c #a9b0b2",
"d c #b0b7b9",
"e c #b1b8ba",
"k c #ffffff",
"...............",
"#abbbbbbbbbbba.",
"abcdeeeeeeedcba",
"bcfffffffffffcb",
"bghhiiiiiiihhgb",
"bjjjkkkkkkkjjjb",
"blmmkkkkkkkmmlb",
"bmcckccccckccmb",
"bnookoooookoonb",
"bpqqkqqqqqkqqpb",
"brsskiiiiikssrb",
"btuukkkkkkkuutb",
"bvwwwwwwwwwwwvb",
"bwxxxxxxxxxxxwb",
".byyyyyyyyyyyb.",
"..bbbbbbbbbbb.."};
