/* XPM */
static char *dummy[]={
"13 29 35 1",
"# c None",
". c #777e80",
"j c #9ca1a2",
"i c #9ca1a3",
"o c #9ca2a2",
"l c #9ca2a3",
"g c #9da1a2",
"f c #9da1a3",
"k c #9da2a2",
"h c #9da2a3",
"c c #9fa2a3",
"d c #9fa2a4",
"e c #9fa3a3",
"b c #a0a3a3",
"a c #a0a3a4",
"m c #a0a4a5",
"p c #a1a4a5",
"n c #a1a5a5",
"q c #a1a5a6",
"r c #a2a6a6",
"s c #a3a7a8",
"t c #a4a8aa",
"u c #a5a9aa",
"v c #a6aaac",
"w c #a7abad",
"x c #a8acae",
"y c #aaadaf",
"z c #acaeb0",
"A c #adb0b1",
"B c #aeb1b2",
"C c #aeb2b3",
"D c #afb2b4",
"E c #afb3b4",
"F c #b0b4b5",
"G c #b1b4b6",
".........####",
"aabcdcecc..##",
"ffghijjjjjj.#",
"hhkjgjjjjjj.#",
"kkhljgjjjjjc.",
"hhljjijjjjje.",
"llfljgjjjjja.",
"iijjjjjjjjjm.",
"hhlfjkjjjjjn.",
"oogojjjjjjjp.",
"hhlojjjjjjjq.",
"hhlljjjjjjjr.",
"llkijjjjjjjs.",
"gglfljjjjjjt.",
"hhhhkjjjjjju.",
"lljggojjjjjv.",
"jjgggojjjjjw.",
"hhijjjjjjjjx.",
"kkllhjjjjjjy.",
"kkigjojjjjjz.",
"ffjlfijjjjjA.",
"hhiffijjjjjB.",
"lllfojjjjjjC.",
"kkhljjjjjjjD.",
"kkfkhjjjjjjD.",
"lljlljjjjjjE.",
"kkhfijjjjjjF.",
"hhhjkljjjjjF.",
"hhgfoijjjjjG."};
