/* XPM */
static char *dummy[]={
"13 23 32 1",
". c None",
"# c #212424",
"g c #232323",
"h c #4f4f4f",
"m c #535353",
"p c #575757",
"i c #5b5b5b",
"j c #5c5c5c",
"k c #5e5e5e",
"u c #605f60",
"n c #606060",
"l c #616161",
"o c #626262",
"q c #646464",
"A c #686868",
"r c #6a6a6a",
"a c #6b6c6d",
"b c #6b6c6e",
"s c #6c6c6c",
"c c #6c6c6e",
"d c #6c6d6e",
"e c #6d6e6e",
"f c #6d6e6f",
"t c #6f6f6f",
"D c #707070",
"v c #727272",
"w c #787878",
"x c #7b7b7b",
"y c #818181",
"z c #828282",
"B c #838383",
"C c #848484",
"....#########",
"..##aaabcdeff",
".ghhhhhhhhhhh",
".ihhhhhhhhhhh",
"gjhhhhhhhhhhh",
"gkhhhhhhhhhhh",
"glmmmmmmmmmmm",
"gnmmmmmmmmmmm",
"goppppppppppp",
"gqppppppppppp",
"griiiiiiiiiii",
"gsiiiiiiiiiii",
"gtuuuuuuuuuuu",
"gvuuuuuuuuuuu",
"gwqqqqqqqqqqq",
"gxqqqqqqqqqqq",
"gyqqqqqqqqqqq",
"gzAAAAAAAAAAA",
"gBAAAAAAAAAAA",
"gCsssssssssss",
"gCsssssssssss",
"gCDDDDDDDDDDD",
"gCDDDDDDDDDDD"};
